TexturaLibera-Light-Cond.sfdir
StartChar: quotedbl
Encoding: 34 34 2
Width: 400
Flags: W
HStem: 441 178
VStem: 51 278
LayerCount: 2
Back
SplineSet
262.5 582.5 m 25
 292.5 552.5 l 1
 292.5 522.5 l 25
 247.5 477.5 l 1049
102.5 582.5 m 25
 132.5 552.5 l 1
 132.5 522.5 l 25
 87.5 477.5 l 1049
EndSplineSet
Fore
SplineSet
66 563 m 1
 122 619 l 1
 169 572 l 1
 169 542 l 1
 68 441 l 1
 51 458 l 1
 96 503 l 1
 96 533 l 1
 66 563 l 1
226 563 m 1
 282 619 l 1
 329 572 l 1
 329 542 l 1
 228 441 l 1
 211 458 l 1
 256 503 l 1
 256 533 l 1
 226 563 l 1
EndSplineSet
EndChar
StartChar: dollar
Encoding: 36 36 4
Width: 480
Flags: W
HStem: -187 21G<203 240> -6 83<121.22 203> 13 74<78 201.381> 513 74<278.619 402> 523 83<277 358.78> 617 20G<160 203 440 477>
VStem: 43 74<373 500> 203 74<-130 -28 77 249 351 523 628 680> 363 74<100 227>
CounterMasks: 1 0380
LayerCount: 2
Back
SplineSet
240 700 m 25
 240 -150 l 1049
440 600 m 17
 440 600 410 550 380 550 c 24
 292 550 160 600 160 600 c 9
 80 520 l 1
 80 340 l 1
 400 260 l 1
 400 80 l 1
 320 0 l 17
 320 0 188 50 100 50 c 24
 70 50 40 0 40 0 c 1025
EndSplineSet
Fore
SplineSet
460 637 m 1x9780
 477 620 l 1
 477 620 467 604 453 590 c 2
 397 533 l 2
 396 532 l 0
 385 521 373 513 360 513 c 0x9780
 334 513 306 517 277 523 c 1
 277 333 l 1
 420 297 l 1
 437 280 l 1
 437 100 l 1
 300 -37 l 1
 300 -37 292 -33 277 -28 c 1
 277 -130 l 1
 220 -187 l 1
 203 -170 l 1
 203 -6 l 1xcf80
 163 4 118 13 80 13 c 0
 76 13 71 12 67 10 c 2
 20 -37 l 1
 3 -20 l 1
 3 -20 13 -4 27 10 c 2
 83 67 l 2
 94 78 107 87 120 87 c 0xa780
 146 87 174 83 203 77 c 1
 203 267 l 1
 60 303 l 1
 43 320 l 1
 43 500 l 1
 180 637 l 1
 180 637 188 633 203 628 c 1
 203 680 l 1
 260 737 l 1
 277 720 l 1
 277 606 l 1xcf80
 317 596 362 587 400 587 c 0
 404 587 408 588 413 590 c 2
 460 637 l 1x9780
203 542 m 1
 166 553 140 563 140 563 c 0
 140 563 120 543 117 540 c 2
 117 373 l 1
 203 351 l 1
 203 542 l 1
277 58 m 1
 314 47 340 37 340 37 c 1
 363 60 l 1
 363 227 l 1
 277 249 l 1
 277 58 l 1
EndSplineSet
EndChar
StartChar: parenright
Encoding: 41 41 9
Width: 200
Flags: W
HStem: -187 21G<3 40>
VStem: 123 74<92.7362 457.264>
LayerCount: 2
Back
SplineSet
40 700 m 17
 40 700 160 575 160 275 c 0
 160 -25 40 -150 40 -150 c 1033
EndSplineSet
Fore
SplineSet
60 737 m 1
 77 720 l 1
 77 720 197 595 197 295 c 0
 197 -5 77 -130 77 -130 c 1
 20 -187 l 1
 3 -170 l 1
 3 -170 123 -45 123 255 c 0
 123 555 3 680 3 680 c 1
 60 737 l 1
EndSplineSet
EndChar
StartChar: plus
Encoding: 43 43 11
Width: 480
Flags: W
HStem: 263 74<100 203 277 380> 517 20G<240 277>
VStem: 203 74<120 263 337 480>
LayerCount: 2
Back
SplineSet
240 500 m 25
 240 100 l 1049
80 300 m 25
 400 300 l 1049
EndSplineSet
Fore
SplineSet
43 280 m 1
 100 337 l 1
 203 337 l 1
 203 480 l 1
 260 537 l 1
 277 520 l 1
 277 337 l 1
 420 337 l 1
 437 320 l 1
 380 263 l 1
 277 263 l 1
 277 120 l 1
 220 63 l 1
 203 80 l 1
 203 263 l 1
 60 263 l 1
 43 280 l 1
EndSplineSet
EndChar
StartChar: hyphen
Encoding: 45 45 13
Width: 240
Flags: W
HStem: 163 99
VStem: 43 154
LayerCount: 2
Back
SplineSet
80 200 m 25
 160 225 l 1049
EndSplineSet
Fore
SplineSet
43 180 m 1
 100 237 l 1
 180 262 l 1
 197 245 l 1
 140 188 l 1
 60 163 l 1
 43 180 l 1
EndSplineSet
EndChar
StartChar: period
Encoding: 46 46 14
Width: 240
Flags: W
HStem: -37 104
VStem: 68 104
LayerCount: 2
Back
SplineSet
105 30 m 25
 135 0 l 1049
EndSplineSet
Fore
SplineSet
68 10 m 1
 125 67 l 1
 172 20 l 1
 115 -37 l 1
 68 10 l 1
EndSplineSet
EndChar
StartChar: four
Encoding: 52 52 20
Width: 320
Flags: W
HStem: -187 21G<200 235> -37 74<258.348 300> -12 74<117.568 183> 417 20G<160 197 220 257> 417 20G<160 197 220 257>
VStem: 43 74<51 180> 183 74<-115 -23 62 342>
LayerCount: 2
Back
SplineSet
205 -120 m 25
 235 -150 l 1049
220 -135 m 1
 220 400 l 1
 220 400 207 375 192 375 c 27
 176 375 160 400 160 400 c 1
 80 200 l 1
 80 0 l 1
 80 0 91 25 160 25 c 3
 269 25 319 0 320 0 c 1025
EndSplineSet
Fore
SplineSet
165 340 m 2xa6
 117 220 l 1
 117 51 l 1
 129 57 148 62 180 62 c 0
 181 62 182 62 183 62 c 2
 183 342 l 2
 180 340 176 338 172 338 c 0
 170 338 167 339 165 340 c 2xa6
257 57 m 2
 260 57 262 56 264 56 c 0
 315 49 339 37 340 37 c 2
 357 20 l 1
 300 -37 l 2xd6
 299 -37 286 -30 257 -23 c 1
 257 -115 l 1
 272 -130 l 1
 215 -187 l 1
 200 -172 l 1
 183 -155 l 1
 168 -140 l 1
 183 -125 l 1
 183 -13 l 1
 170 -12 155 -12 140 -12 c 0xa6
 101 -12 81 -20 70 -27 c 2
 60 -37 l 1
 43 -20 l 1
 43 180 l 1
 123 380 l 1
 180 437 l 1
 197 420 l 2
 197 420 197 418 199 416 c 0
 202 414 208 412 212 412 c 0
 213 412 214 412 215 412 c 2
 240 437 l 1xd6
 257 420 l 1
 257 57 l 2
EndSplineSet
Substitution2: "Subscript forms-1" four.inferior
Substitution2: "Superscript forms-1" four.superior
EndChar
StartChar: seven
Encoding: 55 55 23
Width: 320
Flags: W
HStem: 113 49<208.385 241> 313 74<120.012 204.206> 417 20G<60 128 260 317> 417 20G<60 128 260 317>
VStem: 123 74<-110 90.9211>
LayerCount: 2
Back
SplineSet
145 -115 m 25
 175 -145 l 1049
60 400 m 1
 60 400 110 350 180 350 c 3
 223 350 280 400 280 400 c 1
 280 400 160 276 160 0 c 3
 160 -32 160 -130 160.799804688 -130 c 1025
80 125 m 25
 80 125 118 150 140 150 c 24
 175 150 165 125 200 125 c 24
 222 125 260 150 261 150 c 1049
EndSplineSet
Fore
SplineSet
43 105 m 1xe8
 100 162 l 1
 100 162 126 179 148 185 c 1
 164 247 186 294 205 326 c 1
 191 319 174 313 160 313 c 0
 90 313 40 363 40 363 c 1
 23 380 l 1
 80 437 l 1
 80 437 130 387 200 387 c 0
 243 387 300 437 300 437 c 1
 317 420 l 1
 317 420 238 339 208 163 c 0
 211 162 216 162 220 162 c 0
 242 162 280 187 281 187 c 2
 298 170 l 1
 241 113 l 2
 240 113 220 99 200 92 c 1
 198 69 197 45 197 20 c 0
 197 -12 197 -109 198 -110 c 2
 197 -111 l 1
 212 -125 l 1
 155 -182 l 1
 108 -135 l 1
 123 -120 l 1
 123 -88 123 -41 123 -20 c 0
 123 28 127 73 133 112 c 0
 130 113 125 113 120 113 c 0
 98 113 60 88 60 88 c 1
 43 105 l 1xe8
141 -167 m 1
 141 -167 l 1
EndSplineSet
Substitution2: "Subscript forms-1" seven.inferior
Substitution2: "Superscript forms-1" seven.superior
EndChar
StartChar: eight
Encoding: 56 56 24
Width: 320
Flags: W
HStem: 617 20G<160 200>
VStem: 43 74<65.1574 225 393 500> 203 74<100 257 425 534.843>
LayerCount: 2
Back
SplineSet
160 600 m 25
 80 520 l 25
 80 365 l 25
 160 325 l 25
 240 405 l 25
 240 520 l 25
 160 600 l 25
160 325 m 25
 80 245 l 25
 80 80 l 25
 160 0 l 25
 240 80 l 25
 240 285 l 25
 160 325 l 25
EndSplineSet
Fore
SplineSet
140 563 m 1
 117 540 l 1
 117 393 l 1
 180 362 l 2
 180 362 200 382 203 385 c 2
 203 500 l 2
 203 534 158 545 140 563 c 1
43 500 m 1
 180 637 l 1
 277 540 l 1
 277 425 l 1
 202 350 l 1
 260 322 l 1
 277 305 l 1
 277 100 l 1
 140 -37 l 1
 43 60 l 1
 43 225 l 1
 118 300 l 1
 60 328 l 1
 43 345 l 1
 43 500 l 1
140 288 m 1
 117 265 l 1
 117 100 l 2
 117 66 162 55 180 37 c 1
 203 60 l 1
 203 257 l 1
 140 288 l 1
EndSplineSet
Substitution2: "Subscript forms-1" eight.inferior
Substitution2: "Superscript forms-1" eight.superior
EndChar
StartChar: nine
Encoding: 57 57 25
Width: 320
Flags: W
HStem: -187 74<98 150.079> 417 20G<160 200> 417 20G<160 200>
VStem: 43 74<100 300> 203 74<-140 26 60 300>
LayerCount: 2
Back
SplineSet
240 80 m 1
 160 0 l 1
 80 80 l 25
 80 320 l 25
 160 400 l 25
 240 320 l 1
 240 -160 l 9
 200 -200 l 17
 200 -200 157 -150 120 -150 c 27
 90 -150 60 -200 60 -200 c 1025
EndSplineSet
Fore
SplineSet
203 60 m 1x98
 203 300 l 1
 140 363 l 1
 117 340 l 1
 117 100 l 1
 180 37 l 1
 203 60 l 1x98
203 26 m 1
 140 -37 l 1
 43 60 l 1
 43 300 l 1
 180 437 l 1xd8
 277 340 l 1
 277 -140 l 1
 180 -237 l 1
 163 -220 l 1
 163 -219 l 0
 147 -205 122 -187 100 -187 c 0
 96 -187 91 -188 87 -190 c 2
 40 -237 l 1
 23 -220 l 1
 23 -220 33 -204 47 -190 c 2
 103 -133 l 2
 114 -122 127 -113 140 -113 c 0
 163 -113 187 -131 203 -146 c 1
 203 26 l 1
EndSplineSet
Substitution2: "Subscript forms-1" nine.inferior
Substitution2: "Superscript forms-1" nine.superior
EndChar
StartChar: semicolon
Encoding: 59 59 27
Width: 240
Flags: W
VStem: 51 121
LayerCount: 2
Back
SplineSet
102.5 30 m 25
 132.5 0 l 1
 132.5 -30 l 25
 87.5 -75 l 1049
105 345 m 25
 135 315 l 1049
EndSplineSet
Fore
SplineSet
68 325 m 1
 125 382 l 1
 172 335 l 1
 115 278 l 1
 68 325 l 1
66 10 m 1
 122 67 l 1
 169 20 l 1
 169 -10 l 1
 68 -112 l 1
 51 -95 l 1
 96 -50 l 1
 96 -20 l 1
 66 10 l 1
EndSplineSet
EndChar
StartChar: equal
Encoding: 61 61 29
Width: 480
Flags: W
HStem: 163 74<100 380> 363 74<100 380>
LayerCount: 2
Back
SplineSet
80 200 m 25
 400 200 l 1049
80 400 m 25
 400 400 l 1049
EndSplineSet
Fore
SplineSet
43 380 m 1
 100 437 l 1
 420 437 l 1
 437 420 l 1
 380 363 l 1
 60 363 l 1
 43 380 l 1
43 180 m 1
 100 237 l 1
 420 237 l 1
 437 220 l 1
 380 163 l 1
 60 163 l 1
 43 180 l 1
EndSplineSet
EndChar
StartChar: greater
Encoding: 62 62 30
Width: 480
Flags: W
HStem: 517 20G<80 132>
LayerCount: 2
Back
SplineSet
80 500 m 25
 400 300 l 25
 80 100 l 1049
EndSplineSet
Fore
SplineSet
43 480 m 1
 100 537 l 1
 420 337 l 1
 437 320 l 1
 380 263 l 1
 60 63 l 1
 43 80 l 1
 100 137 l 1
 341 288 l 1
 60 463 l 1
 43 480 l 1
EndSplineSet
EndChar
StartChar: A
Encoding: 65 65 33
Width: 560
Flags: W
HStem: 538 21G<143 180 318 354.31> 563 74<198.376 246>
VStem: 243 74<383.737 557.139>
AnchorPoint: "blwmark" 320 0 basechar 0
AnchorPoint: "abvmark" 360 700 basechar 0
LayerCount: 2
Back
SplineSet
415 570 m 25
 385 600 l 25
 355 570 l 1049
160 300 m 1
 160 300 184 350 240 350 c 3
 342 350 400 250 401 250 c 1025
180 575 m 1
 180 575 188 600 220 600 c 11
 259 600 280 549 280 500 c 3
 280 263 141 75 141 75 c 1025
40 0 m 17
 40 0 65 50 120 50 c 3
 198 50 220 0 220 0 c 1025
400 585 m 1
 440 40 l 1
 480 0 l 9
 520 40 l 1049
EndSplineSet
Fore
SplineSet
20 -37 m 1
 3 -20 l 1
 3 -20 9 -8 21 4 c 2
 78 60 l 2
 89 71 103 81 124 85 c 1
 150 127 194 209 221 313 c 1
 220 313 l 0
 204 313 192 310 181 304 c 2
 140 263 l 1
 123 280 l 1
 123 280 129 292 141 304 c 2
 197 360 l 2
 206 369 219 378 236 383 c 1
 241 414 243 447 243 480 c 0
 243 508 236 538 223 557 c 0
 217 561 208 563 200 563 c 0
 193 563 187 562 182 560 c 2
 160 538 l 1
 143 555 l 1
 143 555 145 562 152 568 c 2
 208 625 l 2
 214 631 225 637 240 637 c 0
 252 637 263 632 272 623 c 2
 289 606 l 2
 307 587 317 553 317 520 c 0
 317 471 311 424 302 381 c 1
 335 372 360 353 380 335 c 1
 363 562 l 1
 335 533 l 1
 318 550 l 1
 405 637 l 1
 420 622 l 1
 437 605 l 1
 452 590 l 1
 439 577 l 1
 477 60 l 2
 478 49 493 44 500 37 c 1
 540 77 l 1
 557 60 l 1
 460 -37 l 1
 403 20 l 1
 389 221 l 1
 381 213 l 2
 364 230 l 2
 363 231 354 246 338 264 c 0
 323 278 303 291 280 301 c 1
 239 177 178 95 178 95 c 2
 167 84 l 1
 196 79 215 67 226 56 c 2
 243 39 l 2
 253 29 257 20 257 20 c 1
 200 -37 l 1
 183 -20 l 2
 183 -20 181 -16 177 -10 c 0
 162 2 137 13 100 13 c 0
 84 13 71 9 60 3 c 2
 20 -37 l 1
EndSplineSet
EndChar
StartChar: B
Encoding: 66 66 34
Width: 560
Flags: W
HStem: -37 21G<3 40 268 400> 13 74<83.9052 148 172 283.844> 513 21G<3 40> 563 74<77.6875 128.282>
VStem: 148 24<87 539> 223 74<170 540> 443 74<101 275>
AnchorPoint: "blwmark" 280 0 basechar 0
AnchorPoint: "abvmark" 320 700 basechar 0
LayerCount: 2
Back
SplineSet
40 550 m 1
 40 550 67 600 99 600 c 3
 128 600 142 575 160 575 c 3
 182 575 200 600 201 600 c 1025
160 550 m 1
 160 75 l 1025
260 150 m 1
 260 560 l 1
 300 600 l 1
 480 475 l 1
 360 355 l 1025
400 375 m 1
 480 295 l 1
 480 80.7998046875 l 25
 400 0 l 17
 400 0 279 50 120 50 c 3
 65 50 40 0 40 0 c 1033
EndSplineSet
Fore
SplineSet
240 113 m 1
 223 130 l 1
 223 540 l 1
 320 637 l 1
 500 512 l 1
 517 495 l 1
 427 405 l 1
 517 315 l 1
 517 101 l 1
 437 20 l 1
 380 -37 l 1
 380 -37 259 13 100 13 c 0
 84 13 70 8 60 3 c 2
 20 -37 l 1
 3 -20 l 2
 3 -20 8 -9 20 3 c 2
 21 4 l 2
 78 60 l 2
 91 73 111 87 140 87 c 0
 143 87 145 87 148 87 c 2
 148 539 l 2
 145 538 143 538 140 538 c 0
 122 538 108 563 79 563 c 0
 75 563 72 562 68 561 c 2
 20 513 l 1
 3 530 l 1
 3 530 13 548 27 562 c 2
 83 618 l 2
 93 628 106 637 119 637 c 0
 148 637 162 612 180 612 c 0
 191 612 201 618 208 624 c 2
 220 636 l 2
 220 637 l 0
 221 637 l 2
 238 620 l 1
 236 618 l 2
 235 617 233 615 231 613 c 2
 231 612 l 2
 174 556 l 2
 173 555 173 555 172 554 c 2
 172 86 l 1
 310 80 412 40 419 37 c 1
 443 61 l 1
 443 275 l 1
 370 348 l 1
 340 318 l 1
 323 335 l 1
 440 452 l 1
 297 552 l 1
 297 170 l 1
 240 113 l 1
EndSplineSet
EndChar
StartChar: F
Encoding: 70 70 38
Width: 560
Flags: W
HStem: -37 21G<3 40 183 220> 13 74<83.9052 147.937> 263 74<376.5 422.5> 313 74<315.5 361> 488 74<369.04 421.827> 513 21G<3 40> 563 74<77.6875 128.282>
VStem: 148 24<87 539> 223 74<60 300 339 540>
AnchorPoint: "blwmark" 280 0 basechar 0
AnchorPoint: "abvmark" 320 700 basechar 0
LayerCount: 2
Back
SplineSet
40 0 m 17
 40 0 65 50 120 50 c 3
 198 50 220 0 220 0 c 9
 260 40 l 1
 260 560 l 1
 300 600 l 1
 300 600 351 525 400 525 c 27
 443 525 480 600 481 600 c 1025
40 550 m 1
 40 550 67 600 99 600 c 3
 128 600 142 575 160 575 c 3
 182 575 200 600 201 600 c 1025
160 550 m 1
 160 75 l 1025
280 300 m 1
 280 300 315 350 337 350 c 3
 365 350 372 300 400 300 c 3
 433 300 460 350 461 350 c 1049
EndSplineSet
Fore
SplineSet
20 513 m 1xd780
 3 530 l 1
 3 530 13 548 27 562 c 2
 83 618 l 2
 93 628 106 637 119 637 c 0
 148 637 162 612 180 612 c 0
 191 612 201 618 208 624 c 2
 220 636 l 2
 220 637 l 0
 221 637 l 2
 238 620 l 1
 236 618 l 2
 235 617 233 615 231 613 c 2
 231 612 l 2
 174 556 l 2
 173 555 173 555 172 554 c 2
 172 84 l 1
 196 79 213 68 223 58 c 1
 223 540 l 1
 320 637 l 1
 337 620 l 1
 337 620 345 607 359 592 c 0
 377 576 399 562 420 562 c 0
 425 562 430 563 435 565 c 0
 440 574 443 579 444 580 c 2
 501 637 l 2
 518 620 l 2
 516 618 501 590 480 568 c 2
 480 567 l 2
 423 511 l 2
 410 498 396 488 380 488 c 0
 355 488 330 507 311 526 c 2
 297 541 l 1
 297 339 l 1
 326 368 l 2
 336 378 348 387 357 387 c 0xdb80
 365 387 371 383 376 378 c 2
 393 361 l 2
 399 355 404 347 409 340 c 0
 412 338 416 337 420 337 c 0xe380
 425 337 430 338 434 340 c 2
 481 387 l 2xd380
 498 370 l 2
 496 367 488 353 475 340 c 2
 474 339 l 2
 417 282 l 2
 407 272 394 263 380 263 c 0xe380
 373 263 367 267 362 272 c 0
 361 272 l 0
 344 289 l 2
 338 295 334 302 328 310 c 0
 325 312 321 313 317 313 c 0
 314 313 311 313 308 311 c 2
 297 300 l 1
 297 60 l 1
 200 -37 l 1
 183 -20 l 2
 183 -20 181 -16 177 -10 c 0
 162 2 137 13 100 13 c 0
 84 13 71 9 60 3 c 2
 20 -37 l 1
 3 -20 l 1
 3 -20 9 -8 21 4 c 2
 78 60 l 2
 91 73 111 87 140 87 c 0
 143 87 145 87 148 87 c 2
 148 539 l 2
 145 538 143 538 140 538 c 0
 122 538 108 563 79 563 c 0
 75 563 72 562 68 561 c 2
 20 513 l 1xd780
501 637 m 1
 502 637 501 637 501 637 c 1
EndSplineSet
EndChar
StartChar: G
Encoding: 71 71 39
Width: 600
Flags: W
HStem: -37 74<247.621 389.982> 327 74<434.479 486> 455 21G<203 228> 513 74<414 461.717> 517 20G<340 377> 563 74<338.265 391.5>
VStem: 63 74<177.994 400.74> 228 24<71 463 531 567> 303 74<120 280 322 480> 483 74<128.728 321.232>
AnchorPoint: "blwmark" 320 0 basechar 0
AnchorPoint: "abvmark" 360 700 basechar 0
LayerCount: 2
Back
SplineSet
380 300 m 17
 380 300 418 364 460 364 c 3
 505 364 520 306 520 200 c 3
 520 75 415 0 320 0 c 3
 176 0 100 134 100 300 c 3
 100 480 240 600 240 600 c 1025
240 550 m 1
 240 100 l 1025
340 500 m 1
 340 100 l 1025
240 492 m 1
 240 492 316 600 364 600 c 3
 415 600 394 550 440 550 c 3
 478 550 500 600 501 600 c 1025
EndSplineSet
Fore
SplineSet
220 455 m 1xe3c0
 203 472 l 1
 203 472 213 486 228 504 c 1
 228 567 l 1
 188 515 137 429 137 320 c 0
 137 224 162 139 211 84 c 0
 216 79 222 75 228 71 c 1
 228 463 l 1
 220 455 l 1xe3c0
360 537 m 1xefc0
 377 520 l 1
 377 322 l 1
 429 374 l 2
 443 388 461 401 480 401 c 0
 492 401 502 397 510 389 c 2
 527 372 l 2
 549 350 557 298 557 220 c 0
 557 162 534 114 500 80 c 2
 443 24 l 1
 443 23 l 2
 404 -16 351 -37 300 -37 c 0
 243 -37 198 -16 163 19 c 2
 146 36 l 2
 92 90 63 179 63 280 c 0
 63 427 157 535 191 569 c 2
 248 625 l 1
 248 626 l 2
 256 634 260 637 260 637 c 2
 277 620 l 1
 251 594 l 2
 250 593 248 591 247 590 c 2
 252 590 l 1
 252 531 l 2
 254 533 256 536 258 538 c 2
 315 594 l 2
 338 617 363 637 384 637 c 0xefc0
 399 637 408 632 414 626 c 2
 431 609 l 2
 437 603 439 597 443 590 c 0
 447 588 453 587 460 587 c 0xf3c0
 465 587 470 588 473 589 c 2
 521 637 l 2xe7c0
 538 620 l 2
 537 618 528 601 515 588 c 2
 458 531 l 2
 448 521 436 513 420 513 c 0xf3c0
 408 513 400 517 395 522 c 2
 378 539 l 2
 372 545 369 552 365 559 c 0
 360 561 353 563 344 563 c 0
 331 563 317 556 302 545 c 1
 288 528 277 512 277 512 c 1
 252 487 l 1
 252 60 l 1
 245 60 l 1
 272 45 304 37 340 37 c 0
 378 37 418 48 452 71 c 1
 471 100 483 138 483 180 c 0
 483 248 477 296 461 322 c 0
 455 325 448 327 440 327 c 0
 432 327 425 326 418 322 c 0
 417 321 417 320 417 320 c 1
 377 280 l 1
 377 120 l 1
 320 63 l 1
 303 80 l 1
 303 480 l 1
 360 537 l 1xefc0
EndSplineSet
EndChar
StartChar: S
Encoding: 83 83 51
Width: 560
Flags: W
HStem: 13 74<104.774 264.894> 513 74<270.64 412.449> 542 20G<440 477> 617 20G<160 260 452 517>
VStem: 443 74<120 231>
AnchorPoint: "blwmark" 280 0 basechar 0
AnchorPoint: "abvmark" 280 700 basechar 0
LayerCount: 2
Back
SplineSet
440 525 m 25
 98 100 l 1049
370 179 m 1
 90 300 l 9
 120 375 l 1049
480 600 m 1
 480 600 411 550 360 550 c 3
 303 550 160 600 160 600 c 1
 80 500 l 1
 80 440 l 1
 480 260 l 1
 480 100 l 1
 400 0 l 1
 400 0 216 50 160 50 c 3
 102 50 40 0 40 0 c 1025
EndSplineSet
Fore
SplineSet
517 620 m 1xd8
 460 563 l 1
 460 563 391 513 340 513 c 0xd8
 292 513 181 549 149 560 c 1
 117 520 l 1
 117 469 l 1
 306 384 l 1
 403 505 l 1
 460 562 l 1xb8
 477 545 l 1
 336 370 l 1
 500 297 l 1
 517 280 l 1
 517 120 l 1
 437 20 l 1
 380 -37 l 1
 380 -37 196 13 140 13 c 0
 82 13 20 -37 20 -37 c 1
 3 -20 l 1
 60 37 l 1
 60 37 122 87 180 87 c 0
 228 87 372 49 410 39 c 1
 443 80 l 1
 443 231 l 1
 282 303 l 1
 258 273 l 1
 390 216 l 1
 407 199 l 1
 350 142 l 1
 204 206 l 1
 135 120 l 1
 78 63 l 1
 61 80 l 1
 173 219 l 1
 70 263 l 1
 53 280 l 1
 83 355 l 1
 109 381 l 1
 60 403 l 1
 43 420 l 1
 43 480 l 1
 123 580 l 1
 180 637 l 1
 180 637 323 587 380 587 c 0
 431 587 500 637 500 637 c 1
 517 620 l 1xd8
145 365 m 1
 130 328 l 1
 227 286 l 1
 252 317 l 1
 145 365 l 1
EndSplineSet
EndChar
StartChar: T
Encoding: 84 84 52
Width: 560
Flags: W
HStem: -37 74<214.742 328.782> 463 21G<43 80> 470 20G<208 232> 563 74<169.603 222.748>
VStem: 63 74<133.566 319.056> 208 24<62 438 475 490> 283 74<120 430>
AnchorPoint: "blwmark" 280 0 basechar 0
AnchorPoint: "abvmark" 320 700 basechar 0
LayerCount: 2
Back
SplineSet
220 450 m 1
 220 100 l 1049
320 450 m 1
 320 100 l 1049
200 450 m 1
 200 450 100 356 100 250 c 3
 100 84 171 0 280 0 c 3
 375 0 481 150 482 150 c 1049
80 500 m 17
 80 500 144 600 200 600 c 27
 264 600 278 500 342 500 c 19
 404 500 460 600 461 600 c 1033
EndSplineSet
Fore
SplineSet
60 463 m 1xde
 43 480 l 1
 43 480 63 512 91 540 c 2
 148 596 l 2
 170 618 196 637 220 637 c 0
 240 637 255 627 268 614 c 2
 285 597 l 2
 298 584 310 566 322 552 c 0
 333 543 346 537 362 537 c 0
 377 537 392 543 404 551 c 1
 416 567 423 579 424 580 c 2
 481 637 l 2
 498 620 l 2
 496 617 477 584 450 557 c 2
 393 501 l 2
 382 490 369 479 355 472 c 1
 357 470 l 1xbe
 357 120 l 1
 300 63 l 1
 283 80 l 1
 283 430 l 1
 317 463 l 1
 300 465 286 474 274 486 c 2
 257 503 l 2
 244 516 233 533 220 548 c 0
 209 557 196 563 180 563 c 0
 165 563 151 556 136 546 c 1
 125 532 117 520 117 520 c 1
 60 463 l 1xde
208 490 m 1
 232 490 l 1
 232 475 l 1
 237 470 l 1
 232 465 l 1
 232 60 l 1
 212 60 l 1
 237 44 267 37 300 37 c 0
 339 37 379 62 413 91 c 1
 432 113 444 129 445 130 c 2
 502 187 l 2
 519 170 l 1
 516 167 492 134 458 100 c 2
 402 43 l 2
 363 4 310 -37 260 -37 c 0
 214 -37 175 -22 145 8 c 2
 128 25 l 2
 87 66 63 134 63 230 c 0
 63 325 143 410 160 427 c 2
 208 475 l 1
 208 490 l 1
208 438 m 1
 178 402 137 338 137 270 c 0
 137 181 158 115 193 74 c 0
 198 70 203 65 208 62 c 1
 208 438 l 1
EndSplineSet
EndChar
StartChar: V
Encoding: 86 86 54
Width: 560
Flags: W
HStem: -37 21G<263 300> 113 73<172 208.825> 513 21G<3 40> 563 74<77.6875 128.282>
VStem: 148 24<186 539> 223 74<270 540> 363 74<474 526.113> 423 74<181 426.905>
AnchorPoint: "blwmark" 300 0 basechar 0
AnchorPoint: "abvmark" 360 700 basechar 0
LayerCount: 2
Back
SplineSet
40 550 m 1
 40 550 67 600 99 600 c 3
 128 600 142 575 160 575 c 3
 182 575 200 600 201 600 c 1025
160 550 m 1
 160 175 l 1025
260 250 m 1
 260 560 l 1
 300 600 l 1025
80 100 m 17
 80 100 110 150 140 150 c 3
 299 150 300 0 300 0 c 1
 460 160.799804688 l 1
 460 452 l 1
 460 452 400 455.200195312 400 500 c 3
 400 544 480 600 480 600 c 1025
EndSplineSet
Fore
SplineSet
60 63 m 1xfd
 43 80 l 1
 43 80 53 96 67 110 c 2
 123 167 l 2
 124 168 l 0
 131 175 140 181 148 184 c 1
 148 539 l 2
 145 538 143 538 140 538 c 0
 122 538 108 563 79 563 c 0
 75 563 72 562 68 561 c 2
 20 513 l 1
 3 530 l 1
 3 530 13 548 27 562 c 2
 83 618 l 2
 93 628 106 637 119 637 c 0
 148 637 162 612 180 612 c 0
 191 612 201 618 208 624 c 2
 220 636 l 2
 220 637 l 0
 221 637 l 2
 238 620 l 1
 236 618 l 2
 235 617 233 615 231 613 c 2
 231 612 l 2
 174 556 l 2
 173 555 173 555 172 554 c 2
 172 186 l 1
 221 184 253 167 275 145 c 2
 292 128 l 2
 317 103 328 72 333 50 c 1
 423 141 l 1
 423 418 l 1xfd
 413 421 401 425 392 434 c 2
 375 451 l 1
 374 452 l 0
 367 459 363 468 363 480 c 0
 363 501 382 525 401 544 c 2
 457 601 l 2
 458 601 l 2
 479 622 500 637 500 637 c 2
 517 620 l 1
 460 563 l 2
 460 563 457 561 451 556 c 0
 444 545 437 532 437 520 c 0xfe
 437 512 438 506 441 500 c 0
 458 490 480 489 480 489 c 1
 497 472 l 1
 497 181 l 1
 337 20 l 1
 280 -37 l 1
 263 -20 l 1
 263 -20 264 -16 263 -11 c 0
 261 6 255 46 227 79 c 1
 204 98 169 113 120 113 c 0
 116 113 112 112 107 110 c 2
 60 63 l 1xfd
240 213 m 1
 223 230 l 1
 223 540 l 1
 320 637 l 1
 337 620 l 1
 297 580 l 1
 297 270 l 1
 240 213 l 1
EndSplineSet
EndChar
StartChar: X
Encoding: 88 88 56
Width: 480
Flags: W
HStem: 523 21G<23 60 380 420> 617 20G<100 137 380 420>
AnchorPoint: "abvmark" 240 700 basechar 0
LayerCount: 2
Back
SplineSet
80 275 m 25
 80 275 125 325 160 325 c 27
 223 325 257 300 320 300 c 27
 355 300 400 350 400 350 c 1049
440 40 m 25
 400 0 l 17
 100 600 l 9
 60 560 l 1049
40 40 m 25
 80 0 l 17
 380 600 l 9
 420 560 l 1049
EndSplineSet
Fore
SplineSet
3 20 m 1
 60 77 l 1
 81 56 l 1
 194 282 l 1
 178 286 160 288 140 288 c 0
 117 288 89 266 73 251 c 2
 60 238 l 1
 43 255 l 1
 43 255 45 258 49 262 c 2
 106 318 l 2
 118 330 147 357 173 361 c 1
 75 558 l 1
 40 523 l 1
 23 540 l 1
 120 637 l 1
 137 620 l 1
 250 394 l 1
 343 580 l 1
 400 637 l 1
 457 580 l 1
 400 523 l 1
 379 544 l 1
 279 344 l 1
 297 340 317 337 340 337 c 0
 364 337 392 360 407 374 c 2
 420 387 l 1
 437 370 l 2
 437 370 435 368 431 364 c 2
 431 363 l 2
 374 307 l 2
 363 296 338 272 314 265 c 1
 425 42 l 1
 460 77 l 1
 477 60 l 1
 380 -37 l 1
 363 -20 l 1
 230 246 l 1
 117 20 l 1
 60 -37 l 1
 3 20 l 1
EndSplineSet
EndChar
StartChar: Z
Encoding: 90 90 58
Width: 560
Flags: W
HStem: 13 74<90.5 332.931> 263 74<316.042 388.216> 288 74<171.369 225.222> 513 74<193.01 407.209> 617 20G<80 212 452 517>
AnchorPoint: "blwmark" 240 0 basechar 0
AnchorPoint: "abvmark" 280 700 basechar 0
LayerCount: 2
Back
SplineSet
120 275 m 25
 120 275 165 325 200 325 c 27
 263 325 297 300 360 300 c 27
 395 300 440 350 440 350 c 1049
500 80 m 1
 420 0 l 1
 420 0 358 50 160 50 c 3
 102 50 40 0 40 0 c 1
 480 600 l 1
 480 600 411 550 360 550 c 3
 192 550 80 600 80 600 c 1025
EndSplineSet
Fore
SplineSet
520 117 m 1xd8
 537 100 l 1
 400 -37 l 1
 400 -37 338 13 140 13 c 0
 82 13 20 -37 20 -37 c 1
 3 -20 l 1
 226 284 l 1
 212 287 197 288 180 288 c 0
 157 288 129 266 113 251 c 2
 100 238 l 1
 83 255 l 1
 83 255 85 258 89 262 c 2
 146 318 l 2
 159 331 193 362 220 362 c 0xb8
 242 362 261 359 278 355 c 1
 408 533 l 1
 386 522 362 513 340 513 c 0
 172 513 60 563 60 563 c 1
 43 580 l 1
 100 637 l 1
 100 637 212 587 380 587 c 0
 431 587 500 637 500 637 c 1
 517 620 l 1
 315 345 l 1
 334 340 355 337 380 337 c 0
 404 337 432 360 447 374 c 2
 460 387 l 1
 477 370 l 2
 477 370 475 368 471 364 c 2
 471 363 l 2
 414 307 l 2
 401 294 367 263 340 263 c 0
 310 263 287 269 264 275 c 1
 113 70 l 1
 132 79 157 87 180 87 c 0
 378 87 440 37 440 37 c 1
 520 117 l 1xd8
EndSplineSet
EndChar
StartChar: bracketleft
Encoding: 91 91 59
Width: 240
Flags: W
HStem: -187 74<117 180> 663 74<117 180>
VStem: 43 74<-113 663>
LayerCount: 2
Back
SplineSet
200 700 m 25
 80 700 l 25
 80 -150 l 25
 200 -150 l 1033
EndSplineSet
Fore
SplineSet
237 720 m 1
 180 663 l 1
 117 663 l 1
 117 -113 l 1
 220 -113 l 1
 237 -130 l 1
 180 -187 l 1
 60 -187 l 1
 43 -170 l 1
 43 680 l 1
 100 737 l 1
 220 737 l 1
 237 720 l 1
EndSplineSet
EndChar
StartChar: backslash
Encoding: 92 92 60
Width: 400
Flags: W
HStem: -187 21G<323 360>
LayerCount: 2
Back
SplineSet
360 -150 m 25
 40 700 l 1049
EndSplineSet
Fore
SplineSet
340 -187 m 1
 323 -170 l 1
 3 680 l 1
 60 737 l 1
 77 720 l 1
 397 -130 l 1
 340 -187 l 1
EndSplineSet
EndChar
StartChar: bracketright
Encoding: 93 93 61
Width: 240
Flags: W
HStem: -187 74<60 123> 663 74<60 123>
VStem: 123 74<-113 663>
LayerCount: 2
Back
SplineSet
40 700 m 25
 160 700 l 25
 160 -150 l 25
 40 -150 l 1033
EndSplineSet
Fore
SplineSet
3 680 m 1
 60 737 l 1
 180 737 l 1
 197 720 l 1
 197 -130 l 1
 140 -187 l 1
 20 -187 l 1
 3 -170 l 1
 60 -113 l 1
 123 -113 l 1
 123 663 l 1
 20 663 l 1
 3 680 l 1
EndSplineSet
EndChar
StartChar: a
Encoding: 97 97 65
Width: 320
Flags: W
HStem: 417 20G<140 240> 417 20G<140 240>
VStem: 43 74<80 170> 203 74<40 46 80 188 263 342>
AnchorPoint: "blwmark" 160 0 basechar 0
AnchorPoint: "abvmark" 180 500 basechar 0
LayerCount: 2
Back
SplineSet
100 280 m 17
 80 340 l 1
 140 400 l 1
 240 375 l 1
 240 20 l 1
 260 0 l 1
 300 40 l 1049
240 100 m 25
 140 0 l 1
 80 60 l 1
 80 190 l 1
 140 250 l 1
 140 250 155 225 200 225 c 3
 195.995781714 225 240 225 240 225 c 1033
EndSplineSet
Fore
SplineSet
80 243 m 1xb0
 63 260 l 1
 43 320 l 1
 160 437 l 1
 260 412 l 1
 277 395 l 1
 277 245 l 1
 277 120 l 1
 277 40 l 2
 277 40 279 38 280 37 c 2
 320 77 l 1
 337 60 l 1
 240 -37 l 1
 203 0 l 1
 203 46 l 1
 120 -37 l 1
 43 40 l 1
 43 170 l 1
 160 287 l 1
 171 276 l 2
 178 271 188 265 203 263 c 1
 203 342 l 1
 120 363 l 1
 117 360 l 1
 137 300 l 1
 80 243 l 1xb0
203 188 m 1
 180 188 l 2
 149 188 132 201 125 208 c 2
 120 213 l 1
 117 210 l 1
 117 80 l 1
 160 37 l 1
 203 80 l 1
 203 188 l 1
EndSplineSet
Substitution2: "Stylistic alternates-1" ascript
EndChar
StartChar: b
Encoding: 98 98 66
Width: 320
Flags: W
HStem: 417 20G<160 200> 417 20G<160 200>
VStem: 43 74<65.1574 340 374 590> 203 74<100 334.843>
AnchorPoint: "blwmark" 160 0 basechar 0
AnchorPoint: "abvmark" 160 700 basechar 0
LayerCount: 2
Back
SplineSet
65 625 m 25
 95 595 l 1049
80 610 m 9
 80 80 l 25
 160 0 l 25
 240 80 l 25
 240 320 l 25
 160 400 l 1
 80 320 l 1049
EndSplineSet
Fore
SplineSet
117 340 m 1x30
 117 100 l 2
 117 66 162 55 180 37 c 1
 203 60 l 1
 203 300 l 2
 203 334 158 345 140 363 c 1
 117 340 l 1x30
117 374 m 1
 180 437 l 1xb0
 277 340 l 1
 277 100 l 1
 140 -37 l 1
 43 60 l 1
 43 590 l 1
 28 605 l 1
 85 662 l 1
 100 647 l 1
 117 630 l 1
 132 615 l 1
 117 600 l 1
 117 374 l 1
EndSplineSet
EndChar
StartChar: h
Encoding: 104 104 72
Width: 320
Flags: W
HStem: 417 20G<180 220> 417 20G<180 220>
VStem: 43 74<35 320 354 590> 203 74<35 348.522>
AnchorPoint: "blwmark" 160 0 basechar 0
AnchorPoint: "abvmark" 160 700 basechar 0
LayerCount: 2
Back
SplineSet
225 30 m 25
 255 0 l 1049
65 30 m 25
 95 0 l 1049
65 625 m 25
 95 595 l 1049
80 610 m 9
 80 15 l 1049
240 15 m 25
 240 340 l 25
 180 400 l 1
 80 300 l 1049
EndSplineSet
Fore
SplineSet
28 605 m 1xb0
 85 662 l 1
 100 647 l 1
 117 630 l 1
 132 615 l 1
 117 600 l 1
 117 354 l 1
 200 437 l 1
 277 360 l 1
 277 35 l 1
 292 20 l 1
 235 -37 l 1
 220 -22 l 1
 203 -5 l 1
 188 10 l 1
 203 25 l 1
 203 320 l 2
 203 343 172 351 160 363 c 1
 117 320 l 1
 117 35 l 1
 132 20 l 1
 75 -37 l 1
 60 -22 l 1
 52 -13 l 1
 28 10 l 1
 43 25 l 1
 43 280 l 1
 43 590 l 1
 28 605 l 1xb0
EndSplineSet
Substitution2: "Stylistic alternates-1" h.alt
EndChar
StartChar: i
Encoding: 105 105 73
Width: 160
Flags: W
HStem: 417 20G<65 100> 417 20G<65 100> 533 21G<48 85>
VStem: 43 74<39 361>
AnchorPoint: "blwmark" 80 0 basechar 0
LayerCount: 2
Back
SplineSet
85 630 m 25
 115 600 l 25
 85 570 l 1049
65 30 m 25
 95 0 l 25
 125 30 l 1049
95 370 m 25
 65 400 l 25
 35 370 l 1049
80 385 m 9
 80 15 l 1025
EndSplineSet
Fore
SplineSet
48 610 m 1x30
 105 667 l 1
 152 620 l 1
 65 533 l 1
 48 550 l 1
 78 580 l 1
 48 610 l 1x30
117 405 m 1
 132 390 l 1
 117 375 l 1
 117 39 l 1
 145 67 l 1
 162 50 l 1
 75 -37 l 1
 60 -22 l 1
 43 -5 l 1
 28 10 l 1
 43 25 l 1
 43 361 l 1
 15 333 l 1
 -2 350 l 1
 85 437 l 1xb0
 100 422 l 1
 117 405 l 1
EndSplineSet
Substitution2: "Dotless forms-1" dotlessi
EndChar
StartChar: k
Encoding: 107 107 75
Width: 320
Flags: W
HStem: 437 20G<225 260> 637 20G<65 100>
VStem: 43 74<40 216 253 585> 203 74<40 179 370 385>
AnchorPoint: "blwmark" 160 0 basechar 0
AnchorPoint: "abvmark" 160 700 basechar 0
LayerCount: 2
Back
SplineSet
225 420 m 25
 255 390 l 1049
65 620 m 25
 95 590 l 1049
65 620 m 25
 95 590 l 1049
80 200 m 1
 240 350 l 9
 240 405 l 1049
160 275 m 1
 240 200 l 1
 240 20 l 1025
225 35 m 25
 255 5 l 1049
65 35 m 25
 95 5 l 1049
65 620 m 25
 95 590 l 1049
80 605 m 9
 80 20 l 1049
EndSplineSet
Fore
SplineSet
188 400 m 1
 245 457 l 1
 260 442 l 1
 277 425 l 1
 292 410 l 1
 277 395 l 1
 277 370 l 1
 220 313 l 1
 199 294 l 1
 260 237 l 1
 277 220 l 1
 277 40 l 1
 292 25 l 1
 235 -32 l 1
 220 -17 l 1
 203 0 l 1
 188 15 l 1
 203 30 l 1
 203 179 l 1
 140 238 l 1
 117 216 l 1
 117 40 l 1
 132 25 l 1
 75 -32 l 1
 60 -17 l 1
 43 0 l 1
 28 15 l 1
 43 30 l 1
 43 180 l 1
 43 585 l 1
 28 600 l 1
 85 657 l 1
 100 642 l 1
 117 625 l 1
 132 610 l 1
 117 595 l 1
 117 253 l 1
 180 312 l 1
 203 334 l 1
 203 385 l 1
 188 400 l 1
EndSplineSet
EndChar
StartChar: l
Encoding: 108 108 76
Width: 160
Flags: W
HStem: 637 20G<65 100>
VStem: 43 74<39 585>
AnchorPoint: "blwmark" 80 0 basechar 0
AnchorPoint: "abvmark" 80 700 basechar 0
LayerCount: 2
Back
SplineSet
65 30 m 25
 95 0 l 25
 125 30 l 1049
65 620 m 25
 95 590 l 1049
80 605 m 9
 80 15 l 1049
EndSplineSet
Fore
SplineSet
28 600 m 1
 85 657 l 1
 100 642 l 1
 117 625 l 1
 132 610 l 1
 117 595 l 1
 117 39 l 1
 145 67 l 1
 162 50 l 1
 75 -37 l 1
 60 -22 l 1
 43 -5 l 1
 28 10 l 1
 43 25 l 1
 43 585 l 1
 28 600 l 1
EndSplineSet
EndChar
StartChar: r
Encoding: 114 114 82
Width: 240
Flags: W
HStem: 417 20G<65 100 160 200> 417 20G<65 100 160 200>
VStem: 43 74<35 340>
AnchorPoint: "blwmark" 120 0 basechar 0
AnchorPoint: "abvmark" 120 500 basechar 0
LayerCount: 2
Back
SplineSet
200 360 m 25
 160 400 l 25
 80 320 l 1049
65 30 m 25
 95 0 l 1049
65 400 m 25
 95 370 l 1049
80 385 m 9
 80 15 l 1025
EndSplineSet
Fore
SplineSet
28 380 m 1xa0
 85 437 l 1
 100 422 l 1
 117 405 l 1
 132 390 l 1
 117 375 l 1
 117 374 l 1
 180 437 l 1
 237 380 l 1
 180 323 l 1
 140 363 l 1
 117 340 l 1
 117 35 l 1
 132 20 l 1
 75 -37 l 1
 60 -22 l 1
 43 -5 l 1
 28 10 l 1
 43 25 l 1
 43 300 l 1
 43 365 l 1
 28 380 l 1xa0
EndSplineSet
EndChar
StartChar: t
Encoding: 116 116 84
Width: 259
Flags: W
HStem: 363 74<60 63 137 180> 567 20G<100 137>
VStem: 63 74<37.972 363 437 530>
AnchorPoint: "blwmark" 140 0 basechar 0
AnchorPoint: "abvmark" 120 650 basechar 0
LayerCount: 2
Back
SplineSet
40 400 m 25
 200 400 l 1049
100 550 m 1
 100 40 l 1
 140 0 l 1
 220 80 l 1025
EndSplineSet
Fore
SplineSet
120 587 m 1
 137 570 l 1
 137 437 l 1
 220 437 l 1
 237 420 l 1
 180 363 l 1
 137 363 l 1
 137 60 l 2
 137 49 153 44 160 37 c 1
 240 117 l 1
 257 100 l 1
 120 -37 l 1
 63 20 l 1
 63 363 l 1
 20 363 l 1
 3 380 l 1
 60 437 l 1
 63 437 l 1
 63 530 l 1
 120 587 l 1
EndSplineSet
EndChar
StartChar: v
Encoding: 118 118 86
Width: 320
Flags: W
HStem: 417 20G<65 100> 437 130G<65 100 260 281>
VStem: 43 74<65.1574 365> 163 74<424.02 504.707> 203 74<100 390.117>
AnchorPoint: "blwmark" 160 0 basechar 0
LayerCount: 2
Back
SplineSet
95 370 m 25
 65 400 l 1049
80 385 m 25
 80 80 l 1
 160 0 l 25
 240 80 l 1
 240 380 l 17
 250 361 200 423 200 472 c 8
 200 509.5 243.5 550 244 550 c 1033
EndSplineSet
Fore
SplineSet
117 405 m 1xa8
 132 390 l 1
 117 375 l 1
 117 100 l 2
 117 66 162 55 180 37 c 1
 203 60 l 1
 203 357 l 1
 203 358 l 2xa8
 195 366 163 413 163 452 c 0xb0
 163 483 192 515 203 526 c 2xa8
 260 583 l 2
 264 587 l 2
 281 570 l 1
 271 560 l 2
 259 546 237 519 237 492 c 0xb0
 237 462 256 427 268 409 c 1
 277 400 l 2
 278 398 278 396 278 396 c 0
 277 395 278 396 277 395 c 2
 277 100 l 1
 140 -37 l 1
 43 60 l 1
 43 365 l 1
 28 380 l 1
 85 437 l 1
 100 422 l 1
 117 405 l 1xa8
EndSplineSet
Substitution2: "Dotless forms-1" v.alt
EndChar
StartChar: braceleft
Encoding: 123 123 91
Width: 240
Flags: W
HStem: -187 21G<148 200>
VStem: 83 74<-74 174 350 600>
LayerCount: 2
Back
SplineSet
200 700 m 25
 120 620 l 1
 120 330 l 25
 40 250 l 25
 120 200 l 25
 120 -100 l 1
 200 -150 l 1049
EndSplineSet
Fore
SplineSet
220 737 m 1
 237 720 l 1
 157 640 l 1
 157 350 l 1
 81 274 l 1
 140 237 l 1
 157 220 l 1
 157 -74 l 1
 220 -113 l 1
 237 -130 l 1
 180 -187 l 1
 100 -137 l 1
 83 -120 l 1
 83 174 l 1
 20 213 l 1
 3 230 l 1
 83 310 l 1
 83 600 l 1
 220 737 l 1
EndSplineSet
EndChar
StartChar: exclamdown
Encoding: 161 161 200
Width: 240
Flags: W
HStem: 417 20G<105 145> 417 20G<105 145>
VStem: 75 90<-139.974 133.86> 83 74<-13.9875 185>
LayerCount: 2
Back
SplineSet
135 370 m 25
 105 400 l 1049
140 -160 m 1
 140 -160 129 -124 128 -100 c 24
 122 19 120 205 120 205 c 1
 120 205 118 19 112 -100 c 24
 110.5 -139 100 -200 100 -200 c 9
 140 -160 l 1
EndSplineSet
Fore
SplineSet
177 -140 m 1x20
 80 -237 l 1
 63 -220 l 1
 63 -220 73 -159 75 -120 c 0x20
 81 -1 83 185 83 185 c 1
 140 242 l 1
 157 225 l 1x10
 157 225 159 39 165 -80 c 0
 166 -104 177 -140 177 -140 c 1x20
172 390 m 1
 115 333 l 1
 68 380 l 1
 125 437 l 1x80
 172 390 l 1
EndSplineSet
EndChar
StartChar: cent
Encoding: 162 162 202
Width: 360
Flags: W
HStem: -187 21G<163 200> 617 20G<200 237>
VStem: 43 74<123 260> 163 74<-130 -23 84 326 425 580>
LayerCount: 2
Back
SplineSet
200 600 m 25
 200 -150 l 1049
320 320 m 9
 200 400 l 25
 80 280 l 25
 80 100 l 25
 200 0 l 25
 320 100 l 1041
EndSplineSet
Fore
SplineSet
357 340 m 1
 300 283 l 1
 237 326 l 1
 237 51 l 1
 340 137 l 1
 357 120 l 1
 300 63 l 1
 237 10 l 1
 237 -130 l 1
 180 -187 l 1
 163 -170 l 1
 163 -23 l 1
 60 63 l 1
 43 80 l 1
 43 260 l 1
 163 380 l 1
 163 580 l 1
 220 637 l 1
 237 620 l 1
 237 425 l 1
 340 357 l 1
 357 340 l 1
163 346 m 1
 146 329 121 304 117 300 c 2
 117 123 l 1
 163 84 l 1
 163 346 l 1
EndSplineSet
EndChar
StartChar: sterling
Encoding: 163 163 203
Width: 440
Flags: W
HStem: 13 73<163 249.427> 263 74<197.936 282> 538 74<256.372 305.5> 563 74<200.375 248.563>
VStem: 123 74<120 270 350.508 559.591>
LayerCount: 2
Back
SplineSet
321 600 m 1
 320 600 302 575 280 575 c 3
 262 575 248 600 219 600 c 3
 187 600 160 550 160 550 c 1
 160 100 l 1025
400 80.7998046875 m 1
 320 0 l 17
 320 0 279 50 120 50 c 3
 65 50 40 0 40 0 c 1033
80 275 m 17
 80 275 112 325 140 325 c 27
 187 325 213 300 260 300 c 27
 288 300 320 350 320 350 c 1033
EndSplineSet
Fore
SplineSet
60 238 m 1xd8
 43 255 l 1
 43 255 53 271 67 285 c 2
 123 341 l 1
 123 530 l 2
 123 530 132 546 146 561 c 2
 147 562 l 2
 203 618 l 2
 213 628 226 637 239 637 c 0xd8
 268 637 282 612 300 612 c 0xe8
 311 612 320 618 328 624 c 2
 340 636 l 2
 341 637 l 2xd8
 358 620 l 1
 356 618 l 2
 354 616 353 614 351 612 c 2
 294 556 l 2
 287 549 274 538 260 538 c 0xe8
 242 538 228 563 199 563 c 0
 197 563 l 2
 197 357 l 1
 224 350 247 337 280 337 c 0
 284 337 289 338 293 340 c 2
 340 387 l 1
 357 370 l 1
 357 370 347 354 333 340 c 2
 276 284 l 2
 265 273 252 263 240 263 c 0
 224 263 210 266 197 270 c 1
 197 120 l 1
 163 86 l 1
 287 82 330 46 338 38 c 2
 340 37 l 1
 363 61 l 1
 420 118 l 1
 437 101 l 1
 357 20 l 1
 300 -37 l 1
 297 -34 l 2
 285 -23 235 13 100 13 c 0
 84 13 70 8 60 3 c 2
 20 -37 l 1
 3 -20 l 2
 3 -20 8 -9 20 3 c 2
 21 4 l 2
 78 60 l 2
 88 70 103 81 123 85 c 1
 123 288 l 2
 122 288 121 288 120 288 c 0
 116 288 112 287 107 285 c 2
 60 238 l 1xd8
EndSplineSet
EndChar
StartChar: yen
Encoding: 165 165 204
Width: 520
Flags: W
HStem: -187 74<91.1364 257.688> -12 74<158 340.499> 513 21G<3 40> 563 74<77 122.081>
VStem: 123 74<295 559.107> 343 74<-100 -31.4461 45 216 250 560>
LayerCount: 2
Back
SplineSet
40 550 m 1
 40 550 67 600 99 600 c 3
 128 600 160 575 160 575 c 1
 160 275 l 1025
80 200 m 17
 80 200 110 250 140 250 c 3
 248 250 260 150 260 150 c 1
 380 270 l 1025
40 -200 m 17
 40 -200 53 -150 200 -150 c 3
 295 -150 300 -200 300 -200 c 9
 380 -120 l 1
 380 580 l 1025
360 600 m 25
 400 560 l 1049
120 -25 m 17
 120 -25 152 25 180 25 c 27
 274 25 326 0 420 0 c 27
 448 0 480 50 480 50 c 1033
EndSplineSet
Fore
SplineSet
100 -62 m 1
 83 -45 l 1
 83 -45 93 -29 107 -15 c 2
 164 41 l 2
 164 42 l 0
 175 53 188 62 200 62 c 0
 257 62 298 52 343 45 c 1
 343 216 l 1
 240 113 l 1
 223 130 l 2
 223 130 219 161 197 189 c 1
 180 203 155 213 120 213 c 0
 116 213 112 212 107 210 c 2
 60 163 l 1
 43 180 l 1
 43 180 53 196 67 210 c 2
 123 267 l 1
 123 549 l 1
 111 556 95 563 79 563 c 0
 75 563 72 562 68 561 c 2
 20 513 l 1
 3 530 l 1
 3 530 13 548 27 562 c 2
 83 618 l 2
 93 628 106 637 119 637 c 0
 148 637 180 612 180 612 c 1
 197 595 l 1
 197 295 l 1
 186 285 l 1
 213 280 232 268 246 254 c 2
 263 237 l 2
 276 224 284 208 289 196 c 1
 343 250 l 1
 343 560 l 1
 323 580 l 1
 380 637 l 1
 400 617 l 1
 417 600 l 1
 437 580 l 1
 417 560 l 1
 417 290 l 1
 417 37 l 1
 424 37 432 37 440 37 c 0
 444 37 449 38 453 40 c 2
 500 87 l 1
 517 70 l 1
 517 70 507 54 493 40 c 2
 436 -16 l 2
 430 -22 424 -28 417 -32 c 1
 417 -100 l 1
 280 -237 l 1
 263 -220 l 2
 263 -220 262 -213 257 -205 c 0
 243 -196 219 -187 180 -187 c 0
 107 -187 67 -199 45 -212 c 1
 20 -237 l 1
 3 -220 l 1
 3 -220 4 -214 12 -207 c 2
 69 -150 l 2
 84 -135 122 -113 220 -113 c 0
 269 -113 293 -126 306 -139 c 2
 323 -156 l 2
 324 -156 l 2
 325 -157 325 -158 325 -158 c 2
 343 -140 l 1
 343 -34 l 1
 281 -27 233 -12 160 -12 c 0
 156 -12 152 -13 147 -15 c 2
 100 -62 l 1
EndSplineSet
EndChar
StartChar: dieresis
Encoding: 168 168 101
Width: 320
Flags: W
HStem: 528 104
VStem: 28 264
LayerCount: 2
Back
SplineSet
225 595 m 25
 255 565 l 1049
65 595 m 25
 95 565 l 1049
EndSplineSet
Fore
SplineSet
28 575 m 1
 85 632 l 1
 132 585 l 1
 75 528 l 1
 28 575 l 1
188 575 m 1
 245 632 l 1
 292 585 l 1
 235 528 l 1
 188 575 l 1
EndSplineSet
EndChar
StartChar: copyright
Encoding: 169 169 221
Width: 560
Flags: W
HStem: -27 54<202.621 377.147> 108 54<266.59 328.418> 472 20G<257 275> 573 54<182.853 357.379>
VStem: 13 54<184.47 437.47> 144 54<215.105 374.215> 240 16<186 387 431 440> 276 54<206 394> 493 54<162.53 415.53>
LayerCount: 2
Back
SplineSet
248 406 m 1
 248 406 290 465 316 465 c 3
 344 465 332 438 358 438 c 3
 379 438 390 465 391 465 c 1025
248 465 m 1
 248 465 171 399 171 300 c 3
 171 208 214 135 293 135 c 3
 345 135 402 218 403 218 c 1025
303 410 m 1
 303 190 l 1025
248 438 m 1
 248 190 l 1025
40 350 m 0
 40 475 140 600 240 600 c 0
 440 600 520 500 520 250 c 0
 520 125 420 0 320 0 c 0
 120 0 40 100 40 350 c 0
EndSplineSet
Fore
SplineSet
13 334 m 0
 13 407 47 480 95 528 c 2
 138 571 l 2
 172 605 214 627 256 627 c 0
 346 627 411 607 456 562 c 2
 468 550 l 2
 523 495 547 403 547 266 c 0
 547 193 513 120 465 72 c 2
 422 29 l 2
 388 -5 346 -27 304 -27 c 0
 214 -27 149 -7 104 38 c 2
 92 50 l 2
 37 105 13 197 13 334 c 0
67 366 m 0
 67 233 90 143 141 87 c 1
 185 46 250 27 336 27 c 0
 369 27 401 41 431 64 c 1
 468 110 493 172 493 234 c 0
 493 367 470 457 419 513 c 1
 375 554 310 573 224 573 c 0
 191 573 159 559 129 536 c 1
 92 490 67 428 67 366 c 0
275 481 m 1
 261 466 l 2
 259 464 258 463 256 461 c 2
 256 431 l 1
 293 468 l 2
 294 469 l 0
 307 482 321 492 332 492 c 0
 340 492 345 489 348 486 c 2
 359 475 l 2
 362 472 363 469 365 466 c 0
 367 465 371 465 374 465 c 0
 376 465 379 466 381 466 c 2
 406 492 l 2
 407 492 l 1
 418 481 l 2
 417 479 413 470 406 463 c 2
 363 421 l 2
 358 416 351 411 342 411 c 0
 336 411 333 413 330 415 c 2
 330 206 l 1
 288 164 l 1
 295 163 302 162 309 162 c 0
 327 162 346 172 362 185 c 0
 370 195 375 201 376 202 c 2
 418 245 l 2
 419 245 l 2
 430 234 l 1
 427 231 414 212 395 193 c 2
 352 150 l 2
 331 129 303 108 277 108 c 0
 246 108 221 119 201 139 c 2
 190 150 l 2
 160 180 144 228 144 284 c 0
 144 365 195 424 214 443 c 2
 257 486 l 2
 261 490 264 492 264 492 c 1
 275 481 l 1
232 379 m 1
 221 390 l 1
 221 390 229 401 240 414 c 1
 240 440 l 1
 220 411 198 369 198 316 c 0
 198 264 212 217 238 187 c 0
 239 186 239 187 240 186 c 2
 240 387 l 1
 232 379 l 1
287 164 m 1
 276 174 l 1
 276 394 l 1
 313 432 l 2
 312 434 312 435 311 437 c 0
 309 438 304 438 300 438 c 0
 295 438 289 436 282 431 c 0
 278 426 275 422 275 422 c 1
 256 403 l 1
 256 175 l 1
 265 170 276 166 287 164 c 1
EndSplineSet
EndChar
StartChar: ordfeminine
Encoding: 170 170 210
Width: 320
Flags: W
HStem: 163 74<60 260> 543 21G<63 100> 567 20G<140 171>
VStem: 43 74<380 470> 203 74<340 346 380 488 563 642>
LayerCount: 2
Back
SplineSet
40 200 m 25
 280 200 l 1049
100 580 m 17
 80 640 l 1
 140 700 l 1
 240 675 l 1
 240 320 l 1
 260 300 l 1
 300 340 l 1049
240 400 m 25
 140 300 l 1
 80 360 l 1
 80 490 l 1
 140 550 l 1
 140 550 155 525 200 525 c 3
 195.99609375 525 240 525 240 525 c 1033
EndSplineSet
Fore
SplineSet
80 543 m 1
 63 560 l 1
 43 620 l 1
 160 737 l 1
 260 712 l 1
 277 695 l 1
 277 545 l 1
 277 420 l 1
 277 340 l 2
 277 340 279 338 280 337 c 2
 320 377 l 1
 337 360 l 1
 240 263 l 1
 203 300 l 1
 203 346 l 1
 120 263 l 1
 43 340 l 1
 43 470 l 1
 160 587 l 1
 171 576 l 2
 178 571 188 565 203 563 c 1
 203 642 l 1
 120 663 l 1
 117 660 l 1
 137 600 l 1
 80 543 l 1
3 180 m 1
 60 237 l 1
 300 237 l 1
 317 220 l 1
 260 163 l 1
 20 163 l 1
 3 180 l 1
203 488 m 1
 180 488 l 2
 149 488 132 501 125 508 c 2
 120 513 l 1
 117 510 l 1
 117 380 l 1
 160 337 l 1
 203 380 l 1
 203 488 l 1
EndSplineSet
EndChar
StartChar: guillemotleft
Encoding: 171 171 215
Width: 440
Flags: W
LayerCount: 2
Back
SplineSet
380 325 m 17
 380 325 363 295 340 275 c 0
 264 207 240 200 240 200 c 1
 240 200 291 174 360 100 c 0
 377 82 400 50 400 50 c 1033
180 325 m 17
 180 325 163 295 140 275 c 0
 64 207 40 200 40 200 c 1
 40 200 91 174 160 100 c 0
 177 82 200 50 200 50 c 1033
EndSplineSet
Fore
SplineSet
200 362 m 1
 217 345 l 1
 217 345 203 321 184 302 c 2
 128 245 l 1
 127 245 l 2
 126 244 127 244 126 243 c 0
 124 241 122 240 120 238 c 0
 110 229 100 221 93 215 c 1
 111 202 135 183 162 156 c 2
 178 139 l 2
 184 133 191 127 197 120 c 0
 214 102 237 70 237 70 c 1
 180 13 l 1
 163 30 l 1
 163 30 140 62 123 80 c 0
 120 84 116 88 113 91 c 0
 58 144 20 163 20 163 c 1
 3 180 l 1
 60 237 l 2
 60 237 77 241 131 287 c 0
 138 296 143 305 143 305 c 1
 200 362 l 1
400 362 m 1
 417 345 l 1
 417 345 403 321 384 302 c 2
 328 245 l 1
 327 245 l 2
 326 244 327 244 326 243 c 0
 324 241 322 240 320 238 c 0
 310 229 300 221 293 215 c 1
 311 202 335 183 362 156 c 2
 378 139 l 2
 384 133 391 127 397 120 c 0
 414 102 437 70 437 70 c 1
 380 13 l 1
 363 30 l 1
 363 30 340 62 323 80 c 0
 320 84 316 88 313 91 c 0
 258 144 220 163 220 163 c 1
 203 180 l 1
 260 237 l 2
 260 237 277 241 331 287 c 0
 338 296 343 305 343 305 c 1
 400 362 l 1
EndSplineSet
EndChar
StartChar: registered
Encoding: 174 174 222
Width: 560
Flags: W
HStem: -27 54<202.621 377.147> 135 54<172.438 212.713> 438 54<169.75 208.494> 573 54<182.853 357.379>
VStem: 13 54<184.47 437.47> 213 16<189 426> 249 54<181 422> 347 54<178 298> 493 54<162.53 415.53>
LayerCount: 2
Back
SplineSet
353 341 m 1
 374 314 l 1
 374 162 l 1
 397 135 l 9
 418 162 l 1049
330 314 m 1
 397 396 l 1
 298 465 l 1
 276 438 l 1
 276 162 l 1
 254 135 l 1
 254 135 241 162 198 162 c 3
 168 162 154 135 154 135 c 1033
221 438 m 1
 221 176 l 1025
154 438 m 1
 154 438 169 465 187 465 c 3
 203 465 211 451 221 451 c 3
 233 451 242 465 243 465 c 1025
40 350 m 0
 40 475 140 600 240 600 c 0
 440 600 520 500 520 250 c 0
 520 125 420 0 320 0 c 0
 120 0 40 100 40 350 c 0
EndSplineSet
Fore
SplineSet
13 334 m 0
 13 407 47 480 95 528 c 2
 138 571 l 2
 172 605 214 627 256 627 c 0
 346 627 411 607 456 562 c 2
 468 550 l 2
 523 495 547 403 547 266 c 0
 547 193 513 120 465 72 c 2
 422 29 l 2
 388 -5 346 -27 304 -27 c 0
 214 -27 149 -7 104 38 c 2
 92 50 l 2
 37 105 13 197 13 334 c 0
67 366 m 0
 67 233 90 143 141 87 c 1
 185 46 250 27 336 27 c 0
 369 27 401 41 431 64 c 1
 468 110 493 172 493 234 c 0
 493 367 470 457 419 513 c 1
 375 554 310 573 224 573 c 0
 191 573 159 559 129 536 c 1
 92 490 67 428 67 366 c 0
138 411 m 1
 127 422 l 1
 127 422 132 431 140 439 c 2
 182 481 l 2
 188 487 195 492 203 492 c 0
 219 492 227 478 237 478 c 0
 242 478 247 481 250 483 c 2
 258 491 l 2
 258 492 l 0
 259 492 l 2
 270 481 l 1
 268 479 l 2
 268 479 266 477 265 476 c 2
 265 475 l 2
 229 439 l 1
 229 188 l 1
 237 187 244 184 249 181 c 1
 249 422 l 1
 271 449 l 1
 314 492 l 1
 413 423 l 1
 424 412 l 1
 379 357 l 1
 380 357 l 1
 401 330 l 1
 401 178 l 1
 411 166 l 1
 434 189 l 1
 445 178 l 1
 424 151 l 1
 381 108 l 1
 370 119 l 1
 347 146 l 1
 347 298 l 1
 338 310 l 1
 314 287 l 1
 303 298 l 1
 368 378 l 1
 303 424 l 1
 303 178 l 1
 281 151 l 1
 238 108 l 1
 227 119 l 1
 227 119 226 121 225 123 c 0
 216 129 202 135 182 135 c 0
 173 135 164 132 159 129 c 2
 138 108 l 1
 127 119 l 2
 127 119 130 125 136 131 c 2
 137 132 l 2
 179 174 l 2
 186 181 197 189 213 189 c 1
 213 426 l 2
 211 425 208 424 205 424 c 0
 195 424 187 438 171 438 c 0
 168 438 167 438 164 437 c 2
 138 411 l 1
EndSplineSet
EndChar
StartChar: plusminus
Encoding: 177 177 213
Width: 480
Flags: W
HStem: -12 74<100 380> 338 74<100 203 277 380> 592 20G<240 277>
VStem: 203 74<195 338 412 555>
LayerCount: 2
Back
SplineSet
80 25 m 25
 400 25 l 1049
240 575 m 25
 240 175 l 1049
80 375 m 25
 400 375 l 1049
EndSplineSet
Fore
SplineSet
43 355 m 1
 100 412 l 1
 203 412 l 1
 203 555 l 1
 260 612 l 1
 277 595 l 1
 277 412 l 1
 420 412 l 1
 437 395 l 1
 380 338 l 1
 277 338 l 1
 277 195 l 1
 220 138 l 1
 203 155 l 1
 203 338 l 1
 60 338 l 1
 43 355 l 1
43 5 m 1
 100 62 l 1
 420 62 l 1
 437 45 l 1
 380 -12 l 1
 60 -12 l 1
 43 5 l 1
EndSplineSet
EndChar
StartChar: acute
Encoding: 180 180 99
Width: 320
Flags: W
HStem: 488 249
VStem: 183 74<637.523 680>
LayerCount: 2
Back
SplineSet
220 700 m 17
 220 600 120 525 120 525 c 1049
EndSplineSet
Fore
SplineSet
240 737 m 1
 257 720 l 1
 257 653 213 598 183 568 c 2
 126 512 l 2
 126 511 l 2
 111 496 100 488 100 488 c 2
 83 505 l 1
 133 555 l 1
 157 585 183 630 183 680 c 1
 240 737 l 1
EndSplineSet
EndChar
StartChar: micro
Encoding: 181 181 209
Width: 320
Flags: W
HStem: -187 21G<43 80> 417 20G<65 100 225 260> 417 20G<65 100 225 260>
VStem: 43 74<-130 -18 62 365> 203 74<60 365>
LayerCount: 2
Back
SplineSet
80 385 m 1
 80 -150 l 1025
95 370 m 9
 65 400 l 1041
300 40 m 9
 260 0 l 1
 240 20 l 17
 240 385 l 1025
255 370 m 9
 225 400 l 1041
40 0 m 1
 40 0 48 25 100 25 c 3
 149 25 160 0 160 0 c 9
 240 80 l 1025
EndSplineSet
Fore
SplineSet
20 -37 m 1xd8
 3 -20 l 1
 3 -20 4 -16 9 -11 c 2
 43 23 l 1
 43 365 l 1
 28 380 l 1
 85 437 l 1
 100 422 l 1
 117 405 l 1
 132 390 l 1
 117 375 l 1
 117 62 l 2
 118 62 119 62 120 62 c 0
 151 62 167 51 174 44 c 2
 181 38 l 1
 203 60 l 1
 203 365 l 1
 188 380 l 1
 245 437 l 1
 260 422 l 1
 277 405 l 1
 292 390 l 1
 277 375 l 1
 277 100 l 1
 277 40 l 1
 280 37 l 1
 320 77 l 1
 337 60 l 1
 240 -37 l 1
 203 0 l 1
 203 26 l 1
 140 -37 l 1
 126 -23 l 2
 123 -21 121 -19 117 -18 c 2
 117 -130 l 1
 60 -187 l 1
 43 -170 l 1
 43 -18 l 2
 40 -19 38 -20 36 -21 c 2
 20 -37 l 1xd8
EndSplineSet
EndChar
StartChar: paragraph
Encoding: 182 182 226
Width: 480
Flags: W
HStem: 63 74<155.624 207.665> 563 74<173.55 248.282>
VStem: 43 74<188.536 479.268> 268 24<-114.952 147 179 539> 343 74<-55 540>
LayerCount: 2
Back
SplineSet
240 150 m 17
 240 150 232 100 180 100 c 3
 112 100 80 178 80 350 c 3
 80 469 113 600 219 600 c 3
 248 600 262 575 280 575 c 3
 302 575 320 600 321 600 c 1025
280 550 m 1
 280 -125 l 1025
420 600 m 1
 380 560 l 1
 380 -75 l 1025
440 -200 m 1
 440 -200 338 -150 260 -150 c 3
 205 -150 180 -200 180 -200 c 1025
EndSplineSet
Fore
SplineSet
477 -180 m 1
 420 -237 l 1
 420 -237 318 -187 240 -187 c 0
 224 -187 210 -192 200 -197 c 2
 160 -237 l 1
 143 -220 l 2
 143 -220 148 -209 160 -197 c 2
 161 -196 l 2
 218 -140 l 2
 229 -129 245 -117 268 -114 c 1
 268 147 l 2
 266 143 263 140 259 136 c 2
 202 79 l 2
 193 70 180 63 160 63 c 0
 140 63 124 70 110 84 c 2
 93 101 l 2
 92 101 l 2
 59 135 43 209 43 330 c 0
 43 413 59 503 105 549 c 2
 162 605 l 2
 182 625 207 637 239 637 c 0
 268 637 282 612 300 612 c 0
 311 612 321 618 328 624 c 2
 340 636 l 2
 340 637 l 0
 341 637 l 2
 358 620 l 1
 356 618 l 2
 355 617 353 615 351 613 c 2
 351 612 l 2
 294 556 l 2
 293 555 293 555 292 554 c 2
 292 -114 l 1
 368 -119 460 -163 460 -163 c 1
 477 -180 l 1
440 637 m 1
 457 620 l 1
 417 580 l 1
 417 -55 l 1
 360 -112 l 1
 343 -95 l 1
 343 540 l 1
 440 637 l 1
268 539 m 2
 265 538 263 538 260 538 c 0
 242 538 228 563 199 563 c 0
 182 563 168 560 154 554 c 1
 128 506 117 436 117 370 c 0
 117 259 130 187 158 150 c 1
 170 142 184 137 200 137 c 0
 204 137 207 137 211 138 c 2
 260 187 l 1
 268 179 l 1
 268 539 l 2
EndSplineSet
EndChar
StartChar: cedilla
Encoding: 184 184 102
Width: 320
Flags: W
HStem: -212 74<61.6453 154.755>
VStem: 3 274
LayerCount: 2
Back
SplineSet
160 0 m 25
 140 -25 l 1
 240 -100 l 1
 160 -200 l 1
 160 -200 139 -175 100 -175 c 3
 52 -175 40 -200 40 -200 c 1025
EndSplineSet
Fore
SplineSet
180 37 m 1
 197 20 l 1
 179 -3 l 1
 260 -63 l 1
 277 -80 l 1
 197 -180 l 1
 140 -237 l 1
 136 -233 l 2
 128 -226 109 -212 80 -212 c 0
 57 -212 43 -217 34 -223 c 2
 20 -237 l 1
 3 -220 l 1
 3 -220 5 -217 9 -213 c 2
 65 -156 l 2
 72 -149 89 -138 120 -138 c 0
 146 -138 164 -150 173 -157 c 1
 201 -122 l 1
 120 -62 l 1
 103 -45 l 1
 123 -20 l 1
 180 37 l 1
EndSplineSet
EndChar
StartChar: ordmasculine
Encoding: 186 186 211
Width: 320
Flags: W
HStem: 163 74<60 260>
VStem: 43 74<365.157 600> 203 74<400 634.843>
LayerCount: 2
Back
SplineSet
160 700 m 25
 80 620 l 25
 80 380 l 25
 160 300 l 25
 240 380 l 25
 240 620 l 25
 160 700 l 25
40 200 m 25
 280 200 l 1049
EndSplineSet
Fore
SplineSet
3 180 m 1
 60 237 l 1
 300 237 l 1
 317 220 l 1
 260 163 l 1
 20 163 l 1
 3 180 l 1
140 663 m 1
 117 640 l 1
 117 400 l 2
 117 366 162 355 180 337 c 1
 203 360 l 1
 203 600 l 2
 203 634 158 645 140 663 c 1
43 600 m 1
 180 737 l 1
 277 640 l 1
 277 400 l 1
 140 263 l 1
 43 360 l 1
 43 600 l 1
EndSplineSet
EndChar
StartChar: guillemotright
Encoding: 187 187 216
Width: 440
Flags: W
LayerCount: 2
Back
SplineSet
260 325 m 17
 260 325 277 295 300 275 c 0
 376 207 400 200 400 200 c 1
 400 200 349 174 280 100 c 0
 263 82 240 50 240 50 c 1033
60 325 m 17
 60 325 77 295 100 275 c 0
 176 207 200 200 200 200 c 1
 200 200 149 174 80 100 c 0
 63 82 40 50 40 50 c 1033
EndSplineSet
Fore
SplineSet
80 362 m 1
 97 345 l 1
 97 345 107 327 122 310 c 0
 173 264 200 246 212 240 c 0
 217 237 220 237 220 237 c 1
 237 220 l 1
 180 163 l 1
 180 163 150 147 108 110 c 0
 93 92 77 70 77 70 c 2
 20 13 l 1
 3 30 l 1
 3 30 26 62 43 80 c 0
 49 86 54 92 59 97 c 0
 60 98 60 98 61 99 c 2
 62 99 l 1
 118 156 l 2
 128 166 138 175 147 183 c 1
 131 194 110 211 80 238 c 0
 78 240 76 242 74 244 c 0
 73 245 l 2
 56 262 l 2
 37 281 23 305 23 305 c 1
 80 362 l 1
280 362 m 1
 297 345 l 1
 297 345 307 327 322 310 c 0
 373 264 400 246 412 240 c 0
 417 237 420 237 420 237 c 1
 437 220 l 1
 380 163 l 1
 380 163 350 147 308 110 c 0
 293 92 277 70 277 70 c 2
 220 13 l 1
 203 30 l 1
 203 30 226 62 243 80 c 0
 249 86 254 92 259 97 c 0
 260 98 260 98 261 99 c 2
 262 99 l 1
 318 156 l 2
 328 166 338 175 347 183 c 1
 331 194 310 211 280 238 c 0
 278 240 276 242 274 244 c 0
 273 245 l 2
 256 262 l 2
 237 281 223 305 223 305 c 1
 280 362 l 1
EndSplineSet
EndChar
StartChar: questiondown
Encoding: 191 191 201
Width: 320
Flags: W
HStem: 417 20G<145 185> 417 20G<145 185>
VStem: 43 74<-122 -50> 123 74<70 185> 203 74<-120 -70>
CounterMasks: 1 38
LayerCount: 2
Back
SplineSet
240 -50 m 25
 240 -140 l 25
 180 -200 l 25
 80 -150 l 25
 80 -30 l 25
 160 50 l 25
 160 205 l 1049
175 370 m 25
 145 400 l 1049
EndSplineSet
Fore
SplineSet
212 390 m 1xb8
 155 333 l 1
 108 380 l 1
 165 437 l 1
 212 390 l 1xb8
260 -13 m 1
 277 -30 l 1
 277 -120 l 1
 160 -237 l 1
 60 -187 l 1
 43 -170 l 1
 43 -50 l 1
 123 30 l 1
 123 185 l 1
 180 242 l 1
 197 225 l 1
 197 70 l 1
 117 -10 l 1
 117 -122 l 1
 200 -163 l 1
 203 -160 l 1
 203 -70 l 1
 260 -13 l 1
EndSplineSet
EndChar
StartChar: AE
Encoding: 198 198 188
Width: 920
Flags: W
HStem: -37 74<567.843 688.782> 476 62G<143 180 318 355 523 548> 513 74<734 781.717> 517 20G<660 697> 563 74<198.376 246 658.265 711.5>
VStem: 243 74<383.737 557.139> 548 24<71 463 531 567> 623 74<120 313 357 480>
AnchorPoint: "blwmark" 480 0 basechar 0
AnchorPoint: "abvmark" 480 700 basechar 0
LayerCount: 2
Back
SplineSet
415 560 m 9
 385 600 l 25
 355 560 l 1041
160 300 m 1
 160 300 184 350 240 350 c 3
 342 350 400 250 401 250 c 1025
180 575 m 1
 180 575 188 600 220 600 c 11
 259 600 280 549 280 500 c 3
 280 263 141 75 141 75 c 1025
40 0 m 1
 40 0 65 50 120 50 c 3
 198 50 220 0 220 0 c 1025
400 580 m 1
 420 300 l 1025
660 300 m 25
 660 300 698 350 720 350 c 27
 748 350 732 300 760 300 c 3
 793 300 820 350 821 350 c 1049
560 550 m 1
 560 100 l 1025
660 500 m 1
 660 100 l 1025
560 600 m 1
 560 600 420 480 420 300 c 3
 420 134 496 0 640 0 c 3
 735 0 841 150 842 150 c 1025
560 492 m 1
 560 492 636 600 684 600 c 3
 735 600 714 550 760 550 c 3
 798 550 820 600 821 600 c 1025
EndSplineSet
Fore
SplineSet
540 455 m 1x87
 523 472 l 1
 523 472 533 486 548 504 c 1
 548 567 l 1
 507 515 457 428 457 320 c 0
 457 224 482 139 531 84 c 0
 536 79 542 75 548 71 c 1
 548 463 l 1
 540 455 l 1x87
597 620 m 1
 571 594 l 2
 570 593 568 591 567 590 c 2
 572 590 l 1
 572 531 l 2
 574 533 576 536 578 538 c 2
 635 594 l 2
 658 617 683 637 704 637 c 0xcf
 719 637 728 632 734 626 c 2
 751 609 l 2
 757 603 760 597 764 590 c 0
 768 588 773 587 780 587 c 0xa7
 785 587 790 588 793 589 c 2
 841 637 l 2x8f
 858 620 l 2
 857 618 848 601 835 588 c 2
 778 531 l 2
 768 521 756 513 740 513 c 0xa7
 728 513 720 517 715 522 c 2
 698 539 l 2
 692 545 689 552 685 559 c 0
 680 561 673 563 664 563 c 0
 651 563 637 556 622 545 c 1
 608 528 597 512 597 512 c 1
 572 487 l 1
 572 60 l 1
 565 60 l 1
 592 45 624 37 660 37 c 0
 699 37 739 62 773 91 c 1
 792 113 804 129 805 130 c 2
 862 187 l 1
 879 170 l 1
 876 167 852 134 818 100 c 2
 762 43 l 2
 723 4 670 -37 620 -37 c 0
 564 -37 518 -16 483 19 c 0
 466 36 l 2
 423 79 396 144 387 219 c 1
 381 213 l 2
 364 230 l 2
 363 231 354 246 338 264 c 0
 323 278 303 291 280 301 c 1
 239 177 178 95 178 95 c 2
 167 84 l 1
 196 79 215 67 226 56 c 2
 243 39 l 2
 253 29 257 20 257 20 c 1
 200 -37 l 1
 183 -20 l 2
 183 -20 181 -16 177 -10 c 0
 162 2 137 13 100 13 c 0
 84 13 71 9 60 3 c 2
 20 -37 l 1
 3 -20 l 1
 3 -20 9 -8 21 4 c 2
 78 60 l 2
 89 71 103 81 124 85 c 1
 150 127 194 209 221 313 c 1
 220 313 l 0
 204 313 192 310 181 304 c 2
 140 263 l 1
 123 280 l 1
 123 280 129 292 141 304 c 2
 197 360 l 2
 206 369 219 378 236 383 c 1
 241 414 243 447 243 480 c 0
 243 508 236 538 223 557 c 0
 217 561 208 563 200 563 c 0
 193 563 187 562 182 560 c 2
 160 538 l 1
 143 555 l 1
 143 555 145 562 152 568 c 2
 208 625 l 2
 214 631 225 637 240 637 c 0
 252 637 263 632 272 623 c 2
 289 606 l 2
 307 587 317 553 317 520 c 0
 317 471 311 424 302 381 c 1
 334 372 359 354 379 336 c 1
 364 552 l 1
 335 523 l 1
 318 540 l 1
 348 580 l 1
 405 637 l 1
 422 620 l 1
 437 600 l 1
 452 580 l 1
 439 567 l 1
 445 485 l 1
 470 525 496 554 511 569 c 2
 568 625 l 2
 580 637 l 1xcf
 597 620 l 1
680 537 m 1x97
 697 520 l 1
 697 357 l 1
 703 363 l 2
 715 375 729 387 740 387 c 0
 745 387 748 385 751 382 c 2
 768 365 l 2
 774 359 776 346 779 337 c 0
 780 337 l 0
 785 337 790 338 794 340 c 2
 841 387 l 2
 858 370 l 2
 856 367 848 353 835 340 c 2
 834 339 l 2
 777 282 l 2
 767 272 754 263 740 263 c 0
 735 263 732 264 729 267 c 0
 729 268 l 2
 712 285 l 2
 706 291 704 303 701 313 c 1
 700 313 l 0
 699 313 698 313 697 313 c 2
 697 120 l 1
 640 63 l 1
 623 80 l 1
 623 280 l 1
 623 480 l 1
 680 537 l 1x97
EndSplineSet
EndChar
StartChar: Eth
Encoding: 208 208 180
Width: 560
Flags: W
HStem: -37 21G<3 40 268 400> 13 74<83.9052 148 172 283.2> 513 21G<3 40> 563 74<77.6875 128.282>
VStem: 148 24<87 283 360.151 539> 223 74<170 275.509 353 530> 443 74<121 450>
AnchorPoint: "blwmark" 280 0 basechar 0
AnchorPoint: "abvmark" 320 700 basechar 0
LayerCount: 2
Back
SplineSet
40 550 m 1
 40 550 67 600 99 600 c 3
 128 600 142 575 160 575 c 3
 182 575 200 600 201 600 c 1025
160 550 m 1
 160 75 l 1025
260 150 m 1
 260 550 l 1
 300 600 l 1
 480 475 l 1
 480 101 l 1
 400 0 l 17
 400 0 279 50 120 50 c 3
 65 50 40 0 40 0 c 1033
80 275 m 17
 80 275 112 325 140 325 c 27
 203 325 237 300 300 300 c 27
 328 300 360 350 360 350 c 1033
EndSplineSet
Fore
SplineSet
60 238 m 1
 43 255 l 1
 43 255 53 271 67 285 c 2
 124 341 l 2
 124 342 l 0
 131 349 140 356 148 359 c 1
 148 539 l 2
 145 538 143 538 140 538 c 0
 122 538 108 563 79 563 c 0
 75 563 72 562 68 561 c 2
 20 513 l 1
 3 530 l 1
 3 530 13 548 27 562 c 2
 83 618 l 2
 93 628 106 637 119 637 c 0
 148 637 162 612 180 612 c 0
 191 612 201 618 208 624 c 2
 220 636 l 2
 220 637 l 0
 221 637 l 2
 238 620 l 1
 236 618 l 2
 235 617 233 615 231 613 c 2
 231 612 l 2
 174 556 l 2
 173 555 173 555 172 554 c 2
 172 361 l 1
 191 360 207 357 223 353 c 1
 223 530 l 1
 263 580 l 1
 320 637 l 1
 500 512 l 1
 517 495 l 1
 517 121 l 1
 437 20 l 1
 380 -37 l 1
 380 -37 259 13 100 13 c 0
 84 13 70 8 60 3 c 2
 20 -37 l 1
 3 -20 l 2
 3 -20 8 -9 20 3 c 2
 21 4 l 2
 78 60 l 2
 91 73 111 87 140 87 c 0
 143 87 145 87 148 87 c 2
 148 287 l 1
 139 288 130 288 120 288 c 0
 116 288 112 287 107 285 c 2
 60 238 l 1
240 113 m 1
 223 130 l 1
 223 270 l 1
 206 274 190 279 172 283 c 1
 172 86 l 1
 290 81 383 50 411 40 c 1
 443 81 l 1
 443 450 l 1
 297 552 l 1
 297 338 l 1
 304 337 312 337 320 337 c 0
 324 337 329 338 333 340 c 2
 380 387 l 1
 397 370 l 1
 397 370 387 354 373 340 c 2
 316 284 l 2
 310 278 304 272 297 268 c 1
 297 170 l 1
 240 113 l 1
EndSplineSet
EndChar
StartChar: Thorn
Encoding: 222 222 178
Width: 560
Flags: W
HStem: -187 74<22.6624 115.028> 417 20G<300 348.8> 417 20G<300 348.8> 513 21G<3 40> 563 74<77.6875 128.282>
VStem: 148 24<-130 21 39 539> 223 74<-80 50 137 352 414 540> 443 74<150 250>
AnchorPoint: "abvmark" 320 700 basechar 0
LayerCount: 2
Back
SplineSet
200 50 m 17
 200 50 243 100 280 100 c 27
 331 100 400 50 400 50 c 1
 480 130 l 1
 480 275 l 1
 300 400 l 1
 260 360 l 1025
40 550 m 1
 40 550 67 600 99 600 c 3
 128 600 142 575 160 575 c 3
 182 575 200 600 201 600 c 1025
160 550 m 1
 160 -125 l 1025
300 600 m 1
 260 560 l 1
 260 -100 l 1
 160 -200 l 1
 160 -200 138 -150 60 -150 c 3
 5 -150 -20 -200 -18 -200 c 1033
EndSplineSet
Fore
SplineSet
4 -195 m 2xdf
 -38 -237 l 1
 -55 -220 l 2
 -56 -219 -51 -208 -39 -196 c 2
 -38 -196 l 2
 18 -139 l 2
 31 -126 52 -113 80 -113 c 0
 111 -113 133 -121 148 -130 c 1
 148 539 l 2
 145 538 143 538 140 538 c 0
 122 538 108 563 79 563 c 0
 75 563 72 562 68 561 c 2
 20 513 l 1
 3 530 l 1
 3 530 13 548 27 562 c 2
 83 618 l 2
 93 628 106 637 119 637 c 0
 148 637 162 612 180 612 c 0
 191 612 201 618 208 624 c 2
 220 636 l 2
 220 637 l 0
 221 637 l 2
 238 620 l 1
 236 618 l 2
 235 617 233 615 231 613 c 2
 231 612 l 2
 174 556 l 2
 173 555 173 555 172 554 c 2
 172 39 l 1
 223 91 l 1
 223 340 l 1
 223 540 l 1
 320 637 l 1
 337 620 l 1
 297 580 l 1
 297 414 l 1
 320 437 l 1
 500 312 l 1
 517 295 l 1
 517 150 l 1
 380 13 l 1
 380 13 339 43 297 57 c 1
 297 -80 l 1
 140 -237 l 1
 123 -220 l 1
 123 -220 121 -216 117 -210 c 0
 101 -198 77 -187 40 -187 c 0
 26 -187 14 -190 4 -195 c 2xdf
172 -151 m 1
 182 -161 l 1
 223 -120 l 1
 223 50 l 1
 214 44 206 38 199 32 c 2
 180 13 l 1
 172 21 l 1
 172 -151 l 1
297 352 m 1
 297 137 l 2
 298 137 299 137 300 137 c 0
 351 137 420 87 420 87 c 2
 420 87 440 107 443 110 c 2
 443 250 l 1
 297 352 l 1
EndSplineSet
EndChar
StartChar: germandbls
Encoding: 223 223 131
Width: 400
Flags: W
HStem: -187 74<-62 -13.5> 323 74<170.571 250.898> 417 20G<137 187 280 320> 417 20G<137 187 280 320> 573 74<217.428 262.096>
VStem: 63 74<-157.356 -103 -2.34492 342 434 550> 283 74<-154.554 77>
AnchorPoint: "abvmark" 240 750 basechar 0
LayerCount: 2
Back
SplineSet
120 400 m 1
 120 400 179 360 214 360 c 3
 273 360 280 400 280 400 c 1
 320 360 l 1
 200 200 l 1
 320 100 l 1
 320 -150 l 1
 320 -150 282 -200 260 -200 c 1
 207 -113 100 0 100 0 c 1025
-100 -200 m 17
 -100 -200 -70 -150 -40 -150 c 8
 -3 -150 3 -200 40 -200 c 24
 70 -200 100 -150 100 -150 c 1
 100 570 l 1
 180 650 l 17
 180 650 212 610 240 610 c 24
 268 610 300 650 301 650 c 1033
EndSplineSet
Fore
SplineSet
-120 -237 m 1xee
 -137 -220 l 1
 -137 -220 -127 -204 -113 -190 c 2
 -57 -133 l 2
 -56 -132 l 0
 -45 -121 -33 -113 -20 -113 c 0
 -7 -113 2 -119 10 -127 c 2
 27 -144 l 2
 27 -145 l 0
 30 -148 34 -153 37 -156 c 0
 43 -161 51 -163 60 -163 c 0
 63 -163 l 1
 63 -20 l 1
 63 550 l 1
 200 687 l 1
 217 670 l 1
 217 670 217 669 219 667 c 0
 231 657 246 647 260 647 c 0
 275 647 292 659 303 669 c 2
 320 686 l 2
 321 687 l 2
 338 670 l 1
 335 667 l 2
 333 665 331 663 328 660 c 2
 328 659 l 2
 271 603 l 2
 259 591 239 573 220 573 c 0
 202 573 184 589 172 601 c 0
 171 601 l 2
 160 613 l 1
 137 590 l 1
 137 434 l 1
 140 437 l 1
 140 437 199 397 234 397 c 0
 246 397 257 399 264 401 c 2
 300 437 l 1
 357 380 l 1
 238 222 l 1
 340 137 l 1
 357 120 l 1
 357 -130 l 1
 357 -130 346 -144 333 -157 c 2
 277 -213 l 2
 265 -225 251 -237 240 -237 c 1
 223 -220 l 1
 200 -182 167 -139 137 -103 c 1
 137 -130 l 1
 137 -130 127 -146 113 -160 c 2
 57 -217 l 2
 46 -228 33 -237 20 -237 c 0
 7 -237 -2 -231 -10 -223 c 2
 -27 -206 l 2
 -31 -202 -34 -198 -37 -194 c 0
 -43 -190 -51 -187 -60 -187 c 0
 -64 -187 -68 -188 -73 -190 c 2
 -120 -237 l 1xee
137 342 m 1
 137 20 l 2
 137 20 227 -75 283 -159 c 1
 283 77 l 1
 180 163 l 1
 163 180 l 1
 283 340 l 1
 265 359 l 1
 248 342 l 2
 239 333 222 323 194 323 c 0
 177 323 156 332 137 342 c 1
EndSplineSet
EndChar
StartChar: ae
Encoding: 230 230 189
Width: 440
Flags: W
HStem: 417 20G<140 240 320 360> 417 20G<140 240 320 360>
VStem: 43 74<80 170> 203 74<100 140 174 193 268 340>
AnchorPoint: "blwmark" 240 0 basechar 0
AnchorPoint: "abvmark" 240 500 basechar 0
LayerCount: 2
Back
SplineSet
100 280 m 17
 80 340 l 1
 140 400 l 1
 240 375 l 1
 240 100 l 9
 140 0 l 1
 80 60 l 1
 80 190 l 1
 140 250 l 1
 140 250 155 230 200 230 c 3
 195.995781714 230 240 230 240 230 c 1033
400 80 m 9
 320 0 l 25
 240 80 l 25
 240 320 l 25
 320 400 l 25
 400 320 l 1
 400 280 l 9
 240 120 l 1049
EndSplineSet
Fore
SplineSet
210 53 m 1xb0
 120 -37 l 1
 43 40 l 1
 43 170 l 1
 160 287 l 1
 163 283 l 2
 169 278 181 271 203 268 c 1
 203 300 l 1
 203 342 l 1
 120 363 l 1
 117 360 l 1
 137 300 l 1
 80 243 l 1
 63 260 l 1
 43 320 l 1
 160 437 l 1
 260 412 l 1
 277 395 l 1
 277 374 l 1
 340 437 l 1
 437 340 l 1
 437 300 l 1
 277 140 l 1
 277 120 l 1
 277 100 l 1
 340 37 l 1
 420 117 l 1
 437 100 l 1
 300 -37 l 1
 210 53 l 1xb0
277 340 m 1
 277 174 l 1
 363 260 l 1
 363 300 l 1
 300 363 l 1
 277 340 l 1
203 80 m 1
 203 193 l 1
 180 193 l 1
 143 193 127 206 122 211 c 2
 120 213 l 1
 117 210 l 1
 117 80 l 1
 160 37 l 1
 203 80 l 1
EndSplineSet
EndChar
StartChar: divide
Encoding: 247 247 224
Width: 480
Flags: W
HStem: 263 74<100 380> 453 21G<215 255> 537 20G<225 265>
LayerCount: 2
Back
SplineSet
225 110 m 25
 255 80 l 1049
80 300 m 25
 400 300 l 1049
225 520 m 25
 255 490 l 1049
EndSplineSet
Fore
SplineSet
188 500 m 1
 245 557 l 1
 292 510 l 1
 235 453 l 1
 188 500 l 1
43 280 m 1
 100 337 l 1
 420 337 l 1
 437 320 l 1
 380 263 l 1
 60 263 l 1
 43 280 l 1
188 90 m 1
 245 147 l 1
 292 100 l 1
 235 43 l 1
 188 90 l 1
EndSplineSet
EndChar
StartChar: dotlessi
Encoding: 305 305 97
Width: 160
Flags: W
HStem: 417 20G<65 100> 417 20G<65 100>
VStem: 43 74<39 361>
AnchorPoint: "blwmark" 80 0 basechar 0
AnchorPoint: "abvmark" 80 500 basechar 0
LayerCount: 2
Back
SplineSet
65 30 m 25
 95 0 l 25
 125 30 l 1049
95 370 m 25
 65 400 l 25
 35 370 l 1049
80 385 m 9
 80 15 l 1025
EndSplineSet
Fore
SplineSet
117 405 m 1xa0
 132 390 l 1
 117 375 l 1
 117 39 l 1
 145 67 l 1
 162 50 l 1
 75 -37 l 1
 60 -22 l 1
 43 -5 l 1
 28 10 l 1
 43 25 l 1
 43 361 l 1
 15 333 l 1
 -2 350 l 1
 85 437 l 1
 100 422 l 1
 117 405 l 1xa0
EndSplineSet
EndChar
StartChar: OE
Encoding: 338 338 116
Width: 1000
Flags: W
HStem: -37 74<227.843 346.137 647.843 768.782> 455 21G<183 208 603 628> 513 74<814 861.717> 517 20G<740 777> 563 74<738.265 791.5>
VStem: 43 74<177.994 400.525> 208 24<71 463 543 567> 283 74<120 530> 465 73<176.21 444.28> 628 24<71 463 531 567> 703 74<120 313 357 480>
AnchorPoint: "blwmark" 480 0 basechar 0
AnchorPoint: "abvmark" 520 700 basechar 0
LayerCount: 2
Back
SplineSet
740 300 m 25
 740 300 778 350 800 350 c 27
 828 350 812 300 840 300 c 3
 873 300 900 350 901 350 c 1049
640 550 m 1
 640 100 l 1025
740 500 m 1
 740 100 l 1025
640 600 m 1
 640 600 500 480 500 300 c 3
 500 134 576 0 720 0 c 3
 815 0 921 150 922 150 c 1025
640 492 m 1
 640 492 716 600 764 600 c 3
 815 600 794 550 840 550 c 3
 878 550 900 600 901 600 c 1025
220 550 m 1
 220 100 l 1025
322 550 m 1
 320 100 l 1025
220 600 m 1
 220 600 80 480 80 300 c 3
 80 134 156 0 300 0 c 3
 395 0 502 142 502 300 c 3
 502 512 429 600 340 600 c 3
 270 600 220 492 220 492 c 1025
EndSplineSet
Fore
SplineSet
257 620 m 1xcfe0
 231 594 l 2
 230 593 228 591 227 590 c 2
 232 590 l 1
 232 543 l 2
 233 544 233 544 234 545 c 2
 234 546 l 2
 291 603 l 2
 310 622 334 637 360 637 c 0
 393 637 423 625 449 599 c 2
 465 582 l 2
 488 559 508 525 521 478 c 1
 547 522 575 553 591 569 c 2
 648 625 l 2
 660 637 l 1
 677 620 l 1
 651 594 l 2
 650 593 648 591 647 590 c 2
 652 590 l 1
 652 531 l 2
 654 533 656 536 658 538 c 2
 715 594 l 2
 738 617 763 637 784 637 c 0xcfe0
 799 637 808 632 814 626 c 2
 831 609 l 2
 837 603 840 597 844 590 c 0
 848 588 853 587 860 587 c 0xe7e0
 865 587 870 588 873 589 c 2
 921 637 l 2xcfe0
 938 620 l 2
 937 618 928 601 915 588 c 2
 858 531 l 2
 848 521 836 513 820 513 c 0xe7e0
 808 513 800 517 795 522 c 2
 778 539 l 2
 772 545 769 552 765 559 c 0
 760 561 753 563 744 563 c 0
 731 563 717 556 702 545 c 1
 688 528 677 512 677 512 c 1
 652 487 l 1
 652 60 l 1
 645 60 l 1
 672 45 704 37 740 37 c 0
 779 37 819 62 853 91 c 1
 872 113 884 129 885 130 c 2
 942 187 l 1
 959 170 l 1
 956 167 932 134 898 100 c 2
 842 43 l 2
 803 4 750 -37 700 -37 c 0
 644 -37 598 -16 563 19 c 2
 546 36 l 2
 521 61 501 94 487 132 c 1
 473 109 458 89 441 72 c 2
 441 71 l 2
 384 15 l 2
 352 -17 315 -37 280 -37 c 0
 224 -37 178 -16 143 19 c 0
 126 36 l 2
 72 90 43 179 43 280 c 0
 43 427 137 535 171 569 c 2
 228 625 l 2
 240 637 l 1
 257 620 l 1xcfe0
620 455 m 1
 603 472 l 1
 603 472 613 486 628 504 c 1
 628 567 l 1
 591 520 547 445 538 351 c 0
 538 341 539 331 539 320 c 0
 539 310 539 301 538 291 c 0
 543 207 567 133 611 84 c 0
 616 79 622 75 628 71 c 1
 628 463 l 1
 620 455 l 1
760 537 m 1xd7e0
 777 520 l 1
 777 357 l 1
 783 363 l 2
 795 375 809 387 820 387 c 0
 825 387 828 385 831 382 c 2
 848 365 l 2
 854 359 856 346 859 337 c 0
 860 337 l 0
 865 337 870 338 874 340 c 2
 921 387 l 2
 938 370 l 2
 936 367 928 353 915 340 c 2
 914 339 l 2
 857 282 l 2
 847 272 834 263 820 263 c 0
 815 263 812 264 809 267 c 0
 809 268 l 2
 792 285 l 2
 786 291 784 303 781 313 c 1
 780 313 l 0
 779 313 778 313 777 313 c 2
 777 120 l 1
 720 63 l 1
 703 80 l 1
 703 280 l 1
 703 480 l 1
 760 537 l 1xd7e0
318 563 m 1xcfe0
 304 563 291 558 280 552 c 1
 265 530 257 512 257 512 c 2
 232 487 l 1
 232 60 l 1
 225 60 l 1
 252 45 284 37 320 37 c 0
 345 37 371 47 395 64 c 1
 432 113 458 179 464 251 c 0
 463 261 463 270 463 280 c 0
 463 291 464 302 465 312 c 0
 461 420 436 492 400 534 c 0
 387 545 374 552 359 557 c 1
 357 120 l 1
 300 63 l 1
 283 80 l 1
 285 530 l 1
 318 563 l 1xcfe0
208 567 m 1
 167 515 117 428 117 320 c 0
 117 224 142 139 191 84 c 0
 196 79 202 75 208 71 c 1
 208 463 l 1
 200 455 l 1
 183 472 l 2
 183 472 192 491 208 514 c 1
 208 567 l 1
EndSplineSet
EndChar
StartChar: hv
Encoding: 405 405 514
Width: 480
Flags: W
HStem: 417 20G<180 220> 417 20G<180 220 423 441>
VStem: 43 74<35 320 354 590> 203 74<100 348.522> 323 74<424.924 502.786> 363 74<100 390.86>
AnchorPoint: "blwmark" 240 0 basechar 0
AnchorPoint: "abvmark" 240 700 basechar 0
LayerCount: 2
Back
SplineSet
404 550 m 17
 404 550 360 507 360 472 c 16
 360 423 400 380 400 380 c 9
 400 80 l 1
 320 0 l 25
 240 80 l 1
 240 340 l 25
 180 400 l 1
 80 300 l 1049
65 30 m 25
 95 0 l 1049
65 625 m 25
 95 595 l 1049
80 610 m 9
 80 15 l 1049
EndSplineSet
Fore
SplineSet
28 605 m 1xb4
 85 662 l 1
 100 647 l 1
 117 630 l 1
 132 615 l 1
 117 600 l 1
 117 354 l 1
 200 437 l 1
 277 360 l 1
 277 100 l 1
 340 37 l 1
 363 60 l 1
 363 360 l 1xb4
 363 360 323 403 323 452 c 0
 323 485 362 525 367 530 c 0
 423 586 l 2
 424 587 l 1
 441 570 l 1
 434 563 397 524 397 492 c 0xb8
 397 443 437 400 437 400 c 1
 437 100 l 1
 300 -37 l 1
 203 60 l 1
 203 320 l 2
 203 343 172 351 160 363 c 1
 117 320 l 1
 117 35 l 1
 132 20 l 1
 75 -37 l 1
 60 -22 l 1
 52 -13 l 1
 28 10 l 1
 43 25 l 1
 43 280 l 1
 43 590 l 1
 28 605 l 1xb4
EndSplineSet
EndChar
StartChar: wynn
Encoding: 447 447 877
Width: 320
Flags: W
HStem: -187 21G<43 80> 417 20G<65 100 160 200> 417 20G<65 100 160 200>
VStem: 43 74<-130 -64 -30 10 44 340> 203 74<170 334.843>
AnchorPoint: "abvmark" 160 500 basechar 0
LayerCount: 2
Back
SplineSet
40 -50 m 9
 240 150 l 1
 240 320 l 25
 160 400 l 1
 80 320 l 1049
65 400 m 25
 95 370 l 1049
80 385 m 1
 80 -150 l 1025
EndSplineSet
Fore
SplineSet
28 380 m 1xd8
 85 437 l 1
 100 422 l 1
 117 405 l 1
 132 390 l 1
 117 375 l 1
 117 374 l 1
 180 437 l 1
 277 340 l 1
 277 170 l 1
 117 10 l 1
 117 -130 l 1
 60 -187 l 1
 43 -170 l 1
 43 -64 l 1
 20 -87 l 1
 3 -70 l 1
 43 -30 l 1
 43 300 l 1
 43 365 l 1
 28 380 l 1xd8
117 340 m 1
 117 44 l 1
 203 130 l 1
 203 300 l 2
 203 334 158 345 140 363 c 1
 117 340 l 1
EndSplineSet
EndChar
StartChar: HV
Encoding: 502 502 513
Width: 720
Flags: W
HStem: -37 21G<3 40 183 220 450 500> 13 74<83.9052 147.551> 513 21G<3 40> 563 74<77.6875 128.282>
VStem: 148 24<87 539> 223 74<60 255 289 540> 403 74<65 315> 523 74<474 526.113> 583 74<141 426.905>
AnchorPoint: "blwmark" 380 0 basechar 0
AnchorPoint: "abvmark" 400 700 basechar 0
LayerCount: 2
Back
SplineSet
40 550 m 1
 40 550 67 600 99 600 c 3
 128 600 142 575 160 575 c 3
 182 575 200 600 201 600 c 1025
160 550 m 1
 160 75 l 1025
300 275 m 1
 400 375 l 1
 440 335 l 1
 440 40 l 1
 500 0 l 1
 620 120.799804688 l 1
 620 452 l 1
 620 452 560 455.200195312 560 500 c 3
 560 544 640 600 640 600 c 1025
300 600 m 1
 260 560 l 1
 260 40 l 1
 220 0 l 1
 220 0 198 50 120 50 c 3
 65 50 40 0 40 0 c 1033
EndSplineSet
Fore
SplineSet
320 637 m 1xfe80
 337 620 l 1
 297 580 l 1
 297 289 l 1
 420 412 l 1
 477 355 l 1
 477 65 l 1
 520 37 l 1
 583 101 l 1
 583 418 l 1xfe80
 573 421 561 425 552 434 c 2
 535 451 l 1
 534 452 l 0
 527 459 523 468 523 480 c 0
 523 501 542 525 561 544 c 2
 617 601 l 2
 618 601 l 2
 639 622 660 637 660 637 c 2
 677 620 l 1
 620 563 l 2
 620 563 617 561 611 556 c 0
 604 545 597 532 597 520 c 0xff
 597 512 598 506 601 500 c 0
 618 490 640 489 640 489 c 1
 657 472 l 1
 657 141 l 1
 537 20 l 1
 480 -37 l 1
 420 3 l 1
 403 20 l 1
 403 315 l 1
 380 338 l 1
 297 255 l 1
 297 60 l 1
 200 -37 l 1
 183 -20 l 1
 183 -20 181 -16 177 -10 c 0
 161 2 137 13 100 13 c 0
 84 13 70 8 60 3 c 2
 20 -37 l 1
 3 -20 l 2
 3 -20 8 -9 20 3 c 2
 21 4 l 2
 78 60 l 2
 91 73 111 87 140 87 c 0
 143 87 145 87 148 87 c 2
 148 539 l 2
 145 538 143 538 140 538 c 0
 122 538 108 563 79 563 c 0
 75 563 72 562 68 561 c 2
 20 513 l 1
 3 530 l 1
 3 530 13 548 27 562 c 2
 83 618 l 2
 93 628 106 637 119 637 c 0
 148 637 162 612 180 612 c 0
 191 612 201 618 208 624 c 2
 220 636 l 2
 220 637 l 0
 221 637 l 2
 238 620 l 1
 236 618 l 2
 235 617 233 615 231 613 c 2
 231 612 l 2
 174 556 l 2
 173 555 173 555 172 554 c 2
 172 84 l 1
 196 79 212 68 223 58 c 1
 223 540 l 1
 320 637 l 1xfe80
EndSplineSet
EndChar
StartChar: caron
Encoding: 711 711 245
Width: 320
Flags: W
HStem: 488 249
VStem: 123 74<545 596.373>
LayerCount: 2
Back
SplineSet
80 700 m 25
 80 700 160 625 160 525 c 1
 160 675 240 700 240 700 c 1025
EndSplineSet
Fore
SplineSet
43 680 m 1
 100 737 l 1
 100 737 101 736 102 735 c 2
 119 718 l 2
 126 711 148 688 167 653 c 1
 169 655 170 657 172 659 c 2
 229 716 l 2
 245 732 260 737 260 737 c 1
 277 720 l 1
 221 664 l 2
 218 657 214 649 211 641 c 0
 202 617 197 586 197 545 c 1
 140 488 l 1
 123 505 l 1
 123 527 119 548 113 567 c 0
 95 623 59 663 47 676 c 2
 43 680 l 1
EndSplineSet
EndChar
StartChar: verticallinemod
Encoding: 712 712 887
Width: 320
Flags: W
HStem: 488 249
VStem: 123 74<545 680>
LayerCount: 2
Back
SplineSet
160 700 m 9
 160 525 l 1025
EndSplineSet
Fore
SplineSet
180 737 m 1
 197 720 l 1
 197 545 l 1
 140 488 l 1
 123 505 l 1
 123 680 l 1
 180 737 l 1
EndSplineSet
EndChar
StartChar: breve
Encoding: 728 728 265
Width: 320
Flags: W
HStem: 488 74<133.653 202> 617 20G<80 117 260 297>
VStem: 43 254
LayerCount: 2
Back
SplineSet
80 600 m 17
 80 600 92 525 180 525 c 3
 216 525 260 600 260 600 c 1033
EndSplineSet
Fore
SplineSet
100 637 m 1
 117 620 l 1
 117 620 120 601 134 582 c 1
 149 571 170 562 200 562 c 0
 204 562 210 563 213 565 c 0
 223 580 l 1
 280 637 l 1
 297 620 l 1
 297 620 279 590 257 568 c 2
 201 511 l 2
 188 498 173 488 160 488 c 0
 124 488 101 500 86 515 c 0
 86 516 l 2
 69 533 l 2
 48 554 43 580 43 580 c 1
 100 637 l 1
EndSplineSet
EndChar
StartChar: dotaccent
Encoding: 729 729 269
Width: 320
Flags: W
HStem: 518 104
VStem: 108 104
LayerCount: 2
Back
SplineSet
145 585 m 25
 175 555 l 1049
EndSplineSet
Fore
SplineSet
108 565 m 1
 165 622 l 1
 212 575 l 1
 155 518 l 1
 108 565 l 1
EndSplineSet
EndChar
StartChar: ring
Encoding: 730 730 184
Width: 320
Flags: W
HStem: 488 74<143.707 202.83> 688 74<117.17 176.293>
VStem: 43 74<586.422 687.868> 203 74<562.132 663.578>
LayerCount: 2
Back
SplineSet
80 650 m 0
 80 710 92 725 140 725 c 0
 200 725 240 675 240 600 c 0
 240 540 228 525 180 525 c 0
 120 525 80 575 80 650 c 0
EndSplineSet
Fore
SplineSet
43 630 m 0
 43 663 47 682 58 693 c 2
 114 749 l 2
 123 758 138 762 160 762 c 0
 186 762 208 752 225 735 c 2
 242 718 l 2
 264 696 277 662 277 620 c 0
 277 587 273 568 262 557 c 2
 206 501 l 2
 197 492 182 488 160 488 c 0
 134 488 112 498 95 515 c 2
 78 532 l 2
 56 554 43 588 43 630 c 0
117 670 m 0
 117 633 126 602 143 580 c 1
 158 568 178 562 200 562 c 0
 201 562 202 562 203 562 c 0
 203 567 203 573 203 580 c 0
 203 617 194 648 177 670 c 1
 162 682 142 688 120 688 c 0
 119 688 118 688 117 688 c 0
 117 683 117 677 117 670 c 0
EndSplineSet
EndChar
StartChar: ogonek
Encoding: 731 731 283
Width: 320
Flags: W
HStem: -237 274
VStem: 63 74<-124 -80>
LayerCount: 2
Back
SplineSet
160 0 m 25
 100 -60 l 1
 100 -150 l 9
 180 -200 l 25
 220 -160 l 1049
EndSplineSet
Fore
SplineSet
180 37 m 1
 197 20 l 1
 137 -40 l 1
 137 -124 l 1
 200 -163 l 2
 200 -163 235 -128 240 -123 c 1
 257 -140 l 1
 160 -237 l 1
 80 -187 l 1
 63 -170 l 1
 63 -80 l 1
 180 37 l 1
EndSplineSet
EndChar
StartChar: hungarumlaut
Encoding: 733 733 267
Width: 320
Flags: W
HStem: 488 249
VStem: 123 74<637.523 680> 243 74<637.523 680>
LayerCount: 2
Back
SplineSet
280 700 m 17
 280 600 180 525 180 525 c 1049
160 700 m 17
 160 600 60 525 60 525 c 1049
EndSplineSet
Fore
SplineSet
180 737 m 1
 197 720 l 1
 197 653 153 598 123 568 c 2
 66 512 l 2
 66 511 l 2
 51 496 40 488 40 488 c 2
 23 505 l 1
 73 555 l 1
 98 586 123 630 123 680 c 1
 180 737 l 1
300 737 m 1
 317 720 l 1
 317 653 273 598 243 568 c 2
 186 512 l 2
 186 511 l 2
 171 496 160 488 160 488 c 2
 143 505 l 1
 193 555 l 1
 218 586 243 630 243 680 c 1
 300 737 l 1
EndSplineSet
EndChar
StartChar: ringbelow
Encoding: 755 755 886
Width: 320
Flags: W
HStem: -312 74<143.707 202.83> -112 74<117.17 176.293>
VStem: 43 74<-213.578 -112.132> 203 74<-237.868 -136.422>
LayerCount: 2
Back
SplineSet
80 -150 m 0
 80 -90 92 -75 140 -75 c 0
 200 -75 240 -125 240 -200 c 0
 240 -260 228 -275 180 -275 c 0
 120 -275 80 -225 80 -150 c 0
EndSplineSet
Fore
SplineSet
43 -170 m 0
 43 -137 47 -118 58 -107 c 2
 114 -51 l 2
 123 -42 138 -38 160 -38 c 0
 186 -38 208 -48 225 -65 c 2
 242 -82 l 2
 264 -104 277 -138 277 -180 c 0
 277 -213 273 -232 262 -243 c 2
 206 -299 l 2
 197 -308 182 -312 160 -312 c 0
 134 -312 112 -302 95 -285 c 2
 78 -268 l 2
 56 -246 43 -212 43 -170 c 0
117 -130 m 0
 117 -167 126 -198 143 -220 c 1
 158 -232 178 -238 200 -238 c 0
 201 -238 202 -238 203 -238 c 0
 203 -233 203 -227 203 -220 c 0
 203 -183 194 -152 177 -130 c 1
 162 -118 142 -112 120 -112 c 0
 119 -112 118 -112 117 -112 c 0
 117 -117 117 -123 117 -130 c 0
EndSplineSet
EndChar
StartChar: dotbelowcmb
Encoding: 803 803 357
Width: 0
VWidth: 400
Flags: W
HStem: -182 104
VStem: -212 104
AnchorPoint: "blwmark" -160 0 mark 0
LayerCount: 2
Back
SplineSet
-175 -115 m 25
 -145 -145 l 1049
EndSplineSet
Fore
SplineSet
-212 -135 m 1
 -155 -78 l 1
 -108 -125 l 1
 -165 -182 l 1
 -212 -135 l 1
EndSplineSet
EndChar
StartChar: breveinvertedbelowcmb
Encoding: 815 815 537
Width: 0
VWidth: 400
Flags: W
HStem: -162 74<-182 -113.653>
VStem: -277 254
AnchorPoint: "blwmark" -160 0 mark 0
LayerCount: 2
Back
SplineSet
-60 -200 m 17
 -60 -200 -72 -125 -160 -125 c 3
 -196 -125 -240 -200 -240 -200 c 1033
EndSplineSet
Fore
SplineSet
-80 -237 m 1
 -97 -220 l 1
 -97 -220 -100 -201 -114 -182 c 1
 -129 -171 -150 -162 -180 -162 c 0
 -184 -162 -190 -163 -193 -165 c 0
 -203 -180 l 1
 -260 -237 l 1
 -277 -220 l 1
 -277 -220 -259 -190 -237 -168 c 2
 -181 -111 l 2
 -168 -98 -153 -88 -140 -88 c 0
 -104 -88 -81 -100 -66 -115 c 0
 -66 -116 l 2
 -49 -133 l 2
 -28 -154 -23 -180 -23 -180 c 1
 -80 -237 l 1
EndSplineSet
EndChar
StartChar: tridotright
Encoding: 4347 4347 895
Width: 400
Flags: W
VStem: 68 304
LayerCount: 2
Back
SplineSet
305 190 m 25
 335 160 l 1049
105 350 m 25
 135 320 l 1049
105 30 m 25
 135 0 l 1049
EndSplineSet
Fore
SplineSet
68 10 m 1
 125 67 l 1
 172 20 l 1
 115 -37 l 1
 68 10 l 1
68 330 m 1
 125 387 l 1
 172 340 l 1
 115 283 l 1
 68 330 l 1
268 170 m 1
 325 227 l 1
 372 180 l 1
 315 123 l 1
 268 170 l 1
EndSplineSet
EndChar
StartChar: endash
Encoding: 8211 8211 257
Width: 320
Flags: W
HStem: 163 74<60 260>
VStem: 3 314
LayerCount: 2
Back
SplineSet
40 200 m 25
 280 200 l 1049
EndSplineSet
Fore
SplineSet
3 180 m 1
 60 237 l 1
 300 237 l 1
 317 220 l 1
 260 163 l 1
 20 163 l 1
 3 180 l 1
EndSplineSet
EndChar
StartChar: horizontalbar
Encoding: 8213 8213 909
Width: 560
Flags: W
HStem: 163 74<60 500>
LayerCount: 2
Back
SplineSet
40 200 m 25
 520 200 l 1049
EndSplineSet
Fore
SplineSet
3 180 m 1
 60 237 l 1
 540 237 l 1
 557 220 l 1
 500 163 l 1
 20 163 l 1
 3 180 l 1
EndSplineSet
EndChar
StartChar: quoteleft
Encoding: 8216 8216 254
Width: 240
Flags: W
HStem: 408 179
VStem: 71 118
LayerCount: 2
Back
SplineSet
137.5 445 m 25
 107.5 475 l 1
 107.5 505 l 25
 152.5 550 l 1049
EndSplineSet
Fore
SplineSet
174 465 m 1
 118 408 l 1
 71 455 l 1
 71 485 l 1
 172 587 l 1
 189 570 l 1
 144 525 l 1
 144 495 l 1
 174 465 l 1
EndSplineSet
EndChar
StartChar: quotesinglbase
Encoding: 8218 8218 256
Width: 240
VWidth: 450
Flags: W
HStem: -112 179
VStem: 51 118
LayerCount: 2
Back
SplineSet
102.5 30 m 25
 132.5 0 l 1
 132.5 -30 l 25
 87.5 -75 l 1049
EndSplineSet
Fore
SplineSet
66 10 m 1
 122 67 l 1
 169 20 l 1
 169 -10 l 1
 68 -112 l 1
 51 -95 l 1
 96 -50 l 1
 96 -20 l 1
 66 10 l 1
EndSplineSet
EndChar
StartChar: quotedblright
Encoding: 8221 8221 252
Width: 400
Flags: W
HStem: 438 179
VStem: 51 278
LayerCount: 2
Back
SplineSet
262.5 580 m 25
 292.5 550 l 1
 292.5 520 l 25
 247.5 475 l 1049
102.5 580 m 25
 132.5 550 l 1
 132.5 520 l 25
 87.5 475 l 1049
EndSplineSet
Fore
SplineSet
66 560 m 1
 122 617 l 1
 169 570 l 1
 169 540 l 1
 68 438 l 1
 51 455 l 1
 96 500 l 1
 96 530 l 1
 66 560 l 1
226 560 m 1
 282 617 l 1
 329 570 l 1
 329 540 l 1
 228 438 l 1
 211 455 l 1
 256 500 l 1
 256 530 l 1
 226 560 l 1
EndSplineSet
EndChar
StartChar: minute
Encoding: 8242 8242 926
Width: 240
Flags: W
HStem: 490 247
VStem: 123 74<630.098 680>
LayerCount: 2
Back
SplineSet
160 700 m 17
 160 600 80 525 80 525 c 1041
EndSplineSet
Fore
SplineSet
180 737 m 1
 197 720 l 1
 197 629 131 559 119 547 c 2
 62 490 l 2
 60 488 l 1
 43 505 l 1
 47 509 l 2
 63 526 123 594 123 680 c 1
 180 737 l 1
EndSplineSet
EndChar
StartChar: refmark
Encoding: 8251 8251 953
Width: 480
Flags: W
HStem: 453 21G<235 275> 537 0G<80 117 245 285 400 437>
LayerCount: 2
Back
SplineSet
400 500 m 25
 80 100 l 1049
80 500 m 25
 400 100 l 1049
385 345 m 25
 415 315 l 1049
205 110 m 25
 235 80 l 1049
245 520 m 25
 275 490 l 1049
65 285 m 25
 95 255 l 1049
EndSplineSet
Fore
SplineSet
28 265 m 1
 85 322 l 1
 132 275 l 1
 75 218 l 1
 28 265 l 1
208 500 m 1
 265 557 l 1
 312 510 l 1
 255 453 l 1
 208 500 l 1
168 90 m 1
 225 147 l 1
 272 100 l 1
 215 43 l 1
 168 90 l 1
348 325 m 1
 405 382 l 1
 452 335 l 1
 395 278 l 1
 348 325 l 1
100 537 m 1
 117 520 l 1
 256 346 l 1
 363 480 l 1
 420 537 l 1
 437 520 l 1
 277 320 l 1
 437 120 l 1
 380 63 l 1
 363 80 l 1
 224 254 l 1
 117 120 l 1
 60 63 l 1
 43 80 l 1
 203 280 l 1
 43 480 l 1
 100 537 l 1
EndSplineSet
EndChar
StartChar: fraction
Encoding: 8260 8260 217
Width: 560
Flags: W
LayerCount: 2
Back
SplineSet
80 0 m 25
 480 700 l 1049
EndSplineSet
Fore
SplineSet
60 -37 m 1
 43 -20 l 1
 443 680 l 1
 500 737 l 1
 517 720 l 1
 117 20 l 1
 60 -37 l 1
EndSplineSet
EndChar
StartChar: lozengedot
Encoding: 8280 8280 899
Width: 480
Flags: W
LayerCount: 2
Back
SplineSet
345 190 m 25
 375 160 l 1049
225 30 m 25
 255 0 l 1049
225 350 m 25
 255 320 l 1049
105 190 m 25
 135 160 l 1049
EndSplineSet
Fore
SplineSet
68 170 m 1
 125 227 l 1
 172 180 l 1
 115 123 l 1
 68 170 l 1
188 330 m 1
 245 387 l 1
 292 340 l 1
 235 283 l 1
 188 330 l 1
188 10 m 1
 245 67 l 1
 292 20 l 1
 235 -37 l 1
 188 10 l 1
308 170 m 1
 365 227 l 1
 412 180 l 1
 355 123 l 1
 308 170 l 1
EndSplineSet
EndChar
StartChar: dotcross
Encoding: 8284 8284 954
Width: 480
Flags: W
HStem: 263 74<60 203 277 420> 477 20G<115 155 240 277 335 375>
VStem: 203 74<70 263 337 530>
LayerCount: 2
Back
SplineSet
240 550 m 25
 240 50 l 1049
40 300 m 25
 440 300 l 1049
335 460 m 25
 365 430 l 1049
335 170 m 25
 365 140 l 1049
115 460 m 25
 145 430 l 1049
115 170 m 25
 145 140 l 1049
EndSplineSet
Fore
SplineSet
78 150 m 1
 135 207 l 1
 182 160 l 1
 125 103 l 1
 78 150 l 1
78 440 m 1
 135 497 l 1
 182 450 l 1
 125 393 l 1
 78 440 l 1
298 150 m 1
 355 207 l 1
 402 160 l 1
 345 103 l 1
 298 150 l 1
298 440 m 1
 355 497 l 1
 402 450 l 1
 345 393 l 1
 298 440 l 1
3 280 m 1
 60 337 l 1
 203 337 l 1
 203 530 l 1
 260 587 l 1
 277 570 l 1
 277 337 l 1
 460 337 l 1
 477 320 l 1
 420 263 l 1
 277 263 l 1
 277 70 l 1
 220 13 l 1
 203 30 l 1
 203 263 l 1
 20 263 l 1
 3 280 l 1
EndSplineSet
EndChar
StartChar: Euro
Encoding: 8364 8364 264
Width: 440
Flags: W
HStem: 188 74<60 83 157 260> 338 74<60 83 157 300> 488 21G<333.333 380> 617 20G<280 326.667>
VStem: 83 74<126 188 262 338 412 420>
LayerCount: 2
Back
SplineSet
40 225 m 25
 280 225 l 1049
40 375 m 25
 320 375 l 1049
380 525 m 9
 280 600 l 25
 120 440 l 25
 120 100 l 25
 280 0 l 25
 400 120 l 1041
EndSplineSet
Fore
SplineSet
417 545 m 1
 360 488 l 1
 260 563 l 2
 260 563 166 469 157 460 c 1
 157 412 l 1
 340 412 l 1
 357 395 l 1
 300 338 l 1
 157 338 l 1
 157 262 l 1
 300 262 l 1
 317 245 l 1
 260 188 l 1
 157 188 l 1
 157 126 l 1
 300 37 l 2
 300 37 357 94 363 100 c 2
 420 157 l 1
 437 140 l 1
 260 -37 l 1
 100 63 l 1
 83 80 l 1
 83 188 l 1
 20 188 l 1
 3 205 l 1
 60 262 l 1
 83 262 l 1
 83 338 l 1
 20 338 l 1
 3 355 l 1
 60 412 l 1
 83 412 l 1
 83 420 l 1
 300 637 l 1
 400 562 l 1
 417 545 l 1
EndSplineSet
EndChar
StartChar: minus
Encoding: 8722 8722 214
Width: 480
Flags: W
HStem: 263 74<100 380>
LayerCount: 2
Back
SplineSet
80 300 m 25
 400 300 l 1049
EndSplineSet
Fore
SplineSet
43 280 m 1
 100 337 l 1
 420 337 l 1
 437 320 l 1
 380 263 l 1
 60 263 l 1
 43 280 l 1
EndSplineSet
EndChar
StartChar: logicaland
Encoding: 8743 8743 952
Width: 480
Flags: W
HStem: 417 20G<240 277> 417 20G<240 277>
LayerCount: 2
Back
SplineSet
80 0 m 25
 240 400 l 25
 400 0 l 1049
EndSplineSet
Fore
SplineSet
60 -37 m 1x80
 43 -20 l 1
 203 380 l 1
 260 437 l 1
 277 420 l 1
 437 20 l 1
 380 -37 l 1
 363 -20 l 1
 232 308 l 1
 117 20 l 1
 60 -37 l 1x80
EndSplineSet
EndChar
StartChar: therefore
Encoding: 8756 8756 896
Width: 480
Flags: W
LayerCount: 2
Back
SplineSet
345 30 m 25
 375 0 l 1049
225 350 m 25
 255 320 l 1049
105 30 m 25
 135 0 l 1049
EndSplineSet
Fore
SplineSet
68 10 m 1
 125 67 l 1
 172 20 l 1
 115 -37 l 1
 68 10 l 1
188 330 m 1
 245 387 l 1
 292 340 l 1
 235 283 l 1
 188 330 l 1
308 10 m 1
 365 67 l 1
 412 20 l 1
 355 -37 l 1
 308 10 l 1
EndSplineSet
EndChar
StartChar: because
Encoding: 8757 8757 897
Width: 480
Flags: W
LayerCount: 2
Back
SplineSet
345 350 m 25
 375 320 l 1049
105 350 m 25
 135 320 l 1049
225 30 m 25
 255 0 l 1049
EndSplineSet
Fore
SplineSet
188 10 m 1
 245 67 l 1
 292 20 l 1
 235 -37 l 1
 188 10 l 1
68 330 m 1
 125 387 l 1
 172 340 l 1
 115 283 l 1
 68 330 l 1
308 330 m 1
 365 387 l 1
 412 340 l 1
 355 283 l 1
 308 330 l 1
EndSplineSet
EndChar
StartChar: FleuronRight
Encoding: 10087 10087 956
Width: 640
Flags: W
HStem: 487 30G<120 157 331.5 351.5>
VStem: 83 74<45 166> 91 74<112.875 189 280 367.083> 103 74<344.5 455>
LayerCount: 2
Back
SplineSet
40 150 m 25
 60 200 l 25
 260 300 l 1049
140 0 m 25
 120 25 l 25
 140 475 l 25
 120 500 l 1049
600 350 m 1
 600 350 498 25 360 25 c 27
 299 25 240 74 240 150 c 27
 240 212 340 250 340 250 c 1
 340 250 240 288 240 350 c 27
 240 405 281 450 320 450 c 3
 378 450 405 386 440 325 c 8
 463 285 461 225 500 225 c 3
 534 225 580 325 580 325 c 1025
EndSplineSet
Fore
SplineSet
561 323 m 2x90
 563 328 563 330 563 330 c 1
 620 387 l 1
 637 370 l 1
 637 370 630 351 619 321 c 0
 595 259 548 151 487 90 c 2
 431 34 l 2
 403 6 373 -12 340 -12 c 0
 309 -12 278 0 256 23 c 2
 239 40 l 2
 217 62 203 93 203 130 c 0
 203 151 214 169 229 184 c 2
 279 234 l 1
 267 241 256 250 246 260 c 2
 241 264 l 1
 240 263 l 1
 165 226 l 1xa0
 157 45 l 1xc0
 177 20 l 1
 120 -37 l 1
 103 -20 l 1x90
 83 5 l 1xc0
 91 189 l 1xa0
 83 184 l 1xc0
 77 170 l 1
 20 113 l 1
 3 130 l 1
 23 180 l 1
 80 237 l 1
 94 244 l 1
 103 455 l 1x90
 83 480 l 1
 140 537 l 1
 157 520 l 1xc0
 177 495 l 1
 167 280 l 1
 210 302 l 1
 206 311 203 320 203 330 c 0
 203 361 217 389 235 407 c 2
 291 464 l 2
 292 464 l 2
 306 478 323 487 340 487 c 0
 363 487 380 477 396 461 c 2
 413 445 l 2
 437 421 456 382 477 345 c 0
 492 319 497 285 508 264 c 0
 512 262 515 262 520 262 c 0
 520 262 532 281 543 305 c 1
 561 323 l 2x90
EndSplineSet
EndChar
StartChar: bracketwhiteleft
Encoding: 10214 10214 918
Width: 320
Flags: W
HStem: -187 74<117 168 192 260> 663 74<117 168 192 260>
VStem: 43 74<-113 663> 168 24<-113 663>
LayerCount: 2
Back
SplineSet
180 650 m 25
 180 -100 l 1049
280 700 m 25
 80 700 l 25
 80 -150 l 25
 280 -150 l 1033
EndSplineSet
Fore
SplineSet
317 720 m 1
 260 663 l 1
 192 663 l 1
 192 -113 l 1
 300 -113 l 1
 317 -130 l 1
 260 -187 l 1
 60 -187 l 1
 43 -170 l 1
 43 680 l 1
 100 737 l 1
 300 737 l 1
 317 720 l 1
168 663 m 1
 117 663 l 1
 117 -113 l 1
 168 -113 l 1
 168 663 l 1
EndSplineSet
EndChar
StartChar: bracketwhiteright
Encoding: 10215 10215 919
Width: 320
Flags: W
HStem: -187 74<60 128 152 203> 663 74<60 128 152 203>
VStem: 128 24<-113 663> 203 74<-113 663>
LayerCount: 2
Back
SplineSet
140 650 m 25
 140 -100 l 1049
40 700 m 25
 240 700 l 25
 240 -150 l 25
 40 -150 l 1033
EndSplineSet
Fore
SplineSet
3 680 m 1
 60 737 l 1
 260 737 l 1
 277 720 l 1
 277 -130 l 1
 220 -187 l 1
 20 -187 l 1
 3 -170 l 1
 60 -113 l 1
 128 -113 l 1
 128 663 l 1
 20 663 l 1
 3 680 l 1
152 -113 m 1
 203 -113 l 1
 203 663 l 1
 152 663 l 1
 152 -113 l 1
EndSplineSet
EndChar
StartChar: luslst
Encoding: 11788 11788 902
Width: 240
Flags: W
HStem: 413 324
VStem: 3 234
LayerCount: 2
Back
SplineSet
40 700 m 25
 200 450 l 1049
EndSplineSet
Fore
SplineSet
60 737 m 1
 77 720 l 1
 237 470 l 1
 180 413 l 1
 163 430 l 1
 3 680 l 1
 60 737 l 1
EndSplineSet
EndChar
StartChar: ruslst
Encoding: 11789 11789 903
Width: 240
Flags: W
HStem: 413 324
VStem: 3 234
LayerCount: 2
Back
SplineSet
40 450 m 25
 200 700 l 1049
EndSplineSet
Fore
SplineSet
20 413 m 1
 3 430 l 1
 163 680 l 1
 220 737 l 1
 237 720 l 1
 77 470 l 1
 20 413 l 1
EndSplineSet
EndChar
StartChar: ramus
Encoding: 11801 11801 911
Width: 480
Flags: W
HStem: -187 21G<43 80> 523 20G<175 212> 605 20G<458 495>
VStem: 23 74<119.337 330> 138 74<328.055 486> 251 74<586.562 642>
LayerCount: 2
Back
SplineSet
288 662 m 1
 288 662 288 625 288 600 c 27
 288 551 316 475 316 475 c 1
 316 475 388 516 428 550 c 24
 444 564 458 588 458 588 c 1025
60 350 m 1
 60 350 60 274 60 225 c 27
 60 127 123 -25 123 -25 c 1
 123 -25 261 57 340 125 c 24
 372 153 400 200 400 200 c 1025
175 506 m 1
 175 506 175 449 175 412 c 27
 175 339 220 225 220 225 c 1
 220 225 326 287 385 338 c 24
 409 359 430 394 430 394 c 1025
80 -150 m 25
 400 700 l 1049
EndSplineSet
Fore
SplineSet
60 -187 m 1
 43 -170 l 1
 89 -48 l 1
 86 -45 l 1
 86 -45 23 107 23 205 c 2
 23 330 l 1
 80 387 l 1
 97 370 l 1
 97 245 l 2
 97 191 116 121 133 69 c 1
 184 204 l 1
 183 205 l 1
 183 205 138 319 138 392 c 2
 138 486 l 1
 195 543 l 1
 212 526 l 1
 212 432 l 2
 212 400 220 361 230 326 c 1
 279 456 l 1
 276 465 251 534 251 580 c 2
 251 642 l 1
 308 699 l 1
 325 682 l 1
 325 620 l 2
 325 610 326 598 328 586 c 1
 363 680 l 1
 420 737 l 1
 437 720 l 1
 365 529 l 1
 381 539 402 553 419 565 c 0
 421 568 l 2
 478 625 l 1
 495 608 l 1
 495 608 483 588 469 574 c 2
 413 517 l 2
 412 516 409 514 408 513 c 0
 389 497 363 479 341 465 c 1
 272 281 l 1
 301 299 345 328 380 355 c 1
 388 367 393 374 393 374 c 2
 450 431 l 1
 467 414 l 1
 467 414 450 385 429 364 c 2
 372 308 l 2
 370 306 367 303 365 301 c 0
 332 272 284 240 248 217 c 1
 178 34 l 1
 219 60 288 103 339 144 c 1
 355 165 363 180 363 180 c 2
 420 237 l 1
 437 220 l 1
 437 220 414 183 387 155 c 0
 386 154 387 154 386 153 c 2
 385 153 l 1
 329 96 l 2
 326 93 323 91 320 88 c 0
 272 47 201 0 154 -30 c 1
 117 -130 l 1
 60 -187 l 1
EndSplineSet
EndChar
StartChar: rlslst
Encoding: 11804 11804 904
Width: 240
Flags: W
HStem: -187 324
VStem: 3 234
LayerCount: 2
Back
SplineSet
40 100 m 25
 200 -150 l 1049
EndSplineSet
Fore
SplineSet
60 137 m 1
 77 120 l 1
 237 -130 l 1
 180 -187 l 1
 163 -170 l 1
 3 80 l 1
 60 137 l 1
EndSplineSet
EndChar
StartChar: llslst
Encoding: 11805 11805 905
Width: 240
Flags: W
HStem: -187 324
VStem: 3 234
LayerCount: 2
Back
SplineSet
40 -150 m 25
 200 100 l 1049
EndSplineSet
Fore
SplineSet
20 -187 m 1
 3 -170 l 1
 163 80 l 1
 220 137 l 1
 237 120 l 1
 77 -130 l 1
 20 -187 l 1
EndSplineSet
EndChar
StartChar: barquillright
Encoding: 11809 11809 921
Width: 240
Flags: W
HStem: -187 21G<123 160> 263 74<60 123>
VStem: 123 74<-130 263 337 680>
LayerCount: 2
Back
SplineSet
40 300 m 25
 160 300 l 1049
160 700 m 25
 160 -150 l 1049
EndSplineSet
Fore
SplineSet
180 737 m 1
 197 720 l 1
 197 320 l 1
 197 -130 l 1
 140 -187 l 1
 123 -170 l 1
 123 263 l 1
 20 263 l 1
 3 280 l 1
 60 337 l 1
 123 337 l 1
 123 680 l 1
 180 737 l 1
EndSplineSet
EndChar
StartChar: bracketbottomleft
Encoding: 11812 11812 924
Width: 240
Flags: W
HStem: -187 74<117 180>
VStem: 43 74<-113 280>
LayerCount: 2
Back
SplineSet
80 300 m 1
 80 -150 l 9
 200 -150 l 1033
EndSplineSet
Fore
SplineSet
100 337 m 1
 117 320 l 1
 117 -113 l 1
 220 -113 l 1
 237 -130 l 1
 180 -187 l 1
 60 -187 l 1
 43 -170 l 1
 43 280 l 1
 100 337 l 1
EndSplineSet
EndChar
StartChar: bracketbottomright
Encoding: 11813 11813 925
Width: 240
Flags: W
HStem: -187 74<60 123>
VStem: 123 74<-113 280>
LayerCount: 2
Back
SplineSet
160 300 m 1
 160 -150 l 9
 40 -150 l 1033
EndSplineSet
Fore
SplineSet
180 337 m 1
 197 320 l 1
 197 -130 l 1
 140 -187 l 1
 20 -187 l 1
 3 -170 l 1
 60 -113 l 1
 123 -113 l 1
 123 280 l 1
 180 337 l 1
EndSplineSet
EndChar
StartChar: Ubracketleft
Encoding: 11814 11814 912
Width: 400
Flags: W
HStem: -37 74<187.292 340> 363 74<187.504 340>
VStem: 43 74<120.012 279.45>
LayerCount: 2
Back
SplineSet
360 400 m 1
 240 400 l 26
 152 400 80 310 80 200 c 27
 80 90 152 0 240 0 c 26
 360 0 l 1025
EndSplineSet
Fore
SplineSet
397 420 m 1
 340 363 l 1
 220 363 l 2
 195 363 172 356 151 344 c 1
 129 310 117 267 117 220 c 0
 117 162 137 108 169 72 c 1
 195 50 226 37 260 37 c 2
 380 37 l 1
 397 20 l 1
 340 -37 l 1
 220 -37 l 2
 182 -37 148 -20 121 7 c 2
 104 24 l 2
 67 61 43 117 43 180 c 0
 43 243 67 299 104 336 c 2
 160 393 l 2
 187 420 222 437 260 437 c 2
 380 437 l 1
 397 420 l 1
EndSplineSet
EndChar
StartChar: Ubracketright
Encoding: 11815 11815 913
Width: 400
Flags: W
HStem: -37 74<60 210.573> 363 74<60 212.708>
VStem: 283 74<120.388 279.768>
LayerCount: 2
Back
SplineSet
40 400 m 1
 160 400 l 26
 248 400 320 310 320 200 c 27
 320 90 248 0 160 0 c 26
 40 0 l 1025
EndSplineSet
Fore
SplineSet
3 380 m 1
 60 437 l 1
 180 437 l 2
 218 437 252 420 279 393 c 2
 297 376 l 0
 333 339 357 283 357 220 c 0
 357 157 333 101 296 64 c 2
 240 7 l 2
 239 7 l 2
 211 -20 177 -37 140 -37 c 2
 20 -37 l 1
 3 -20 l 1
 60 37 l 1
 180 37 l 2
 205 37 228 43 249 56 c 1
 270 89 283 133 283 180 c 0
 283 238 263 291 231 328 c 1
 206 350 174 363 140 363 c 2
 20 363 l 1
 3 380 l 1
EndSplineSet
EndChar
StartChar: fivedots
Encoding: 11821 11821 935
Width: 480
Flags: W
LayerCount: 2
Back
SplineSet
225 190 m 25
 255 160 l 1049
355 190 m 25
 385 160 l 1049
225 20 m 25
 255 -10 l 1049
225 360 m 25
 255 330 l 1049
95 190 m 25
 125 160 l 1049
EndSplineSet
Fore
SplineSet
58 170 m 1
 115 227 l 1
 162 180 l 1
 105 123 l 1
 58 170 l 1
188 340 m 1
 245 397 l 1
 292 350 l 1
 235 293 l 1
 188 340 l 1
188 0 m 1
 245 57 l 1
 292 10 l 1
 235 -47 l 1
 188 0 l 1
318 170 m 1
 375 227 l 1
 422 180 l 1
 365 123 l 1
 318 170 l 1
188 170 m 1
 245 227 l 1
 292 180 l 1
 235 123 l 1
 188 170 l 1
EndSplineSet
EndChar
StartChar: a_u
Encoding: 42807 42807 344
Width: 480
Flags: W
HStem: 417 20G<140 240 385 420> 417 20G<140 240 385 420>
VStem: 43 74<80 170> 203 74<80 188 263 342> 363 74<40 46 80 365>
CounterMasks: 1 38
AnchorPoint: "blwmark" 240 0 basechar 0
AnchorPoint: "abvmark" 240 500 basechar 0
LayerCount: 2
Back
SplineSet
240 100 m 9
 140 0 l 1
 80 60 l 1
 80 190 l 1
 140 250 l 1
 140 250 155 225 200 225 c 3
 195.995781714 225 240 225 240 225 c 1033
460 40 m 25
 420 0 l 1
 400 20 l 17
 400 385 l 1025
415 370 m 25
 385 400 l 1049
400 100 m 25
 300 0 l 25
 240 60 l 1
 240 375 l 17
 140 400 l 1
 80 340 l 1
 100 280 l 1033
EndSplineSet
Fore
SplineSet
480 77 m 1xb8
 497 60 l 1
 400 -37 l 1
 363 0 l 1
 363 46 l 1
 280 -37 l 1
 203 40 l 1
 203 46 l 1
 120 -37 l 1
 43 40 l 1
 43 170 l 1
 160 287 l 1
 171 276 l 2
 178 271 188 265 203 263 c 1
 203 342 l 1
 120 363 l 2
 117 360 l 2
 137 300 l 1
 80 243 l 1
 63 260 l 1
 43 320 l 1
 160 437 l 1
 260 412 l 1
 277 395 l 1
 277 245 l 1
 277 120 l 1
 277 80 l 1
 320 37 l 1
 363 80 l 1
 363 365 l 1
 348 380 l 1
 405 437 l 1
 420 422 l 1
 437 405 l 1
 452 390 l 1
 437 375 l 1
 437 120 l 1
 437 40 l 1
 440 37 l 1
 480 77 l 1xb8
203 80 m 1
 203 188 l 1
 180 188 l 2
 149 188 132 201 125 208 c 2
 120 213 l 1
 117 210 l 1
 117 80 l 1
 160 37 l 1
 203 80 l 1
EndSplineSet
LCarets2: 1 240 
Ligature2: "Historic ligatures-1" a u
EndChar
StartChar: avslash
Encoding: 42811 42811 861
Width: 480
Flags: W
HStem: 213 74<277 363> 417 20G<140 240> 417 20G<140 240 423 441>
VStem: 43 74<80 170> 203 74<100 188 287 342> 323 74<424.924 502.786> 363 74<100 213 287 390.86>
AnchorPoint: "abvmark" 240 500 basechar 0
AnchorPoint: "blwmark" 240 0 basechar 0
LayerCount: 2
Back
SplineSet
240 250 m 25
 440 250 l 1049
240 100 m 9
 140 0 l 1
 80 60 l 1
 80 190 l 1
 140 250 l 1
 140 250 155 225 200 225 c 3
 195.995781714 225 240 225 240 225 c 1033
404 550 m 17
 404 550 360 507 360 472 c 16
 360 423 400 380 400 380 c 9
 400 80 l 1
 320 0 l 25
 240 80 l 1
 240 375 l 17
 140 400 l 1
 80 340 l 1
 100 280 l 1033
EndSplineSet
Fore
SplineSet
441 570 m 1xdc
 434 563 397 524 397 492 c 0xdc
 397 443 437 400 437 400 c 1
 437 287 l 1
 460 287 l 1
 477 270 l 1
 437 230 l 1
 437 100 l 1
 300 -37 l 1
 210 53 l 1
 120 -37 l 1
 43 40 l 1
 43 170 l 1
 160 287 l 1
 171 276 l 2
 178 271 188 265 203 263 c 1
 203 342 l 1
 120 363 l 2
 117 360 l 2
 137 300 l 1
 80 243 l 1
 63 260 l 1
 43 320 l 1
 160 437 l 1
 260 412 l 1
 277 395 l 1
 277 287 l 1
 363 287 l 1
 363 360 l 1xda
 363 360 323 403 323 452 c 0
 323 485 362 525 367 530 c 0
 423 586 l 2
 424 587 l 1
 441 570 l 1xdc
203 80 m 1
 203 188 l 1
 180 188 l 2
 149 188 132 201 125 208 c 2
 120 213 l 1
 117 210 l 1
 117 80 l 1
 160 37 l 1
 203 80 l 1
277 120 m 1
 277 100 l 1
 340 37 l 1
 363 60 l 1
 363 213 l 1x9a
 277 213 l 1
 277 120 l 1
EndSplineSet
EndChar
StartChar: kbar
Encoding: 42817 42817 862
Width: 320
Flags: W
HStem: 438 74<40 43 117 140> 442 20G<225 260>
VStem: 43 74<35 216 253 438 512 590> 203 74<35 179 370 390>
AnchorPoint: "abvmark" 160 700 basechar 0
AnchorPoint: "blwmark" 160 0 basechar 0
LayerCount: 2
Back
SplineSet
160 475 m 25
 20 475 l 1049
225 425 m 25
 255 395 l 1049
65 625 m 25
 95 595 l 1049
65 625 m 25
 95 595 l 1049
80 200 m 1
 240 350 l 9
 240 410 l 1049
160 275 m 1
 240 200 l 1
 240 15 l 1025
225 30 m 25
 255 0 l 1049
65 30 m 25
 95 0 l 1049
65 625 m 25
 95 595 l 1049
80 610 m 9
 80 15 l 1049
EndSplineSet
Fore
SplineSet
188 405 m 1xb0
 245 462 l 1x70
 260 447 l 1
 277 430 l 1
 292 415 l 1
 277 400 l 1
 277 370 l 1
 220 313 l 1
 199 294 l 1
 260 237 l 1
 277 220 l 1
 277 35 l 1
 292 20 l 1
 235 -37 l 1
 220 -22 l 1
 203 -5 l 1
 188 10 l 1
 203 25 l 1
 203 179 l 1
 140 238 l 1
 117 216 l 1
 117 35 l 1
 132 20 l 1
 75 -37 l 1
 60 -22 l 1
 52 -13 l 1
 28 10 l 1
 43 25 l 1
 43 180 l 1
 43 438 l 1
 0 438 l 1
 -17 455 l 1
 40 512 l 1
 43 512 l 1
 43 590 l 1
 28 605 l 1
 85 662 l 1
 100 647 l 1
 117 630 l 1
 132 615 l 1
 117 600 l 1
 117 512 l 1
 180 512 l 1
 197 495 l 1
 140 438 l 1
 117 438 l 1
 117 253 l 1
 180 312 l 1
 203 334 l 1
 203 390 l 1
 188 405 l 1xb0
EndSplineSet
EndChar
StartChar: lbar
Encoding: 42825 42825 865
Width: 160
Flags: W
VStem: 43 74<39 438 512 590>
AnchorPoint: "abvmark" 80 700 basechar 0
AnchorPoint: "blwmark" 80 0 basechar 0
LayerCount: 2
Back
SplineSet
65 30 m 25
 95 0 l 25
 125 30 l 1049
65 625 m 25
 95 595 l 1049
80 610 m 9
 80 15 l 1049
140 475 m 25
 20 475 l 1049
EndSplineSet
Fore
SplineSet
177 495 m 1
 120 438 l 1
 117 438 l 1
 117 39 l 1
 145 67 l 1
 162 50 l 1
 75 -37 l 1
 60 -22 l 1
 52 -13 l 1
 28 10 l 1
 43 25 l 1
 43 438 l 1
 0 438 l 1
 -17 455 l 1
 40 512 l 1
 43 512 l 1
 43 590 l 1
 28 605 l 1
 85 662 l 1
 100 647 l 1
 117 630 l 1
 132 615 l 1
 117 600 l 1
 117 512 l 1
 160 512 l 1
 177 495 l 1
EndSplineSet
EndChar
StartChar: obiit
Encoding: 42827 42827 866
Width: 320
Flags: W
HStem: 188 74<40 43 117 203 277 280> 417 20G<160 200> 417 20G<160 200>
VStem: 43 74<65.1574 188 262 300> 203 74<100 188 262 334.843>
LayerCount: 2
Back
SplineSet
20 225 m 25
 300 225 l 1049
160 400 m 25
 80 320 l 25
 80 80 l 25
 160 0 l 25
 240 80 l 25
 240 320 l 25
 160 400 l 25
EndSplineSet
Fore
SplineSet
140 363 m 1x98
 117 340 l 1
 117 262 l 1
 203 262 l 1
 203 300 l 2
 203 334 158 345 140 363 c 1x98
43 300 m 1
 180 437 l 1xd8
 277 340 l 1
 277 262 l 1
 320 262 l 1
 337 245 l 1
 280 188 l 1
 277 188 l 1
 277 100 l 1
 140 -37 l 1
 43 60 l 1
 43 188 l 1
 0 188 l 1
 -17 205 l 1
 40 262 l 1
 43 262 l 1
 43 300 l 1
117 188 m 1
 117 100 l 2
 117 66 162 55 180 37 c 1
 203 60 l 1
 203 188 l 1
 117 188 l 1
EndSplineSet
EndChar
StartChar: o_o
Encoding: 42831 42831 669
Width: 480
Flags: W
HStem: 417 20G<160 200 320 360> 417 20G<160 200 320 360>
VStem: 43 74<65.1574 300> 203 74<65.1574 334.843> 363 74<100 334.843>
CounterMasks: 1 38
AnchorPoint: "blwmark" 240 0 basechar 0
AnchorPoint: "abvmark" 240 500 basechar 0
LayerCount: 2
Back
SplineSet
320 400 m 25
 240 320 l 25
 240 80 l 25
 320 0 l 25
 400 80 l 25
 400 320 l 25
 320 400 l 25
160 400 m 25
 80 320 l 25
 80 80 l 25
 160 0 l 25
 240 80 l 25
 240 320 l 25
 160 400 l 25
EndSplineSet
Fore
SplineSet
140 363 m 1x38
 117 340 l 1
 117 100 l 2
 117 66 162 55 180 37 c 1
 203 60 l 1
 203 300 l 2
 203 334 158 345 140 363 c 1x38
43 300 m 1
 180 437 l 1
 260 357 l 1
 340 437 l 1xb8
 437 340 l 1
 437 100 l 1
 300 -37 l 1
 220 43 l 1
 140 -37 l 1
 43 60 l 1
 43 300 l 1
277 100 m 2
 277 66 322 55 340 37 c 1
 363 60 l 1
 363 300 l 2
 363 334 318 345 300 363 c 1
 277 340 l 1
 277 100 l 2
EndSplineSet
LCarets2: 1 240 
Ligature2: "Historic ligatures-1" o o
EndChar
StartChar: psquirrel
Encoding: 42837 42837 870
Width: 400
Flags: W
HStem: -187 21G<123 160> 13 74<63 121.586> 417 20G<20 57 145 180 240 280> 417 20G<20 57 145 180 240 280>
VStem: 23 74<122.659 334.431> 123 74<-130 -14 84 340> 283 74<100 300>
AnchorPoint: "abvmark" 240 500 basechar 0
LayerCount: 2
Back
SplineSet
160 320 m 25
 240 400 l 1
 320 320 l 25
 320 80 l 1
 240 0 l 1
 240 0 238 50 20 50 c 1
 20 50 60 156 60 200 c 3
 60 332 20 400 20 400 c 1033
145 400 m 25
 175 370 l 1049
160 385 m 1
 160 -150 l 1025
EndSplineSet
Fore
SplineSet
108 380 m 1xee
 165 437 l 1
 180 422 l 1
 197 405 l 1
 212 390 l 1
 197 375 l 1
 197 374 l 1
 260 437 l 1
 357 340 l 1
 357 100 l 1
 220 -37 l 1
 203 -20 l 1
 203 -20 204 -19 203 -17 c 0
 201 -16 199 -15 197 -14 c 2
 197 -130 l 1
 140 -187 l 1
 123 -170 l 1
 123 6 l 1
 93 10 53 13 0 13 c 1
 -17 30 l 1
 -17 30 23 136 23 180 c 0
 23 312 -17 380 -17 380 c 1
 40 437 l 1
 57 420 l 1
 57 420 97 352 97 220 c 0
 97 187 74 118 63 87 c 1
 86 87 105 85 123 84 c 1
 123 300 l 1
 123 365 l 1
 108 380 l 1xee
197 340 m 1
 197 73 l 1
 230 65 246 55 253 48 c 2
 262 39 l 1
 283 60 l 1
 283 300 l 1
 220 363 l 1
 197 340 l 1
EndSplineSet
EndChar
StartChar: qbar
Encoding: 42839 42839 871
Width: 320
Flags: W
HStem: -187 21G<203 240> -112 74<180 203 277 280> 417 20G<160 197 240 277> 417 20G<160 197 240 277>
VStem: 43 74<100 300> 203 74<-130 -112 -38 26 60 343>
AnchorPoint: "abvmark" 180 500 basechar 0
LayerCount: 2
Back
SplineSet
300 -75 m 25
 160 -75 l 1049
240 80 m 9
 160 0 l 25
 80 80 l 25
 80 320 l 25
 160 400 l 1
 160 400 180 368 200 368 c 24
 220 368 240 400 240 400 c 9
 240 -150 l 1049
EndSplineSet
Fore
SplineSet
203 60 m 1xcc
 203 343 l 1
 196 337 188 331 180 331 c 0
 171 331 162 338 155 345 c 0
 138 361 l 1
 117 340 l 1
 117 100 l 1
 180 37 l 1
 203 60 l 1xcc
203 26 m 1
 140 -37 l 1
 43 60 l 1
 43 300 l 1
 180 437 l 1
 197 420 l 1
 197 420 199 415 203 411 c 0
 209 407 214 405 220 405 c 0
 224 405 228 407 231 408 c 2
 260 437 l 1xec
 277 420 l 1
 277 -38 l 1
 320 -38 l 1
 337 -55 l 1
 280 -112 l 1
 277 -112 l 1
 277 -130 l 1
 220 -187 l 1
 203 -170 l 1
 203 -112 l 1
 140 -112 l 1
 123 -95 l 1
 180 -38 l 1
 203 -38 l 1
 203 26 l 1
EndSplineSet
EndChar
StartChar: qslash
Encoding: 42841 42841 872
Width: 320
Flags: W
HStem: -187 21G<103 140 203 240> 417 20G<160 197 240 277> 417 20G<160 197 240 277>
VStem: 43 74<100 300> 203 74<-130 -104 -70 -30 4 26 60 343>
AnchorPoint: "abvmark" 180 500 basechar 0
LayerCount: 2
Back
SplineSet
240 80 m 9
 160 0 l 25
 80 80 l 25
 80 320 l 25
 160 400 l 1
 160 400 180 368 200 368 c 24
 220 368 240 400 240 400 c 9
 240 -150 l 1049
300 10 m 25
 140 -150 l 1049
EndSplineSet
Fore
SplineSet
320 47 m 1xd8
 337 30 l 1
 277 -30 l 1
 277 -130 l 1
 220 -187 l 1
 203 -170 l 1
 203 -104 l 1
 120 -187 l 1
 103 -170 l 1
 203 -70 l 1
 203 26 l 1
 140 -37 l 1
 43 60 l 1
 43 300 l 1
 180 437 l 1
 197 420 l 1
 197 420 199 415 203 411 c 0
 209 407 214 405 220 405 c 0
 224 405 228 407 231 408 c 2
 260 437 l 1
 277 420 l 1
 277 4 l 1
 320 47 l 1xd8
203 60 m 1
 203 343 l 1
 196 337 188 331 180 331 c 0
 171 331 162 338 155 345 c 0
 138 361 l 1
 117 340 l 1
 117 100 l 1
 180 37 l 1
 203 60 l 1
EndSplineSet
EndChar
StartChar: rrotunda
Encoding: 42843 42843 96
Width: 240
Flags: W
HStem: 417 20G<80 117> 417 20G<80 117>
VStem: 3 234
AnchorPoint: "blwmark" 120 0 basechar 0
AnchorPoint: "abvmark" 120 500 basechar 0
LayerCount: 2
Back
SplineSet
200 40 m 25
 160 0 l 1
 80 220 l 25
 160 300 l 1
 80 400 l 1
 40 360 l 1049
EndSplineSet
Fore
SplineSet
220 77 m 1xa0
 237 60 l 1
 140 -37 l 1
 123 -20 l 1
 43 200 l 1
 123 280 l 1
 58 361 l 1
 20 323 l 1
 3 340 l 1
 100 437 l 1
 117 420 l 1
 197 320 l 1
 117 240 l 1
 188 45 l 1
 220 77 l 1xa0
EndSplineSet
EndChar
StartChar: rumrotunda
Encoding: 42845 42845 705
Width: 400
Flags: W
HStem: -187 21G<123 160> -37 74<276.5 324.713> 417 20G<80 117> 417 20G<80 117>
VStem: 243 74<58.2001 174>
LayerCount: 2
Back
SplineSet
240 225 m 1
 280 200 l 1
 280 200 280 139 280 100 c 27
 280 3 160 -150 160 -150 c 1025
360 50 m 17
 360 50 345 0 300 0 c 3
 225 0 200 40 200 40 c 9
 160 0 l 1
 80 220 l 25
 160 300 l 1
 80 400 l 1
 40 360 l 1049
EndSplineSet
Fore
SplineSet
380 87 m 1xe8
 397 70 l 1
 397 70 392 52 377 37 c 2
 320 -20 l 2
 311 -29 298 -37 280 -37 c 0
 273 -37 266 -37 260 -36 c 1
 229 -89 197 -130 197 -130 c 2
 140 -187 l 1
 123 -170 l 1
 123 -170 178 -99 214 -23 c 1
 201 -17 192 -10 187 -5 c 2
 180 3 l 1
 140 -37 l 1
 123 -20 l 1
 43 200 l 1
 123 280 l 1
 58 361 l 1
 20 323 l 1
 3 340 l 1
 100 437 l 1
 117 420 l 1
 197 320 l 1
 117 240 l 1
 188 45 l 1
 220 77 l 1
 236 61 l 2
 238 60 239 58 241 57 c 1
 242 65 243 73 243 80 c 2
 243 174 l 1
 220 188 l 1
 203 205 l 1
 260 262 l 1
 300 237 l 1
 317 220 l 1
 317 120 l 2
 317 95 309 67 297 38 c 1
 304 37 312 37 320 37 c 0
 324 37 326 37 331 38 c 2
 380 87 l 1xe8
EndSplineSet
EndChar
StartChar: vslash
Encoding: 42847 42847 873
Width: 320
Flags: W
HStem: 417 20G<65 100> 417 20G<65 100 260 281>
VStem: 43 74<65.1574 156 190 230 264 365> 163 74<424.02 504.707> 203 74<100 316 347 390.117>
LayerCount: 2
Back
SplineSet
95 370 m 25
 65 400 l 1049
80 385 m 25
 80 80 l 1
 160 0 l 25
 240 80 l 1
 240 380 l 17
 250 361 200 423 200 472 c 8
 200 509.5 243.5 550 244 550 c 1033
180 310 m 25
 20 150 l 1049
EndSplineSet
Fore
SplineSet
43 156 m 1xa8
 0 113 l 1
 -17 130 l 1
 43 190 l 1
 43 365 l 1
 28 380 l 1
 85 437 l 1
 100 422 l 1
 117 405 l 1
 132 390 l 1
 117 375 l 1
 117 264 l 1
 200 347 l 1
 203 343 l 1
 203 357 l 1
 203 358 l 2xa8
 195 366 163 413 163 452 c 0xb0
 163 483 192 515 203 526 c 2xa8
 260 583 l 2
 264 587 l 2
 281 570 l 1
 271 560 l 2
 259 546 237 519 237 492 c 0xb0
 237 462 256 427 268 409 c 1
 277 400 l 2
 278 398 278 396 278 396 c 0
 277 395 278 396 277 395 c 2
 277 100 l 1
 140 -37 l 1
 43 60 l 1
 43 156 l 1xa8
203 316 m 1
 117 230 l 1
 117 100 l 2
 117 66 162 55 180 37 c 1
 203 60 l 1
 203 316 l 1
EndSplineSet
EndChar
StartChar: y_y
Encoding: 42849 42849 834
Width: 480
Flags: W
HStem: -237 74<251.861 358.75> -187 74<78 189.002> 417 20G<65 100 225 260 385 420> 417 20G<65 100 225 260 385 420>
VStem: 43 74<100 365> 203 74<100 365> 363 74<-157.356 26 60 365>
CounterMasks: 1 0e
AnchorPoint: "abvmark" 240 500 basechar 0
LayerCount: 2
Back
SplineSet
255 370 m 25
 225 400 l 1049
415 370 m 25
 385 400 l 1049
40 -200 m 17
 40 -200 70 -150 100 -150 c 8
 196 -150 244 -200 340 -200 c 24
 370 -200 400 -150 400 -150 c 1
 400 385 l 1025
400 80 m 9
 320 0 l 25
 240 80 l 1
 240 385 l 1049
95 370 m 25
 65 400 l 1049
240 80 m 9
 160 0 l 25
 80 80 l 1
 80 385 l 1049
EndSplineSet
Fore
SplineSet
20 -237 m 1x8e
 3 -220 l 1
 3 -220 13 -204 27 -190 c 2
 83 -133 l 2
 84 -132 l 0
 95 -121 107 -113 120 -113 c 0x4e
 216 -113 264 -163 360 -163 c 0
 363 -163 l 1
 363 26 l 1
 300 -37 l 1
 220 43 l 1
 140 -37 l 1
 43 60 l 1
 43 365 l 1
 28 380 l 1
 85 437 l 1
 100 422 l 1
 117 405 l 1
 132 390 l 1
 117 375 l 1
 117 100 l 1
 180 37 l 1
 203 60 l 1
 203 365 l 1
 188 380 l 1
 245 437 l 1
 260 422 l 1
 277 405 l 1
 292 390 l 1
 277 375 l 1
 277 100 l 1
 340 37 l 1
 363 60 l 1
 363 365 l 1
 348 380 l 1
 405 437 l 1
 420 422 l 1
 437 405 l 1
 452 390 l 1
 437 375 l 1
 437 100 l 1
 437 -130 l 1
 437 -130 427 -146 413 -160 c 2
 357 -217 l 2
 346 -228 333 -237 320 -237 c 0xae
 224 -237 176 -187 80 -187 c 0x4e
 76 -187 72 -188 67 -190 c 2
 20 -237 l 1x8e
EndSplineSet
LCarets2: 1 240 
Ligature2: "Historic ligatures-1" y y
EndChar
StartChar: thornbarbelow
Encoding: 42855 42855 875
Width: 320
Flags: W
HStem: -187 21G<43 80> -112 74<40 43 117 140> 417 20G<160 200> 417 20G<160 200>
VStem: 43 74<-130 -112 -38 36 137 340 374 590> 203 74<81 300>
AnchorPoint: "abvmark" 160 700 basechar 0
LayerCount: 2
Back
SplineSet
160 -75 m 25
 20 -75 l 1049
80 320 m 25
 160 400 l 1
 240 320 l 1
 240 40 l 1
 200 0 l 1
 200 0 165 100 100 100 c 0
 77 100 40 50 40 50 c 1025
65 625 m 25
 95 595 l 1049
80 610 m 1
 80 -150 l 1025
EndSplineSet
Fore
SplineSet
28 605 m 1xec
 85 662 l 1
 100 647 l 1
 117 630 l 1
 132 615 l 1
 117 600 l 1
 117 374 l 1
 180 437 l 1
 277 340 l 1
 277 60 l 1
 180 -37 l 1
 163 -20 l 1
 163 -20 150 17 126 45 c 0
 123 48 120 50 117 52 c 2
 117 -38 l 1
 180 -38 l 1
 197 -55 l 1
 140 -112 l 1
 117 -112 l 1
 117 -130 l 1
 60 -187 l 1
 43 -170 l 1
 43 -112 l 1
 0 -112 l 1
 -17 -95 l 1
 40 -38 l 1
 43 -38 l 1
 43 36 l 1
 20 13 l 1
 3 30 l 1
 3 30 14 44 27 57 c 2
 43 74 l 1
 43 300 l 1
 43 590 l 1
 28 605 l 1xec
117 340 m 1
 117 137 l 2
 118 137 119 137 120 137 c 0
 142 137 160 126 175 111 c 2
 191 94 l 2
 195 90 199 86 203 81 c 2
 203 300 l 1
 140 363 l 1
 117 340 l 1
EndSplineSet
EndChar
StartChar: con
Encoding: 42863 42863 890
Width: 320
Flags: W
HStem: -187 21G<163 200> 417 20G<160 200> 417 20G<160 200>
VStem: 43 74<65.1574 300> 203 74<-90 334.843>
LayerCount: 2
Back
SplineSet
200 -150 m 25
 240 -110 l 1
 240 320 l 9
 160 400 l 1
 80 320 l 25
 80 80 l 25
 160 0 l 1049
EndSplineSet
Fore
SplineSet
180 -187 m 1xd8
 163 -170 l 1
 203 -130 l 1
 203 300 l 2
 203 334 158 345 140 363 c 1
 117 340 l 1
 117 100 l 2
 117 66 162 55 180 37 c 2
 197 20 l 1
 140 -37 l 1
 43 60 l 1
 43 300 l 1
 180 437 l 1
 277 340 l 1
 277 -90 l 1
 180 -187 l 1xd8
EndSplineSet
EndChar
StartChar: mum
Encoding: 42867 42867 587
Width: 659
Flags: W
HStem: -187 21G<383 420> -37 74<536.5 584.713> 417 20G<65 100 180 220 340 380> 417 20G<65 100 180 220 340 380>
VStem: 43 74<35 320 354 365> 203 74<35 320> 363 74<39 348.522> 503 74<56.8668 174>
LayerCount: 2
Back
SplineSet
400 15 m 1
 400 340 l 25
 340 400 l 1
 240 300 l 1041
225 30 m 9
 255 0 l 1041
240 15 m 1
 240 340 l 25
 180 400 l 1
 80 300 l 1041
65 30 m 9
 95 0 l 1041
95 370 m 9
 65 400 l 1041
80 385 m 9
 80 15 l 1025
500 225 m 1
 540 200 l 1
 540 200 540 139 540 100 c 27
 540 3 420 -150 420 -150 c 1025
620 50 m 17
 620 50 605 0 560 0 c 3
 485 0 455 40 455 40 c 9
 415 0 l 25
 385 30 l 1025
EndSplineSet
Fore
SplineSet
640 87 m 1xef
 657 70 l 1
 657 70 652 52 637 37 c 2
 580 -20 l 2
 571 -29 558 -37 540 -37 c 0
 533 -37 526 -37 520 -36 c 1
 489 -89 457 -130 457 -130 c 2
 400 -187 l 1
 383 -170 l 1
 383 -170 438 -99 474 -24 c 1
 456 -16 444 -6 439 -1 c 2
 435 3 l 1
 395 -37 l 1
 380 -22 l 1
 363 -5 l 1
 348 10 l 1
 363 25 l 1
 363 320 l 2
 363 343 332 351 320 363 c 1
 277 320 l 1
 277 35 l 1
 292 20 l 1
 235 -37 l 1
 220 -22 l 1
 203 -5 l 1
 188 10 l 1
 203 25 l 1
 203 280 l 1
 203 320 l 2
 203 343 172 351 160 363 c 1
 117 320 l 1
 117 35 l 1
 132 20 l 1
 75 -37 l 1
 60 -22 l 1
 43 -5 l 1
 28 10 l 1
 43 25 l 1
 43 280 l 1
 43 365 l 1
 28 380 l 1
 85 437 l 1
 100 422 l 1
 117 405 l 1
 132 390 l 1
 117 375 l 1
 117 354 l 1
 200 437 l 1
 277 360 l 1
 277 354 l 1
 360 437 l 1
 437 360 l 1
 437 39 l 1
 475 77 l 1
 484 67 l 2
 488 64 494 60 501 56 c 1
 502 64 503 72 503 80 c 2
 503 174 l 1
 480 188 l 1
 463 205 l 1
 520 262 l 1
 560 237 l 1
 577 220 l 1
 577 120 l 2
 577 95 569 67 557 38 c 1
 564 37 572 37 580 37 c 0
 584 37 586 37 591 38 c 2
 640 87 l 1xef
EndSplineSet
EndChar
StartChar: rum
Encoding: 42869 42869 704
Width: 360
Flags: W
HStem: -187 21G<83 101> 417 20G<65 100 160 197 320 357> 417 20G<65 100 160 197 200 252 320 357>
VStem: 43 74<35 340> 203 74<75.9346 325.99 411 474>
LayerCount: 2
Back
SplineSet
200 525 m 1
 240 500 l 1
 240 500 240 406 240 250 c 3
 240 -37 120 -150 120 -150 c 1025
320 400 m 17
 320 400 305 350 260 350 c 3
 185 350 160 400 160 400 c 9
 80 320 l 1025
65 30 m 25
 95 0 l 1049
65 400 m 25
 95 370 l 1049
80 385 m 9
 80 15 l 1025
EndSplineSet
Fore
SplineSet
28 380 m 1xd8
 85 437 l 1
 100 422 l 1
 117 405 l 1
 132 390 l 1
 117 375 l 1
 117 374 l 1
 180 437 l 1
 197 420 l 2
 197 420 199 416 203 411 c 0
 203 474 l 1
 180 488 l 1
 163 505 l 1
 220 562 l 1
 260 537 l 1
 277 520 l 1
 277 387 l 2
 278 387 279 387 280 387 c 0
 284 387 286 387 291 388 c 2
 340 437 l 1
 357 420 l 1
 357 420 352 402 337 387 c 2
 280 330 l 2
 279 329 278 328 277 327 c 2
 277 270 l 2
 277 -4 168 -119 158 -129 c 2
 101 -186 l 1
 100 -187 l 2
 83 -170 l 1
 85 -168 l 2
 99 -153 203 -37 203 230 c 2
 203 318 l 1
 179 324 164 336 154 346 c 2
 138 361 l 1
 117 340 l 1
 117 35 l 1
 132 20 l 1
 75 -37 l 1
 60 -22 l 1
 43 -5 l 1
 28 10 l 1
 43 25 l 1
 43 300 l 1
 43 365 l 1
 28 380 l 1xd8
EndSplineSet
EndChar
StartChar: tum
Encoding: 42871 42871 728
Width: 480
Flags: W
HStem: -187 21G<203 221> 313 74<138.934 323> 417 20G<40 63 443 477> 417 20G<40 63 100 137 320 372 443 477>
VStem: 63 74<37.972 326 437 530> 323 74<75.9346 318 398 474>
LayerCount: 2
Back
SplineSet
40 400 m 1049,0,0
100 550 m 1,0,0
 100 40 l 1,0,0
 140 0 l 1,0,0
 220 80 l 1025,0,0
320 525 m 1,0,0
 360 500 l 1,0,0
 360 500 360 406 360 250 c 3,0,0
 360 -37 240 -150 240 -150 c 1025,0,0
440 400 m 1,0,0
 440 400 414 350 280 350 c 3,0,0
 138 350 40 400 40 400 c 1025,0,0
EndSplineSet
Fore
SplineSet
460 437 m 1xec
 477 420 l 1
 477 420 475 416 470 411 c 2
 413 355 l 2
 409 351 405 347 397 342 c 1
 397 270 l 2
 397 -4 288 -119 278 -129 c 2
 221 -186 l 1
 220 -187 l 2
 203 -170 l 1
 205 -168 l 2
 219 -153 323 -37 323 230 c 2
 323 318 l 1
 305 315 284 313 260 313 c 0
 214 313 172 319 137 326 c 1
 137 60 l 2
 137 49 153 44 160 37 c 1
 240 117 l 1
 257 100 l 1
 120 -37 l 1
 63 20 l 1
 63 346 l 1
 35 356 20 363 20 363 c 2
 3 380 l 1
 60 437 l 1
 60 437 61 436 63 435 c 2
 63 530 l 1
 120 587 l 1
 137 570 l 1
 137 409 l 1
 178 398 235 387 300 387 c 0
 308 387 316 387 323 387 c 1
 323 474 l 1
 300 488 l 1
 283 505 l 1
 340 562 l 1
 380 537 l 1
 397 520 l 1
 397 398 l 1
 418 404 433 412 443 419 c 2
 460 437 l 1xec
EndSplineSet
EndChar
StartChar: thorn_longs
Encoding: 59188 59188 884
Width: 320
Flags: W
HStem: -187 74<-62 -13.5> 417 20G<160 200> 417 20G<160 200> 573 74<217.428 262.096>
VStem: 63 74<-157.356 -33 56.6761 283 320 360 394 550> 203 74<100 334.843>
LayerCount: 2
Back
SplineSet
-100 -200 m 17
 -100 -200 -70 -150 -40 -150 c 8
 -3 -150 3 -200 40 -200 c 24
 70 -200 100 -150 100 -150 c 1
 100 570 l 1
 180 650 l 17
 180 650 212 610 240 610 c 24
 268 610 300 650 301 650 c 1033
40 0 m 1
 40 0 77 40 100 40 c 0
 123 40 160 0 160 0 c 9
 240 80 l 1
 240 320 l 25
 160 400 l 1
 80 320 l 1049
EndSplineSet
Fore
SplineSet
20 -37 m 1xdc
 3 -20 l 1
 3 -20 5 -18 8 -15 c 2
 63 40 l 1
 63 286 l 1
 60 283 l 1
 43 300 l 1
 63 320 l 1
 63 550 l 1
 200 687 l 1
 217 670 l 1
 217 670 217 669 219 667 c 0
 231 657 246 647 260 647 c 0
 275 647 292 659 303 669 c 2
 320 686 l 2
 321 687 l 2
 338 670 l 1
 335 667 l 2
 333 665 331 663 328 660 c 2
 328 659 l 2
 271 603 l 2
 259 591 239 573 220 573 c 0
 202 573 184 589 172 601 c 0
 171 601 l 2
 160 613 l 1
 137 590 l 1
 137 394 l 1
 180 437 l 1
 277 340 l 1
 277 100 l 1
 140 -37 l 1
 137 -33 l 1
 137 -130 l 1
 137 -130 127 -146 113 -160 c 2
 57 -217 l 2
 46 -228 33 -237 20 -237 c 0
 7 -237 -2 -231 -10 -223 c 2
 -27 -206 l 2
 -31 -202 -34 -198 -37 -194 c 0
 -43 -190 -51 -187 -60 -187 c 0
 -64 -187 -68 -188 -73 -190 c 2
 -120 -237 l 1
 -137 -220 l 1
 -137 -220 -127 -204 -113 -190 c 2
 -57 -133 l 2
 -56 -132 l 0
 -45 -121 -33 -113 -20 -113 c 0
 -7 -113 2 -119 10 -127 c 2
 27 -144 l 2
 27 -145 l 0
 30 -148 34 -153 37 -156 c 0
 43 -161 51 -163 60 -163 c 0
 63 -163 l 1
 63 -2 l 1
 51 -8 38 -20 29 -28 c 2
 20 -37 l 1xdc
137 72 m 1
 152 64 169 48 176 41 c 2
 180 37 l 1
 203 60 l 1
 203 300 l 2
 203 334 158 345 140 363 c 1
 137 360 l 1
 137 72 l 1
EndSplineSet
LCarets2: 1 160 
Ligature2: "Historic ligatures-1" thorn longs
EndChar
StartChar: g_r
Encoding: 60112 60112 502
Width: 400
Flags: W
HStem: -187 74<78 126.5> 417 20G<160 197 240 277 320 360> 417 20G<160 197 240 277 320 360>
VStem: 43 74<65.1574 300> 203 74<-157.356 26 60 340>
LayerCount: 2
Back
SplineSet
360 360 m 25
 320 400 l 25
 240 320 l 1049
40 -200 m 17
 40 -200 70 -150 100 -150 c 8
 137 -150 143 -200 180 -200 c 24
 210 -200 240 -150 240 -150 c 9
 240 400 l 1
 240 400 220 368 200 368 c 24
 180 368 160 400 160 400 c 1
 80 320 l 25
 80 80 l 25
 160 0 l 25
 240 80 l 1041
EndSplineSet
Fore
SplineSet
203 343 m 1x98
 196 337 188 331 180 331 c 0
 171 331 162 338 155 345 c 2
 138 361 l 1
 117 340 l 1
 117 100 l 2
 117 66 162 55 180 37 c 1
 203 60 l 1
 203 300 l 1
 203 343 l 1x98
203 26 m 1
 140 -37 l 1
 43 60 l 1
 43 300 l 1
 180 437 l 1
 197 420 l 1
 197 420 199 416 203 411 c 0
 208 407 214 405 220 405 c 0
 224 405 227 406 231 408 c 2
 260 437 l 1
 277 420 l 1
 277 374 l 1
 340 437 l 1xd8
 397 380 l 1
 340 323 l 1
 300 363 l 1
 277 340 l 1
 277 -130 l 1
 277 -130 267 -146 253 -160 c 2
 197 -217 l 2
 186 -228 173 -237 160 -237 c 0
 147 -237 138 -231 130 -223 c 2
 113 -206 l 2
 109 -202 106 -198 103 -194 c 0
 97 -190 89 -187 80 -187 c 0
 76 -187 72 -188 67 -190 c 2
 20 -237 l 1
 3 -220 l 1
 3 -220 13 -204 27 -190 c 2
 83 -133 l 2
 84 -132 l 0
 95 -121 107 -113 120 -113 c 0
 133 -113 142 -119 150 -127 c 2
 167 -144 l 2
 167 -145 l 0
 170 -148 174 -153 177 -156 c 0
 183 -161 191 -163 200 -163 c 0
 203 -163 l 1
 203 26 l 1
EndSplineSet
LCarets2: 1 240 
Ligature2: "Historic ligatures-1" g r
EndChar
StartChar: q_v
Encoding: 60113 60113 967
Width: 480
Flags: W
HStem: -187 21G<203 240> 417 20G<160 197 240 277> 417 20G<160 197 240 277 423 441>
VStem: 43 74<100 300> 203 74<-130 -13 100 343> 323 74<424.924 502.963> 363 74<100 390.86>
LayerCount: 2
Back
SplineSet
240 80 m 9
 160 0 l 25
 80 80 l 25
 80 320 l 25
 160 400 l 1
 160 400 180 368 200 368 c 24
 220 368 240 400 240 400 c 9
 240 -150 l 1049
240 80 m 1
 320 0 l 25
 400 80 l 1
 400 380 l 17
 400 380 360 423 360 472 c 8
 360 507 404 550 404 550 c 1033
EndSplineSet
Fore
SplineSet
203 26 m 1xda
 140 -37 l 1
 43 60 l 1
 43 300 l 1
 180 437 l 1
 197 420 l 1
 197 420 199 415 203 411 c 0
 209 407 214 405 220 405 c 0
 224 405 228 407 231 408 c 2
 260 437 l 1
 277 420 l 1
 277 100 l 1
 340 37 l 1
 363 60 l 1
 363 360 l 1xda
 363 360 323 403 323 452 c 0
 323 485 363 526 367 530 c 2
 423 586 l 2
 424 587 l 1
 441 570 l 1
 434 562 397 524 397 492 c 0xdc
 397 443 437 400 437 400 c 1
 437 100 l 1
 300 -37 l 1
 277 -13 l 1
 277 -130 l 1
 220 -187 l 1
 203 -170 l 1
 203 26 l 1xda
203 60 m 1
 203 343 l 1
 196 337 188 331 180 331 c 0
 171 331 162 338 155 345 c 0
 138 361 l 1
 117 340 l 1
 117 100 l 1
 180 37 l 1
 203 60 l 1
EndSplineSet
LCarets2: 1 240 
Ligature2: "Ligatures-1" q v
EndChar
StartChar: g_p
Encoding: 60114 60114 501
Width: 480
Flags: W
HStem: -187 74<78 126.5> 417 20G<160 197 240 277 320 360> 417 20G<160 197 240 277 320 360>
VStem: 43 74<100 300> 203 74<-130 -15 80 340> 363 74<100 334.843>
CounterMasks: 1 1c
LayerCount: 2
Back
SplineSet
200 0 m 1
 200 0 237 40 260 40 c 0
 283 40 320 0 320 0 c 9
 400 80 l 1
 400 320 l 25
 320 400 l 1
 240 320 l 1049
40 -200 m 17
 40 -200 70 -150 100 -150 c 8
 137 -150 143 -200 180 -200 c 24
 210 -200 240 -150 240 -150 c 9
 240 400 l 1
 240 400 220 368 200 368 c 24
 180 368 160 400 160 400 c 1
 80 320 l 25
 80 80 l 25
 140 0 l 1
 240 100 l 1049
240 -150 m 9
 280 -200 l 1025
EndSplineSet
Fore
SplineSet
203 343 m 1x9c
 196 337 188 331 180 331 c 0
 171 331 162 338 155 345 c 2
 138 361 l 1
 117 340 l 1
 117 100 l 1
 162 39 l 1
 203 80 l 1
 203 300 l 1
 203 343 l 1x9c
203 46 m 1
 120 -37 l 1
 103 -20 l 1
 43 60 l 1
 43 300 l 1
 180 437 l 1
 197 420 l 1
 197 420 199 416 203 411 c 0
 208 407 214 405 220 405 c 0
 224 405 227 406 231 408 c 2
 260 437 l 1
 277 420 l 1
 277 374 l 1
 340 437 l 1xdc
 437 340 l 1
 437 100 l 1
 300 -37 l 1
 291 -28 l 2
 287 -24 282 -19 277 -15 c 1
 277 -130 l 1
 317 -180 l 1
 260 -237 l 1
 243 -220 l 1
 221 -192 l 1
 197 -217 l 2
 186 -228 173 -237 160 -237 c 0
 147 -237 138 -231 130 -223 c 2
 113 -206 l 2
 109 -202 106 -198 103 -194 c 0
 97 -190 89 -187 80 -187 c 0
 76 -187 72 -188 67 -190 c 2
 20 -237 l 1
 3 -220 l 1
 3 -220 13 -204 27 -190 c 2
 83 -133 l 2
 84 -132 l 0
 95 -121 107 -113 120 -113 c 0
 133 -113 142 -119 150 -127 c 2
 167 -144 l 2
 167 -145 l 0
 170 -148 174 -153 177 -156 c 0
 183 -161 191 -163 200 -163 c 0
 203 -163 l 1
 203 -15 l 1
 198 -19 193 -24 189 -28 c 2
 180 -37 l 1
 163 -20 l 1
 163 -20 165 -18 168 -15 c 2
 203 20 l 1
 203 46 l 1
277 340 m 1
 277 77 l 2
 278 77 279 77 280 77 c 0
 298 77 326 51 336 41 c 2
 340 37 l 1
 363 60 l 1
 363 300 l 2
 363 334 318 345 300 363 c 1
 277 340 l 1
EndSplineSet
LCarets2: 1 240 
Ligature2: "Historic ligatures-1" g p
EndChar
StartChar: longs_longs_l
Encoding: 60328 60328 332
Width: 520
GlyphClass: 3
Flags: W
HStem: -237 74<37.2827 58.8125 174.774 214.728> -187 74<-62 -13.5> 588 74<366.385 403>
VStem: 63 74<-130.516 550> 223 74<-154.782 556.922> 403 74<39 588>
LayerCount: 2
Back
SplineSet
100 -150 m 1
 125 -150 174 -200 200 -200 c 0
 222 -200 260 -150 260 -150 c 1
 260 570 l 1
 340 650 l 17
 340 650 389 625 425 625 c 1
 455 595 l 1025
-100 -200 m 17
 -100 -200 -70 -150 -40 -150 c 8
 -3 -150 3 -200 40 -200 c 24
 70 -200 100 -150 100 -150 c 1
 100 570 l 1
 180 650 l 1
 180 650 225 570 260 570 c 1025
425 30 m 25
 455 0 l 25
 485 30 l 1049
440 610 m 9
 440 15 l 1049
EndSplineSet
Fore
SplineSet
-120 -237 m 1xbc
 -137 -220 l 1
 -137 -220 -127 -204 -113 -190 c 2
 -57 -133 l 2
 -56 -132 l 0
 -45 -121 -33 -113 -20 -113 c 0x7c
 -7 -113 2 -119 10 -127 c 2
 27 -144 l 2
 27 -145 l 0
 30 -148 34 -153 37 -156 c 0
 43 -161 51 -163 60 -163 c 0
 63 -163 l 1
 63 550 l 1
 200 687 l 1
 217 670 l 1
 217 670 233 642 252 620 c 0
 262 612 271 607 280 607 c 1
 360 687 l 1
 360 687 409 662 445 662 c 1
 460 647 l 1
 477 630 l 1
 492 615 l 1
 477 600 l 1
 477 39 l 1
 505 67 l 1
 522 50 l 1
 435 -37 l 1
 420 -22 l 1
 403 -5 l 1
 388 10 l 1
 403 25 l 1
 403 588 l 1
 367 589 320 613 320 613 c 1
 297 590 l 1
 297 -130 l 2
 297 -130 287 -143 274 -156 c 2
 273 -157 l 2
 217 -213 l 2
 205 -225 191 -237 180 -237 c 0
 156 -237 112 -194 86 -188 c 1
 57 -217 l 2
 46 -228 33 -237 20 -237 c 0xbc
 7 -237 -2 -231 -10 -223 c 2
 -27 -206 l 2
 -31 -202 -34 -198 -37 -194 c 0
 -43 -190 -51 -187 -60 -187 c 0x7c
 -64 -187 -68 -188 -73 -190 c 2
 -120 -237 l 1xbc
223 539 m 1
 217 543 210 548 204 554 c 2
 187 571 l 2
 175 583 164 597 156 609 c 1
 137 590 l 1
 137 -118 l 1
 163 -131 199 -163 220 -163 c 0
 221 -163 222 -163 223 -163 c 2xbc
 223 539 l 1
EndSplineSet
LCarets2: 2 240 400 
Ligature2: "Ligatures-1" longs longs l
EndChar
StartChar: longs_t_r
Encoding: 60330 60330 713
Width: 560
Flags: W
HStem: -187 74<-62 -13.5> 363 74<220 223 297 363> 417 20G<480 520>
VStem: 63 74<-157.356 550> 223 74<37.972 363 437 540.75> 363 74<35 46 80 340>
LayerCount: 2
Back
SplineSet
520 360 m 25
 480 400 l 25
 400 320 l 1049
385 30 m 25
 415 0 l 1049
400 385 m 9
 400 15 l 1025
-100 -200 m 1
 -100 -200 -70 -150 -40 -150 c 8
 -3 -150 3 -200 40 -200 c 24
 70 -200 100 -150 100 -150 c 1
 100 570 l 1
 180 650 l 1
 180 650 225 550 260 550 c 1
 260 40 l 1
 300 0 l 1
 380 80 l 1025
200 400 m 1
 385 400 l 25
 415 370 l 1025
EndSplineSet
Fore
SplineSet
163 380 m 1xdc
 220 437 l 1
 223 437 l 1
 223 520 l 2
 220 522 217 525 214 528 c 2
 197 545 l 2
 181 561 164 589 154 608 c 1
 137 590 l 1
 137 -130 l 1
 137 -130 127 -146 113 -160 c 2
 57 -217 l 2
 46 -228 33 -237 20 -237 c 0
 7 -237 -2 -231 -10 -223 c 2
 -27 -206 l 2
 -31 -202 -34 -198 -37 -194 c 0
 -43 -190 -51 -187 -60 -187 c 0
 -64 -187 -68 -188 -73 -190 c 2
 -120 -237 l 1
 -137 -220 l 1
 -137 -220 -127 -204 -113 -190 c 2
 -57 -133 l 2
 -56 -132 l 0
 -45 -121 -33 -113 -20 -113 c 0
 -7 -113 2 -119 10 -127 c 2
 27 -144 l 2
 27 -145 l 0
 30 -148 34 -153 37 -156 c 0
 43 -161 51 -163 60 -163 c 0
 63 -163 l 1
 63 550 l 1
 200 687 l 1
 217 670 l 1
 217 670 238 623 262 594 c 0
 268 589 274 587 280 587 c 1
 297 570 l 1
 297 437 l 1xdc
 405 437 l 1
 420 422 l 1
 437 405 l 1
 452 390 l 1
 437 375 l 1
 437 374 l 1
 500 437 l 1xbc
 557 380 l 1
 500 323 l 1
 460 363 l 1
 437 340 l 1
 437 35 l 1
 452 20 l 1
 395 -37 l 1
 380 -22 l 1
 363 -5 l 1
 348 10 l 1
 363 25 l 1
 363 46 l 1
 280 -37 l 1
 223 20 l 1
 223 363 l 1
 180 363 l 1
 163 380 l 1xdc
297 363 m 1
 297 60 l 2
 297 49 313 44 320 37 c 1
 363 80 l 1
 363 300 l 1
 363 363 l 1
 297 363 l 1
EndSplineSet
LCarets2: 2 240 400 
Ligature2: "Ligatures-1" longs t r
EndChar
StartChar: b_g
Encoding: 61123 61123 350
Width: 320
GlyphClass: 3
Flags: W
HStem: -187 74<78 126.5> 417 20G<160 200> 417 20G<160 200>
VStem: 43 74<65.1574 340 374 590> 203 74<-157.356 26 60 334.843>
LayerCount: 2
Back
SplineSet
80 610 m 9
 80 80 l 25
 160 0 l 1
 240 80 l 25
 240 320 l 1
 160 400 l 1
 80 320 l 1049
40 -200 m 17
 40 -200 70 -150 100 -150 c 8
 137 -150 143 -200 180 -200 c 24
 210 -200 240 -150 240 -150 c 1
 240 80 l 1033
65 625 m 25
 95 595 l 1049
EndSplineSet
Fore
SplineSet
28 605 m 1xd8
 85 662 l 1
 100 647 l 1
 117 630 l 1
 132 615 l 1
 117 600 l 1
 117 374 l 1
 180 437 l 1
 277 340 l 1
 277 100 l 1
 277 -130 l 1
 277 -130 267 -146 253 -160 c 2
 197 -217 l 2
 186 -228 173 -237 160 -237 c 0
 147 -237 138 -231 130 -223 c 2
 113 -206 l 2
 109 -202 106 -198 103 -194 c 0
 97 -190 89 -187 80 -187 c 0
 76 -187 72 -188 67 -190 c 2
 20 -237 l 1
 3 -220 l 1
 3 -220 13 -204 27 -190 c 2
 83 -133 l 2
 84 -132 l 0
 95 -121 107 -113 120 -113 c 0
 133 -113 142 -119 150 -127 c 2
 167 -144 l 2
 167 -145 l 0
 170 -148 174 -153 177 -156 c 0
 183 -161 191 -163 200 -163 c 0
 203 -163 l 1
 203 26 l 1
 140 -37 l 1
 43 60 l 1
 43 590 l 1
 28 605 l 1xd8
117 340 m 1
 117 100 l 2
 117 66 162 55 180 37 c 1
 203 60 l 1
 203 300 l 2
 203 334 158 345 140 363 c 1
 117 340 l 1
EndSplineSet
LCarets2: 1 160 
Ligature2: "Historic ligatures-1" b g
EndChar
StartChar: c_t
Encoding: 61125 61125 335
Width: 539
Flags: W
HStem: 313 74<229.342 343> 417 20G<160 244 492 517> 437 130G<160 244 380 417 492 517>
VStem: 43 74<100 280> 343 74<37.972 316 395 530>
LayerCount: 2
Back
SplineSet
240 80 m 9
 160 0 l 25
 80 80 l 25
 80 300 l 1
 160 400 l 17
 160 400 217 350 320 350 c 3
 442 350 480 400 480 400 c 1033
380 550 m 1
 380 40 l 1
 420 0 l 1
 500 80 l 1025
EndSplineSet
Fore
SplineSet
400 587 m 1xd8
 417 570 l 1
 417 395 l 1
 459 404 481 420 492 429 c 2
 500 437 l 1
 517 420 l 1
 517 420 516 418 514 416 c 2
 457 360 l 2
 452 355 439 344 417 334 c 1
 417 60 l 2
 417 49 433 44 440 37 c 1
 520 117 l 1
 537 100 l 1
 400 -37 l 1
 343 20 l 1
 343 316 l 1
 330 315 316 313 300 313 c 0
 218 313 165 345 147 358 c 1
 117 320 l 1
 117 100 l 1
 180 37 l 1
 260 117 l 1
 277 100 l 1
 140 -37 l 1
 43 60 l 1
 43 280 l 1
 123 380 l 1
 180 437 l 1
 180 437 237 387 340 387 c 0
 341 387 342 387 343 387 c 2
 343 530 l 1
 400 587 l 1xd8
EndSplineSet
LCarets2: 1 280 
Ligature2: "Ligatures-1" c t
EndChar
StartChar: f_j
Encoding: 61129 61129 322
Width: 360
GlyphClass: 3
Flags: W
HStem: -187 74<-62 -13.5> 363 74<60 63 137 243> 528 21G<248 285>
VStem: 63 74<-157.356 363 437 550> 243 74<-90 363>
LayerCount: 2
Back
SplineSet
280 385 m 1
 280 -110 l 9
 250 -140 l 1049
40 400 m 1
 265 400 l 25
 295 370 l 1025
-100 -200 m 1
 -100 -200 -70 -150 -40 -150 c 8
 -3 -150 3 -200 40 -200 c 24
 70 -200 100 -150 100 -150 c 1
 100 570 l 1
 180 650 l 1
 180 650 255 595 315 595 c 9
 285 565 l 1025
EndSplineSet
Fore
SplineSet
-120 -237 m 1
 -137 -220 l 1
 -137 -220 -127 -204 -113 -190 c 2
 -57 -133 l 2
 -56 -132 l 0
 -45 -121 -33 -113 -20 -113 c 0
 -7 -113 2 -119 10 -127 c 2
 27 -144 l 2
 27 -145 l 0
 30 -148 34 -153 37 -156 c 0
 43 -161 51 -163 60 -163 c 0
 63 -163 l 1
 63 363 l 1
 20 363 l 1
 3 380 l 1
 60 437 l 1
 63 437 l 1
 63 550 l 1
 200 687 l 1
 200 687 275 632 335 632 c 1
 352 615 l 1
 265 528 l 1
 248 545 l 1
 265 562 l 1
 213 574 160 613 160 613 c 1
 137 590 l 1
 137 437 l 1
 285 437 l 1
 300 422 l 1
 317 405 l 1
 332 390 l 1
 317 375 l 1
 317 -90 l 1
 230 -177 l 1
 213 -160 l 1
 243 -130 l 1
 243 363 l 1
 137 363 l 1
 137 -130 l 1
 137 -130 127 -146 113 -160 c 2
 57 -217 l 2
 46 -228 33 -237 20 -237 c 0
 7 -237 -2 -231 -10 -223 c 2
 -27 -206 l 2
 -31 -202 -34 -198 -37 -194 c 0
 -43 -190 -51 -187 -60 -187 c 0
 -64 -187 -68 -188 -73 -190 c 2
 -120 -237 l 1
EndSplineSet
LCarets2: 1 240 
Ligature2: "Ligatures-1" f j
EndChar
StartChar: f_y
Encoding: 61133 61133 353
Width: 520
GlyphClass: 3
Flags: W
HStem: -237 74<37.2827 58.75 362.719 396.891> -187 74<-62 -13.5 278 327> 363 74<60 63 137 243> 417 20G<425 460> 573 74<217.428 262.096>
VStem: 63 74<-157.356 363 437 550> 243 74<100 363> 403 74<-156.367 26 60 365>
LayerCount: 2
Back
SplineSet
455 370 m 25
 425 400 l 1049
240 -200 m 17
 240 -200 270 -150 300 -150 c 8
 330.5 -150 349 -200 380 -200 c 24
 406.5 -200 440 -150 440 -150 c 1
 440 385 l 1025
440 80 m 9
 360 0 l 25
 280 80 l 1
 280 385 l 1049
-100 -200 m 17
 -100 -200 -70 -150 -40 -150 c 8
 -3 -150 3 -200 40 -200 c 24
 70 -200 100 -150 100 -150 c 1
 100 570 l 1
 180 650 l 17
 180 650 212 610 240 610 c 24
 268 610 300 650 301 650 c 1033
40 400 m 1
 265 400 l 25
 295 370 l 1025
EndSplineSet
Fore
SplineSet
3 380 m 1xaf
 60 437 l 1
 63 437 l 1
 63 550 l 1
 200 687 l 1
 217 670 l 1
 217 670 217 669 219 667 c 0
 231 657 246 647 260 647 c 0
 275 647 292 659 303 669 c 2
 320 686 l 2
 321 687 l 2
 338 670 l 1
 335 667 l 2
 333 665 331 663 328 660 c 2
 328 659 l 2
 271 603 l 2
 259 591 239 573 220 573 c 0
 202 573 184 589 172 601 c 0
 171 601 l 2
 160 613 l 1
 137 590 l 1
 137 437 l 1xaf
 285 437 l 1
 300 422 l 1
 317 405 l 1
 332 390 l 1
 317 375 l 1
 317 100 l 1
 380 37 l 1
 403 60 l 1
 403 365 l 1
 388 380 l 1
 445 437 l 1
 460 422 l 1
 477 405 l 1
 492 390 l 1
 477 375 l 1
 477 100 l 1
 477 -130 l 1
 477 -130 467 -145 453 -159 c 2
 396 -216 l 2
 385 -227 372 -237 360 -237 c 0x9f
 346 -237 335 -227 324 -216 c 2
 312 -204 l 2
 302 -195 292 -187 280 -187 c 0x4f
 276 -187 272 -188 267 -190 c 2
 220 -237 l 1x8f
 203 -220 l 1
 203 -220 213 -204 227 -190 c 2
 283 -133 l 2
 284 -132 l 0
 295 -121 307 -113 320 -113 c 0x4f
 334 -113 344 -123 355 -134 c 2
 368 -146 l 2
 378 -155 388 -163 400 -163 c 0
 403 -163 l 2
 403 26 l 1
 340 -37 l 1
 243 60 l 1
 243 363 l 1
 137 363 l 1
 137 -130 l 1
 137 -130 127 -146 113 -160 c 2
 57 -217 l 2
 46 -228 33 -237 20 -237 c 0xaf
 7 -237 -2 -231 -10 -223 c 2
 -27 -206 l 2
 -31 -202 -34 -198 -37 -194 c 0
 -43 -190 -51 -187 -60 -187 c 0x4f
 -64 -187 -68 -188 -73 -190 c 2
 -120 -237 l 1x8f
 -137 -220 l 1
 -137 -220 -127 -204 -113 -190 c 2
 -57 -133 l 2
 -56 -132 l 0
 -45 -121 -33 -113 -20 -113 c 0x4f
 -7 -113 2 -119 10 -127 c 2
 27 -144 l 2
 27 -145 l 0
 30 -148 34 -153 37 -156 c 0
 43 -161 51 -163 60 -163 c 0
 63 -163 l 1
 63 363 l 1
 20 363 l 1
 3 380 l 1xaf
EndSplineSet
LCarets2: 1 240 
Ligature2: "Ligatures-1" f y
EndChar
StartChar: f_f_t
Encoding: 61134 61134 354
Width: 579
GlyphClass: 3
Flags: W
HStem: -237 74<37.2827 58.8125 174.774 214.728> -187 74<-62 -13.5> 363 74<60 63 137 223 297 383 457 500>
VStem: 63 74<-130.516 363 437 550> 223 74<-154.554 363 437 556.922> 383 74<60 363 437 540.75>
CounterMasks: 1 1c
LayerCount: 2
Back
SplineSet
540 80 m 1
 460 0 l 1
 420 40 l 1
 420 550 l 1
 385 550 340 650 340 650 c 9
 260 570 l 1
 260 -150 l 1
 260 -150 222 -200 200 -200 c 0
 174 -200 125 -150 100 -150 c 1025
-100 -200 m 17
 -100 -200 -70 -150 -40 -150 c 8
 -3 -150 3 -200 40 -200 c 24
 70 -200 100 -150 100 -150 c 1
 100 570 l 1
 180 650 l 1
 180 650 225 570 260 570 c 1025
40 400 m 1
 520 400 l 1049
EndSplineSet
Fore
SplineSet
3 380 m 1xbc
 60 437 l 1
 63 437 l 1
 63 550 l 1
 200 687 l 1
 217 670 l 1
 217 670 233 642 252 620 c 0
 262 612 271 607 280 607 c 1
 360 687 l 1
 377 670 l 2
 377 670 397 624 422 594 c 0
 428 590 434 587 440 587 c 1
 457 570 l 1
 457 437 l 1
 540 437 l 1
 557 420 l 1
 500 363 l 1
 457 363 l 1
 457 60 l 1
 480 37 l 1
 560 117 l 1
 577 100 l 1
 440 -37 l 1
 383 20 l 1
 383 363 l 1
 297 363 l 1
 297 -130 l 1
 297 -130 286 -144 273 -157 c 2
 217 -213 l 2
 205 -225 191 -237 180 -237 c 0
 156 -237 112 -194 86 -188 c 1
 57 -217 l 2
 46 -228 33 -237 20 -237 c 0xbc
 7 -237 -2 -231 -10 -223 c 2
 -27 -206 l 2
 -31 -202 -34 -198 -37 -194 c 0
 -43 -190 -51 -187 -60 -187 c 0x7c
 -64 -187 -68 -188 -73 -190 c 2
 -120 -237 l 1xbc
 -137 -220 l 1
 -137 -220 -127 -204 -113 -190 c 2
 -57 -133 l 2
 -56 -132 l 0
 -45 -121 -33 -113 -20 -113 c 0x7c
 -7 -113 2 -119 10 -127 c 2
 27 -144 l 2
 27 -145 l 0
 30 -148 34 -153 37 -156 c 0
 43 -161 51 -163 60 -163 c 0
 63 -163 l 1
 63 363 l 1
 20 363 l 1
 3 380 l 1xbc
137 437 m 1
 223 437 l 1
 223 539 l 1
 217 543 210 548 204 554 c 2
 187 571 l 2
 175 583 164 597 156 609 c 1
 137 590 l 1
 137 437 l 1
137 363 m 1
 137 -118 l 1
 163 -131 199 -163 220 -163 c 0
 221 -163 221 -163 223 -163 c 2
 223 363 l 1
 137 363 l 1
297 437 m 1
 383 437 l 1
 383 520 l 2
 380 522 377 525 374 528 c 2
 357 545 l 2
 356 545 l 0
 340 561 324 590 314 608 c 1
 297 590 l 1
 297 437 l 1
EndSplineSet
LCarets2: 2 240 400 
Ligature2: "Ligatures-1" f f t
EndChar
StartChar: f_t_y
Encoding: 61136 61136 356
Width: 680
GlyphClass: 3
Flags: W
HStem: -237 74<37.2827 58.75 522.719 556.891> -187 74<-62 -13.5 438 487> 363 74<60 63 137 223 297 403> 417 20G<585 620>
VStem: 63 74<-157.356 363 437 550> 223 74<37.972 363 437 540.75> 403 74<117 363> 563 74<-156.367 26 60 365>
LayerCount: 2
Back
SplineSet
615 370 m 25
 585 400 l 1049
400 -200 m 17
 400 -200 430 -150 460 -150 c 8
 490.5 -150 509 -200 540 -200 c 24
 566.5 -200 600 -150 600 -150 c 1
 600 385 l 1025
600 80 m 9
 520 0 l 25
 440 80 l 1
 440 385 l 1049
-100 -200 m 1
 -100 -200 -70 -150 -40 -150 c 8
 -3 -150 3 -200 40 -200 c 24
 70 -200 100 -150 100 -150 c 1
 100 570 l 1
 180 650 l 1
 180 650 225 550 260 550 c 1
 260 40 l 1
 300 0 l 1
 380 80 l 1025
40 400 m 1
 425 400 l 25
 455 370 l 1025
EndSplineSet
Fore
SplineSet
3 380 m 1xaf
 60 437 l 1
 63 437 l 1
 63 550 l 1
 200 687 l 1
 217 670 l 1
 217 670 238 623 262 594 c 0
 268 589 274 587 280 587 c 1
 297 570 l 1
 297 437 l 1xaf
 445 437 l 1
 460 422 l 1
 477 405 l 1
 492 390 l 1
 477 375 l 1
 477 100 l 1
 540 37 l 1
 563 60 l 1
 563 365 l 1
 548 380 l 1
 605 437 l 1
 620 422 l 1
 637 405 l 1
 652 390 l 1
 637 375 l 1
 637 100 l 1
 637 -130 l 1
 637 -130 627 -145 613 -159 c 2
 556 -216 l 2
 545 -227 532 -237 520 -237 c 0x9f
 506 -237 495 -227 484 -216 c 2
 472 -204 l 2
 462 -195 452 -187 440 -187 c 0x4f
 436 -187 432 -188 427 -190 c 2
 380 -237 l 1x8f
 363 -220 l 1
 363 -220 373 -204 387 -190 c 2
 443 -133 l 2
 444 -132 l 0
 455 -121 467 -113 480 -113 c 0x4f
 494 -113 504 -123 515 -134 c 2
 528 -146 l 2
 538 -155 548 -163 560 -163 c 0
 563 -163 l 2
 563 26 l 1
 500 -37 l 1
 403 60 l 1
 403 86 l 1
 280 -37 l 1
 223 20 l 1
 223 363 l 1
 137 363 l 1
 137 -130 l 1
 137 -130 127 -146 113 -160 c 2
 57 -217 l 2
 46 -228 33 -237 20 -237 c 0xaf
 7 -237 -2 -231 -10 -223 c 2
 -27 -206 l 2
 -31 -202 -34 -198 -37 -194 c 0
 -43 -190 -51 -187 -60 -187 c 0x4f
 -64 -187 -68 -188 -73 -190 c 2
 -120 -237 l 1x8f
 -137 -220 l 1
 -137 -220 -127 -204 -113 -190 c 2
 -57 -133 l 2
 -56 -132 l 0
 -45 -121 -33 -113 -20 -113 c 0x4f
 -7 -113 2 -119 10 -127 c 2
 27 -144 l 2
 27 -145 l 0
 30 -148 34 -153 37 -156 c 0
 43 -161 51 -163 60 -163 c 0
 63 -163 l 1
 63 363 l 1
 20 363 l 1
 3 380 l 1xaf
137 437 m 1
 223 437 l 1
 223 520 l 2
 220 522 217 525 214 528 c 2
 197 545 l 2
 181 561 164 589 154 608 c 1
 137 590 l 1
 137 437 l 1
297 363 m 1
 297 60 l 2
 297 49 313 44 320 37 c 1
 400 117 l 1
 403 113 l 1
 403 363 l 1
 297 363 l 1
EndSplineSet
LCarets2: 2 240 400 
Ligature2: "Ligatures-1" f t y
EndChar
StartChar: g_d
Encoding: 61138 61138 498
Width: 320
Flags: W
HStem: -187 74<78 126.5> 417 20G<160 197> 417 20G<160 197> 513 74<122.755 178.391>
VStem: 43 74<65.1574 300 574 626.5> 203 74<-157.356 26 60 343 411 494.556>
LayerCount: 2
Back
SplineSet
240 400 m 1
 240 450 l 2
 240 505 195 550 160 550 c 0
 125 550 80 563 80 600 c 27
 80 623 100 630 113 650 c 1049
40 -200 m 17
 40 -200 70 -150 100 -150 c 8
 137 -150 143 -200 180 -200 c 24
 210 -200 240 -150 240 -150 c 9
 240 400 l 1
 240 400 220 368 200 368 c 24
 180 368 160 400 160 400 c 1
 80 320 l 25
 80 80 l 25
 160 0 l 25
 240 80 l 1041
EndSplineSet
Fore
SplineSet
203 343 m 1x9c
 196 337 188 331 180 331 c 0
 171 331 162 338 155 345 c 2
 138 361 l 1
 117 340 l 1
 117 100 l 2
 117 66 162 55 180 37 c 1
 203 60 l 1
 203 343 l 1x9c
203 26 m 1
 140 -37 l 1
 43 60 l 1
 43 300 l 1
 180 437 l 1xdc
 197 420 l 1
 197 420 199 416 203 411 c 0
 203 430 l 2
 203 456 193 480 179 498 c 0
 166 508 153 513 140 513 c 0
 116 513 88 519 72 535 c 2
 55 552 l 2
 48 559 43 568 43 580 c 0
 43 594 51 602 59 610 c 2
 65 617 l 2
 69 621 73 625 76 630 c 2
 133 687 l 1
 150 670 l 1
 146 664 142 660 137 655 c 0
 137 654 l 2
 130 648 l 2
 123 641 117 633 117 620 c 0
 117 613 119 606 122 601 c 0
 138 591 161 587 180 587 c 0
 195 587 212 578 227 564 c 2
 227 563 l 0
 228 563 l 1
 245 546 l 2
 263 528 277 501 277 470 c 2
 277 420 l 1
 277 -130 l 1
 277 -130 267 -146 253 -160 c 2
 197 -217 l 2
 186 -228 173 -237 160 -237 c 0
 147 -237 138 -231 130 -223 c 2
 113 -206 l 2
 109 -202 106 -198 103 -194 c 0
 97 -190 89 -187 80 -187 c 0
 76 -187 72 -188 67 -190 c 2
 20 -237 l 1
 3 -220 l 1
 3 -220 13 -204 27 -190 c 2
 83 -133 l 2
 84 -132 l 0
 95 -121 107 -113 120 -113 c 0
 133 -113 142 -119 150 -127 c 2
 167 -144 l 2
 167 -145 l 0
 170 -148 174 -153 177 -156 c 0
 183 -161 191 -163 200 -163 c 0
 203 -163 l 1
 203 26 l 1
EndSplineSet
LCarets2: 1 160 
Ligature2: "Historic ligatures-1" g d
EndChar
StartChar: p_p
Encoding: 61142 61142 689
Width: 480
Flags: W
HStem: -187 21G<43 80 203 240> 3 38<162.923 176> 417 20G<65 100 160 200 320 360> 417 20G<65 100 160 200 320 360>
VStem: 43 74<-130 -15 77 340> 203 74<-130 -16 66.0717 300> 363 74<100 300>
CounterMasks: 1 0e
LayerCount: 2
Back
SplineSet
240 -150 m 1
 240 320 l 9
 320 400 l 1
 400 320 l 25
 400 80 l 1
 320 0 l 1
 320 0 293 40 220 40 c 0
 197 40 160 0 160 0 c 1
 160 0 123 40 100 40 c 0
 77 40 40 0 40 0 c 1025
240 320 m 25
 160 400 l 1
 80 320 l 1049
65 400 m 25
 95 370 l 1049
80 385 m 1
 80 -150 l 1025
EndSplineSet
Fore
SplineSet
28 380 m 1xee
 85 437 l 1
 100 422 l 1
 117 405 l 1
 132 390 l 1
 117 375 l 1
 117 374 l 1
 180 437 l 1
 260 357 l 1
 340 437 l 1
 437 340 l 1
 437 100 l 1
 300 -37 l 1
 286 -23 l 2
 283 -21 281 -18 277 -16 c 2
 277 -130 l 1
 220 -187 l 1
 203 -170 l 1
 203 3 l 2
 202 3 201 3 200 3 c 0
 184 3 161 -16 149 -28 c 2
 140 -37 l 1
 131 -28 l 2
 127 -24 122 -19 117 -15 c 1
 117 -130 l 1
 60 -187 l 1
 43 -170 l 1
 43 -15 l 1
 38 -19 33 -24 29 -28 c 2
 20 -37 l 1
 3 -20 l 2
 3 -20 4 -19 7 -16 c 2
 8 -15 l 2
 43 20 l 1
 43 300 l 1
 43 365 l 1
 28 380 l 1xee
277 73 m 2
 280 72 284 71 287 70 c 0
 311 63 326 52 334 44 c 0
 340 37 l 1
 363 60 l 1
 363 300 l 1
 300 363 l 1
 277 340 l 1
 277 73 l 2
117 340 m 1
 117 77 l 2
 118 77 119 77 120 77 c 0
 138 77 164 52 175 41 c 0
 176 41 l 2
 180 37 l 1
 184 41 l 2
 188 45 195 52 203 58 c 1
 203 300 l 1
 140 363 l 1
 117 340 l 1
EndSplineSet
LCarets2: 1 240 
Ligature2: "Historic ligatures-1" p p
EndChar
StartChar: pfluorish_p
Encoding: 61143 61143 879
Width: 560
Flags: W
HStem: -187 21G<-17 6 123 160 283 320> 41 86<92.1306 123> 417 20G<145 180 240 280 400 440> 417 20G<145 180 240 280 400 440>
VStem: 23 74<-107.362 50.0192> 123 74<-130 -10 127 340> 283 74<-130 -16 66.0717 300> 443 74<100 300>
LayerCount: 2
Back
SplineSet
320 -150 m 1
 320 320 l 9
 400 400 l 1
 480 320 l 25
 480 80 l 1
 400 0 l 1
 400 0 373 40 300 40 c 0
 277 40 240 0 240 0 c 1
 240 0 186 100 20 100 c 1
 20 100 60 44 60 0 c 3
 60 -132 20 -150 20 -150 c 1033
320 320 m 25
 240 400 l 1
 160 320 l 1049
145 400 m 25
 175 370 l 1049
160 385 m 1
 160 -150 l 1025
EndSplineSet
Fore
SplineSet
108 380 m 1xef
 165 437 l 1
 180 422 l 1
 197 405 l 1
 212 390 l 1
 197 375 l 1
 197 374 l 1
 260 437 l 1
 340 357 l 1
 420 437 l 1
 517 340 l 1
 517 100 l 1
 380 -37 l 1
 366 -23 l 2
 363 -21 361 -18 357 -16 c 2
 357 -130 l 1
 300 -187 l 1
 283 -170 l 1
 283 3 l 2
 282 3 281 3 280 3 c 0
 264 3 241 -16 229 -28 c 2
 220 -37 l 1
 203 -20 l 1
 203 -20 201 -16 197 -10 c 1
 197 -130 l 1
 140 -187 l 1
 123 -170 l 1
 123 41 l 1
 113 45 102 49 91 52 c 1
 95 41 97 31 97 20 c 0
 97 -79 74 -114 63 -125 c 2
 6 -182 l 2
 2 -186 0 -187 0 -187 c 1
 -17 -170 l 1
 -4 -157 l 2
 8 -140 23 -103 23 -20 c 0
 23 24 -17 80 -17 80 c 1
 40 137 l 1
 72 137 99 133 123 127 c 1
 123 300 l 1
 123 365 l 1
 108 380 l 1xef
357 73 m 2
 360 72 364 71 367 70 c 0
 391 63 406 52 414 44 c 0
 420 37 l 1
 443 60 l 1
 443 300 l 1
 380 363 l 1
 357 340 l 1
 357 73 l 2
197 340 m 1
 197 97 l 1
 214 87 227 76 237 66 c 2
 254 49 l 2
 257 46 259 42 262 39 c 1
 264 41 l 2
 268 45 275 52 283 58 c 1
 283 300 l 1
 220 363 l 1
 197 340 l 1
EndSplineSet
LCarets2: 1 320 
Ligature2: "Ligatures-1" pflourish p
EndChar
StartChar: a_l
Encoding: 61350 61350 339
Width: 320
GlyphClass: 3
Flags: W
HStem: 417 20G<140 203> 417 20G<140 203>
VStem: 43 74<80 170> 203 74<39 46 80 188 263 342 426 590>
LayerCount: 2
Back
SplineSet
100 280 m 17
 80 340 l 1
 140 400 l 1
 240 375 l 1
 240 100 l 9
 140 0 l 1
 80 60 l 1
 80 190 l 1
 140 250 l 1
 140 250 155 225 200 225 c 3
 195.995781714 225 240 225 240 225 c 1033
225 30 m 25
 255 0 l 25
 285 30 l 1049
225 625 m 25
 255 595 l 1049
240 610 m 9
 240 15 l 1049
EndSplineSet
Fore
SplineSet
188 605 m 1xb0
 245 662 l 1
 260 647 l 1
 277 630 l 1
 292 615 l 1
 277 600 l 1
 277 395 l 1
 277 120 l 1
 277 39 l 1
 305 67 l 1
 322 50 l 1
 235 -37 l 1
 220 -22 l 1
 203 -5 l 1
 188 10 l 1
 203 25 l 1
 203 46 l 1
 120 -37 l 1
 43 40 l 1
 43 170 l 1
 160 287 l 1
 171 276 l 2
 178 271 188 265 203 263 c 1
 203 342 l 1
 120 363 l 1
 117 360 l 1
 137 300 l 1
 80 243 l 1
 63 260 l 1
 43 320 l 1
 160 437 l 1
 203 426 l 1
 203 590 l 1
 188 605 l 1xb0
203 80 m 1
 203 188 l 1
 180 188 l 1
 149 188 132 201 125 208 c 2
 120 213 l 1
 117 210 l 1
 117 80 l 1
 160 37 l 1
 203 80 l 1
EndSplineSet
LCarets2: 1 160 
Ligature2: "Historic ligatures-1" a l
EndChar
StartChar: a_n
Encoding: 61351 61351 340
Width: 480
GlyphClass: 3
Flags: W
HStem: 417 20G<140 240 340 380> 417 20G<140 240 340 380>
VStem: 43 74<80 170> 203 74<35 46 80 188 263 320> 363 74<35 348.522>
CounterMasks: 1 38
LayerCount: 2
Back
SplineSet
100 280 m 17
 80 340 l 1
 140 400 l 1
 240 375 l 1
 240 100 l 9
 140 0 l 1
 80 60 l 1
 80 190 l 1
 140 250 l 1
 140 250 155 225 200 225 c 3
 195.995781714 225 240 225 240 225 c 1033
385 30 m 25
 415 0 l 1049
400 15 m 1
 400 340 l 25
 340 400 l 1
 240 300 l 1049
225 30 m 25
 255 0 l 1049
240 15 m 1
 240 375 l 1041
EndSplineSet
Fore
SplineSet
203 -5 m 1xb8
 188 10 l 1
 203 25 l 1
 203 46 l 1
 120 -37 l 1
 43 40 l 1
 43 170 l 1
 160 287 l 1
 171 276 l 2
 178 271 188 265 203 263 c 1
 203 280 l 1
 203 342 l 1
 120 363 l 1
 117 360 l 1
 137 300 l 1
 80 243 l 1
 63 260 l 1
 43 320 l 1
 160 437 l 1
 260 412 l 1
 277 395 l 1
 277 354 l 1
 360 437 l 1
 437 360 l 1
 437 35 l 1
 452 20 l 1
 395 -37 l 1
 380 -22 l 1
 363 -5 l 1
 348 10 l 1
 363 25 l 1
 363 320 l 2
 363 343 332 351 320 363 c 1
 277 320 l 1
 277 120 l 1
 277 35 l 1
 292 20 l 1
 235 -37 l 1
 220 -22 l 1
 203 -5 l 1xb8
203 80 m 1
 203 188 l 1
 180 188 l 1
 149 188 132 201 125 208 c 2
 120 213 l 1
 117 210 l 1
 117 80 l 1
 160 37 l 1
 203 80 l 1
EndSplineSet
LCarets2: 1 240 
Ligature2: "Historic ligatures-1" a n
EndChar
StartChar: a_r
Encoding: 61354 61354 343
Width: 400
GlyphClass: 3
Flags: W
HStem: 417 20G<140 240 320 360> 417 20G<140 240 320 360>
VStem: 43 74<80 170> 203 74<40 46 80 188 263 340>
LayerCount: 2
Back
SplineSet
100 280 m 17
 80 340 l 1
 140 400 l 1
 240 375 l 1
 240 100 l 9
 140 0 l 1
 80 60 l 1
 80 190 l 1
 140 250 l 1
 140 250 155 225 200 225 c 3
 195.995781714 225 240 225 240 225 c 1033
300 40 m 25
 260 0 l 1
 240 20 l 1
 240 375 l 1025
360 360 m 25
 320 400 l 25
 240 320 l 1049
EndSplineSet
Fore
SplineSet
397 380 m 1xb0
 340 323 l 1
 300 363 l 1
 277 340 l 1
 277 120 l 1
 277 40 l 1
 280 37 l 1
 320 77 l 1
 337 60 l 1
 240 -37 l 1
 203 0 l 1
 203 46 l 1
 120 -37 l 1
 43 40 l 1
 43 170 l 1
 160 287 l 1
 171 276 l 2
 178 271 188 265 203 263 c 1
 203 300 l 1
 203 342 l 1
 120 363 l 1
 117 360 l 1
 137 300 l 1
 80 243 l 1
 63 260 l 1
 43 320 l 1
 160 437 l 1
 260 412 l 1
 277 395 l 1
 277 374 l 1
 340 437 l 1
 397 380 l 1xb0
203 80 m 1
 203 188 l 1
 180 188 l 1
 149 188 132 201 125 208 c 2
 120 213 l 1
 117 210 l 1
 117 80 l 1
 160 37 l 1
 203 80 l 1
EndSplineSet
LCarets2: 1 240 
Ligature2: "Historic ligatures-1" a r
EndChar
StartChar: n.alt
Encoding: 61992 61992 598
Width: 320
Flags: W
HStem: 417 20G<65 100 180 220> 417 20G<65 100 180 220>
VStem: 43 74<35 320 354 365> 203 74<-90 348.522>
AnchorPoint: "abvmark" 160 500 basechar 0
LayerCount: 2
Back
SplineSet
65 30 m 25
 95 0 l 1049
95 370 m 25
 65 400 l 1049
80 385 m 9
 80 15 l 1025
210 -140 m 25
 240 -110 l 1
 240 340 l 9
 180 400 l 1
 80 300 l 1049
EndSplineSet
Fore
SplineSet
190 -177 m 1xb0
 173 -160 l 1
 203 -130 l 1
 203 320 l 2
 203 343 172 351 160 363 c 1
 117 320 l 1
 117 35 l 1
 132 20 l 1
 75 -37 l 1
 60 -22 l 1
 43 -5 l 1
 28 10 l 1
 43 25 l 1
 43 280 l 1
 43 365 l 1
 28 380 l 1
 85 437 l 1
 100 422 l 1
 117 405 l 1
 132 390 l 1
 117 375 l 1
 117 354 l 1
 200 437 l 1
 277 360 l 1
 277 -90 l 1
 190 -177 l 1xb0
EndSplineSet
EndChar
StartChar: l_l
Encoding: 62713 62713 575
Width: 320
Flags: W
VStem: 43 74<39 590> 203 74<39 590>
LayerCount: 2
Back
SplineSet
225 30 m 25
 255 0 l 25
 285 30 l 1049
225 625 m 25
 255 595 l 1049
240 610 m 9
 240 15 l 1049
65 30 m 25
 95 0 l 25
 125 30 l 1049
65 625 m 25
 95 595 l 1049
80 610 m 9
 80 15 l 1049
EndSplineSet
Fore
SplineSet
28 605 m 1
 85 662 l 1
 100 647 l 1
 117 630 l 1
 132 615 l 1
 117 600 l 1
 117 39 l 1
 145 67 l 1
 162 50 l 1
 75 -37 l 1
 60 -22 l 1
 52 -13 l 1
 28 10 l 1
 43 25 l 1
 43 590 l 1
 28 605 l 1
188 605 m 1
 245 662 l 1
 260 647 l 1
 277 630 l 1
 292 615 l 1
 277 600 l 1
 277 39 l 1
 305 67 l 1
 322 50 l 1
 235 -37 l 1
 220 -22 l 1
 203 -5 l 1
 188 10 l 1
 203 25 l 1
 203 590 l 1
 188 605 l 1
EndSplineSet
LCarets2: 1 160 
Ligature2: "Ligatures-1" l l
EndChar
StartChar: longs_longs_k
Encoding: 62718 62718 711
Width: 680
Flags: W
HStem: -237 74<37.2827 58.8125 174.774 214.728> -187 74<-62 -13.5> 442 20G<585 620>
VStem: 63 74<-130.516 550> 223 74<-154.554 556.922> 403 74<35 216 253 568.959> 563 74<35 179 370 390>
LayerCount: 2
Back
SplineSet
585 425 m 25
 615 395 l 1049
440 200 m 1
 600 350 l 9
 600 410 l 1049
520 275 m 1
 600 200 l 1
 600 15 l 1025
585 30 m 25
 615 0 l 1049
425 30 m 25
 455 0 l 1049
440 15 m 1
 440 600 l 1
 373 600 340 650 340 650 c 9
 260 570 l 1
 260 -150 l 1
 260 -150 222 -200 200 -200 c 0
 174 -200 125 -150 100 -150 c 1025
-100 -200 m 17
 -100 -200 -70 -150 -40 -150 c 8
 -3 -150 3 -200 40 -200 c 24
 70 -200 100 -150 100 -150 c 1
 100 570 l 1
 180 650 l 1
 180 650 225 570 260 570 c 1025
EndSplineSet
Fore
SplineSet
-120 -237 m 1xbe
 -137 -220 l 1
 -137 -220 -127 -204 -113 -190 c 2
 -57 -133 l 2
 -56 -132 l 0
 -45 -121 -33 -113 -20 -113 c 0x7e
 -7 -113 2 -119 10 -127 c 2
 27 -144 l 2
 27 -145 l 0
 30 -148 34 -153 37 -156 c 0
 43 -161 51 -163 60 -163 c 0
 63 -163 l 1
 63 550 l 1
 200 687 l 1
 217 670 l 1
 217 670 233 642 252 620 c 0
 262 612 271 607 280 607 c 1
 360 687 l 1
 377 670 l 1
 377 670 378 668 380 665 c 0
 396 652 423 637 460 637 c 1
 477 620 l 1
 477 253 l 1
 540 312 l 1
 563 334 l 1
 563 390 l 1
 548 405 l 1
 605 462 l 1
 620 447 l 1
 637 430 l 1
 652 415 l 1
 637 400 l 1
 637 370 l 1
 580 313 l 1
 559 294 l 1
 620 237 l 1
 637 220 l 1
 637 35 l 1
 652 20 l 1
 595 -37 l 1
 580 -22 l 1
 563 -5 l 1
 548 10 l 1
 563 25 l 1
 563 179 l 1
 500 238 l 1
 477 216 l 1
 477 35 l 1
 492 20 l 1
 435 -37 l 1
 420 -22 l 1
 403 -5 l 1
 388 10 l 1
 403 25 l 1
 403 180 l 1
 403 564 l 1
 368 569 344 587 331 600 c 2
 319 612 l 1
 297 590 l 1
 297 -130 l 1
 297 -130 286 -144 273 -157 c 2
 217 -213 l 2
 205 -225 191 -237 180 -237 c 0
 156 -237 112 -194 86 -188 c 1
 57 -217 l 2
 46 -228 33 -237 20 -237 c 0xbe
 7 -237 -2 -231 -10 -223 c 2
 -27 -206 l 2
 -31 -202 -34 -198 -37 -194 c 0
 -43 -190 -51 -187 -60 -187 c 0x7e
 -64 -187 -68 -188 -73 -190 c 2
 -120 -237 l 1xbe
223 539 m 1
 217 543 210 548 204 554 c 2
 187 571 l 2
 175 583 164 597 156 609 c 1
 137 590 l 1
 137 -118 l 1
 163 -131 199 -163 220 -163 c 0
 221 -163 221 -163 223 -163 c 2xbe
 223 539 l 1
EndSplineSet
LCarets2: 2 240 400 
Ligature2: "Ligatures-1" longs longs k
EndChar
StartChar: s_t
Encoding: 64262 64262 334
Width: 560
Flags: W
HStem: 3 74<77.6706 122.575> 313 74<235.942 363> 417 20G<160 253.2 500 537> 437 130G<160 253.2 400 437 500 537>
VStem: 43 74<268 300> 203 74<100 132> 363 74<70 314 392 530>
CounterMasks: 1 0e
LayerCount: 2
Back
SplineSet
40 0 m 1
 40 0 72 40 100 40 c 24
 128 40 160 0 160 0 c 9
 240 80 l 1
 240 160 l 1
 80 240 l 1
 80 320 l 1
 160 400 l 17
 160 400 220 350 360 350 c 3
 473 350 500 400 500 400 c 1033
400 550 m 1
 400 50 l 1
 440 0 l 1
 520 100 l 1025
EndSplineSet
Fore
SplineSet
420 587 m 1xee
 437 570 l 1
 437 392 l 1
 467 398 487 408 500 417 c 2
 520 437 l 1
 537 420 l 2
 537 420 535 416 529 410 c 2
 472 353 l 2
 465 346 455 338 437 330 c 1
 437 70 l 1
 456 46 l 1
 483 80 l 1
 540 137 l 1
 557 120 l 1
 477 20 l 1
 420 -37 l 1
 403 -20 l 1
 363 30 l 1
 363 314 l 1
 356 314 348 313 340 313 c 0
 200 313 140 363 140 363 c 1
 117 340 l 1
 117 268 l 1
 260 197 l 1
 277 180 l 1
 277 100 l 1
 140 -37 l 1
 123 -20 l 2
 123 -20 123 -19 121 -17 c 0
 110 -7 94 3 80 3 c 0
 67 3 55 -4 43 -14 c 2
 20 -37 l 1
 3 -20 l 1
 3 -20 7 -15 14 -8 c 2
 71 49 l 2
 83 61 102 77 120 77 c 0
 138 77 157 61 169 49 c 2
 180 37 l 1
 203 60 l 1
 203 132 l 1
 60 203 l 1
 43 220 l 1
 43 300 l 1
 180 437 l 1
 180 437 235 391 363 387 c 1
 363 530 l 1
 420 587 l 1xee
EndSplineSet
LCarets2: 1 320 
Ligature2: "Ligatures-1" s t
EndChar
StartChar: v.alt
Encoding: 65540 -1 782
Width: 320
Flags: W
HStem: 417 20G<65 100 210 250> 417 20G<65 100 210 250>
VStem: 43 74<100 365> 203 74<100 350>
AnchorPoint: "abvmark" 160 500 basechar 0
AnchorPoint: "blwmark" 160 0 basechar 0
LayerCount: 2
Back
SplineSet
210 400 m 1
 240 370 l 25
 240 80 l 1
 160 0 l 25
 80 80 l 1
 80 385 l 1049
95 370 m 25
 65 400 l 1049
EndSplineSet
Fore
SplineSet
173 380 m 1xb0
 230 437 l 1
 277 390 l 1
 277 100 l 1
 140 -37 l 1
 43 60 l 1
 43 365 l 1
 28 380 l 1
 85 437 l 1
 100 422 l 1
 117 405 l 1
 132 390 l 1
 117 375 l 1
 117 100 l 1
 180 37 l 1
 203 60 l 1
 203 350 l 1
 173 380 l 1xb0
EndSplineSet
EndChar
